<?xml version="1.0" encoding="UTF-8" standalone="no"?>
<svg
   xmlns:dc="http://purl.org/dc/elements/1.1/"
   xmlns:cc="http://creativecommons.org/ns#"
   xmlns:rdf="http://www.w3.org/1999/02/22-rdf-syntax-ns#"
   xmlns:svg="http://www.w3.org/2000/svg"
   xmlns="http://www.w3.org/2000/svg"
   width="2.3499999in"
   height="4in"
   viewBox="0 0 59.689999 101.6"
   version="1.1"
   id="svg853">
  <defs
     id="defs847">
    <marker
       orient="auto"
       refY="0.0"
       refX="0.0"
       id="Arrow1Lstart"
       style="overflow:visible">
      <path
         id="path1297"
         d="M 0.0,0.0 L 5.0,-5.0 L -12.5,0.0 L 5.0,5.0 L 0.0,0.0 z "
         style="fill-rule:evenodd;stroke:#000000;stroke-width:1pt;stroke-opacity:1;fill:#000000;fill-opacity:1"
         transform="scale(0.8) translate(12.5,0)" />
    </marker>
  </defs>
  <metadata
     id="metadata850">
    <rdf:RDF>
      <cc:Work
         rdf:about="">
        <dc:format>image/svg+xml</dc:format>
        <dc:type
           rdf:resource="http://purl.org/dc/dcmitype/StillImage" />
        <dc:title></dc:title>
      </cc:Work>
    </rdf:RDF>
  </metadata>
  <path
     id="path1188"
     style="display:inline;fill:#000000;fill-opacity:1;fill-rule:evenodd;stroke:none;stroke-width:0.999999px;stroke-linecap:butt;stroke-linejoin:miter;stroke-opacity:1"
     d="M 88.826172 33.800781 A 2.2677166 2.2677166 0 0 0 86.560547 36.068359 A 2.2677166 2.2677166 0 0 0 88.826172 38.341797 A 2.2677166 2.2677166 0 0 0 91.091797 36.068359 A 2.2677166 2.2677166 0 0 0 88.826172 33.800781 z M 96.820312 33.800781 A 2.2677166 2.2677166 0 0 0 94.554688 36.068359 L 94.554688 40.083984 A 2.2677166 2.2677166 0 0 0 96.820312 42.349609 A 2.2677166 2.2677166 0 0 0 99.087891 40.083984 L 99.087891 36.068359 A 2.2677166 2.2677166 0 0 0 96.820312 33.800781 z M 104.80859 33.800781 A 2.2677166 2.2677166 0 0 0 102.54102 36.068359 L 102.54102 44.078125 A 2.2677166 2.2677166 0 0 0 104.80859 46.34375 A 2.2677166 2.2677166 0 0 0 107.07422 44.078125 L 107.07422 36.068359 A 2.2677166 2.2677166 0 0 0 104.80859 33.800781 z M 112.80273 33.800781 A 2.2677166 2.2677166 0 0 0 110.5293 36.068359 L 110.5293 48.070312 A 2.2677166 2.2677166 0 0 0 112.80273 50.337891 A 2.2677166 2.2677166 0 0 0 115.06836 48.070312 L 115.06836 36.068359 A 2.2677166 2.2677166 0 0 0 112.80273 33.800781 z M 120.78906 33.800781 A 2.2677166 2.2677166 0 0 0 118.52344 36.068359 L 118.52344 52.064453 A 2.2677166 2.2677166 0 0 0 120.78906 54.330078 A 2.2677166 2.2677166 0 0 0 123.05664 52.064453 L 123.05664 36.068359 A 2.2677166 2.2677166 0 0 0 120.78906 33.800781 z M 128.78516 33.800781 A 2.2677166 2.2677166 0 0 0 126.51172 36.068359 L 126.51172 56.058594 A 2.2677166 2.2677166 0 0 0 128.78516 58.332031 A 2.2677166 2.2677166 0 0 0 131.05078 56.058594 L 131.05078 36.068359 A 2.2677166 2.2677166 0 0 0 128.78516 33.800781 z M 136.77148 33.800781 A 2.2677166 2.2677166 0 0 0 134.50586 36.068359 L 134.50586 60.058594 A 2.2677166 2.2677166 0 0 0 136.77148 62.326172 A 2.2677166 2.2677166 0 0 0 139.03711 60.058594 L 139.03711 36.068359 A 2.2677166 2.2677166 0 0 0 136.77148 33.800781 z M 21.599609 156.05664 L 24.333984 209.20312 L 35.564453 214.07031 L 45.154297 173.61133 L 51.316406 234.52344 L 61.869141 242.93555 L 71.498047 174.59375 L 82.501953 239.55273 L 90.998047 241.28516 L 102.2793 181.34375 L 115.15625 243.06055 L 127.45898 244.70312 L 140.23047 174.37891 L 145.42188 238.47461 L 154.9043 240.08984 L 164.23047 174.37891 L 172.91797 233.66602 L 183.92383 226.00781 L 189.61523 179.11719 L 194.19336 201.71875 L 201.88086 194.63867 L 204 156.05664 L 21.599609 156.05664 z "
     transform="scale(0.26458334)" />
</svg>
