<?xml version="1.0" encoding="UTF-8" standalone="no"?>
<svg
   id="svg853"
   version="1.1"
   viewBox="0 0 59.689999 101.6"
   height="4in"
   width="2.3499999in"
   xmlns="http://www.w3.org/2000/svg"
   xmlns:svg="http://www.w3.org/2000/svg"
   xmlns:rdf="http://www.w3.org/1999/02/22-rdf-syntax-ns#"
   xmlns:cc="http://creativecommons.org/ns#"
   xmlns:dc="http://purl.org/dc/elements/1.1/">
  <defs
     id="defs847" />
  <metadata
     id="metadata850">
    <rdf:RDF>
      <cc:Work
         rdf:about="">
        <dc:format>image/svg+xml</dc:format>
        <dc:type
           rdf:resource="http://purl.org/dc/dcmitype/StillImage" />
      </cc:Work>
    </rdf:RDF>
  </metadata>
  <g
     id="layer5"
     style="display:inline">
    <path
       style="display:inline;fill:none;stroke:#000000;stroke-width:0.254;stroke-miterlimit:4;stroke-dasharray:none;stroke-opacity:1"
       d="m 37.669999,61.619592 a 7.8250006,7.8249999 0 0 0 -7.825,-7.824999 7.8250006,7.8249999 0 0 0 -7.825,7.824999 7.8250006,7.8249999 0 0 0 7.825,7.824999 7.8250006,7.8249999 0 0 0 7.825,-7.824999 z"
       id="circle8" />
    <path
       style="display:inline;fill:none;stroke:#000000;stroke-width:0.254;stroke-miterlimit:4;stroke-dasharray:none"
       d="m 33.401,28.59 a 3.5559999,3.5559999 0 0 0 -3.556,-3.556 3.5559999,3.5559999 0 0 0 -3.556,3.556 3.5559999,3.5559999 0 0 0 3.556,3.556 3.5559999,3.5559999 0 0 0 3.556,-3.556 z"
       id="circle4" />
  </g>
</svg>
