<?xml version="1.0" encoding="UTF-8" standalone="no"?>
<svg
   xmlns:dc="http://purl.org/dc/elements/1.1/"
   xmlns:cc="http://creativecommons.org/ns#"
   xmlns:rdf="http://www.w3.org/1999/02/22-rdf-syntax-ns#"
   xmlns:svg="http://www.w3.org/2000/svg"
   xmlns="http://www.w3.org/2000/svg"
   width="2.3499999in"
   height="4in"
   viewBox="0 0 59.689999 101.6"
   version="1.1"
   id="svg853">
  <defs
     id="defs847">
    <marker
       orient="auto"
       refY="0.0"
       refX="0.0"
       id="Arrow1Lstart"
       style="overflow:visible">
      <path
         id="path1297"
         d="M 0.0,0.0 L 5.0,-5.0 L -12.5,0.0 L 5.0,5.0 L 0.0,0.0 z "
         style="fill-rule:evenodd;stroke:#000000;stroke-width:1pt;stroke-opacity:1;fill:#000000;fill-opacity:1"
         transform="scale(0.8) translate(12.5,0)" />
    </marker>
  </defs>
  <metadata
     id="metadata850">
    <rdf:RDF>
      <cc:Work
         rdf:about="">
        <dc:format>image/svg+xml</dc:format>
        <dc:type
           rdf:resource="http://purl.org/dc/dcmitype/StillImage" />
        <dc:title></dc:title>
      </cc:Work>
    </rdf:RDF>
  </metadata>
  <path
     id="path881"
     style="color:#000000;font-style:normal;font-variant:normal;font-weight:normal;font-stretch:normal;font-size:19.7556px;line-height:1;font-family:OCRA;-inkscape-font-specification:'OCRA, Normal';font-variant-ligatures:normal;font-variant-caps:normal;font-variant-numeric:normal;font-feature-settings:normal;text-indent:0;text-align:center;text-decoration:none;text-decoration-line:none;text-decoration-style:solid;text-decoration-color:#000000;letter-spacing:0px;word-spacing:0px;text-transform:none;writing-mode:lr-tb;direction:ltr;baseline-shift:baseline;text-anchor:middle;white-space:normal;clip-rule:nonzero;visibility:visible;isolation:auto;mix-blend-mode:normal;color-interpolation:sRGB;color-interpolation-filters:linearRGB;solid-color:#000000;solid-opacity:1;fill:#000000;fill-opacity:1;fill-rule:nonzero;stroke:none;stroke-width:0.999999px;stroke-linecap:butt;stroke-linejoin:miter;stroke-miterlimit:4;stroke-dasharray:none;stroke-dashoffset:0;stroke-opacity:1;color-rendering:auto;image-rendering:auto;shape-rendering:auto;text-rendering:auto"
     d="M 112.7793 11.080078 A 2.501617 2.501617 0 0 0 112.61133 11.087891 A 2.5013669 2.5013669 0 0 0 112.58203 11.095703 A 2.501617 2.501617 0 0 0 112.36719 11.125 A 2.501617 2.501617 0 0 0 112.12305 11.175781 A 2.5013669 2.5013669 0 0 0 112.10156 11.183594 A 2.501617 2.501617 0 0 0 111.85742 11.265625 A 2.5013669 2.5013669 0 0 0 111.79102 11.294922 A 2.501617 2.501617 0 0 0 111.75391 11.316406 A 2.5013669 2.5013669 0 0 0 111.54688 11.419922 A 2.5013669 2.5013669 0 0 0 111.33398 11.560547 A 2.5013669 2.5013669 0 0 0 111.15625 11.701172 A 2.501617 2.501617 0 0 0 111.06836 11.78125 A 2.5013669 2.5013669 0 0 0 110.94922 11.900391 A 2.501617 2.501617 0 0 0 110.94141 11.914062 A 2.5013669 2.5013669 0 0 0 110.80273 12.076172 A 2.501617 2.501617 0 0 0 110.7793 12.105469 L 100.00977 26.345703 A 2.5013669 2.5013669 0 0 0 100.49609 29.845703 A 2.5013669 2.5013669 0 0 0 104.00195 29.357422 L 110.30078 21.039062 L 110.30078 62.28125 A 2.5013669 2.5013669 0 0 0 112.80273 64.783203 A 2.5013669 2.5013669 0 0 0 115.29688 62.28125 L 115.29688 21.03125 L 121.60156 29.357422 A 2.5013669 2.5013669 0 0 0 125.10156 29.845703 A 2.5013669 2.5013669 0 0 0 125.58789 26.345703 L 114.87695 12.1875 A 2.5013669 2.5013669 0 0 0 114.78125 12.0625 A 2.5013669 2.5013669 0 0 0 114.625 11.876953 A 2.5013669 2.5013669 0 0 0 114.44141 11.701172 A 2.5013669 2.5013669 0 0 0 114.30859 11.589844 A 2.5013669 2.5013669 0 0 0 114.24219 11.537109 A 2.501617 2.501617 0 0 0 114.09375 11.441406 A 2.5013669 2.5013669 0 0 0 114.07227 11.433594 A 2.501617 2.501617 0 0 0 113.86523 11.324219 A 2.5013669 2.5013669 0 0 0 113.79102 11.287109 A 2.501617 2.501617 0 0 0 113.73242 11.265625 A 2.5013669 2.5013669 0 0 0 113.55469 11.199219 A 2.5013669 2.5013669 0 0 0 113.54883 11.199219 A 2.501617 2.501617 0 0 0 113.37891 11.154297 A 2.501617 2.501617 0 0 0 113.20898 11.117188 A 2.5013669 2.5013669 0 0 0 113.03906 11.095703 A 2.5013669 2.5013669 0 0 0 112.81055 11.080078 A 2.501617 2.501617 0 0 0 112.78125 11.080078 L 112.7793 11.080078 z M 51.177734 75.623047 C 49.833734 75.623047 48.779297 76.727438 48.779297 78.023438 L 48.779297 90.263672 C 48.779297 91.607672 49.833734 92.710938 51.177734 92.710938 L 67.833984 92.710938 L 67.833984 108.21484 C 66.489984 108.21484 65.433594 109.31923 65.433594 110.61523 C 65.433594 111.95923 66.489984 113.06445 67.833984 113.06445 L 70.234375 113.06445 C 71.578375 113.06445 72.681641 111.95923 72.681641 110.61523 L 72.681641 78.023438 C 72.681641 76.727438 71.578375 75.623047 70.234375 75.623047 L 51.177734 75.623047 z M 85.882812 75.623047 C 84.538813 75.623047 83.482422 76.727438 83.482422 78.023438 L 83.482422 86.710938 L 93.130859 111.52734 C 93.514859 112.43934 94.377594 113.06445 95.433594 113.06445 C 96.441594 113.06445 97.307406 112.43934 97.691406 111.52734 L 107.38672 86.664062 L 107.38672 78.023438 C 107.38672 76.727438 106.28345 75.623047 104.93945 75.623047 C 103.59545 75.623047 102.53906 76.727438 102.53906 78.023438 L 102.53906 85.751953 L 95.433594 103.89648 L 88.330078 85.751953 L 88.330078 78.023438 C 88.330078 76.727438 87.226812 75.623047 85.882812 75.623047 z M 120.58594 75.623047 C 119.24194 75.623047 118.18555 76.727438 118.18555 78.023438 C 118.18555 79.367437 119.24194 80.470703 120.58594 80.470703 L 122.93945 80.470703 L 122.93945 108.21484 L 120.58594 108.21484 C 119.24194 108.21484 118.18555 109.31923 118.18555 110.61523 C 118.18555 111.95923 119.24194 113.06445 120.58594 113.06445 L 129.51367 113.06445 C 132.48967 113.06445 135.03497 111.28808 136.04297 109.08008 L 140.89062 99.287109 C 141.56262 97.895109 142.08984 96.26375 142.08984 94.34375 C 142.08984 92.42375 141.56262 90.792391 140.89062 89.400391 L 135.99414 79.65625 C 134.89014 77.49625 132.48967 75.623047 129.51367 75.623047 L 120.58594 75.623047 z M 165.41797 75.623047 C 162.44197 75.623047 159.89862 77.399422 158.89062 79.607422 L 154.04297 89.400391 C 153.37097 90.792391 152.89062 92.37575 152.89062 94.34375 C 152.89062 96.31175 153.37097 97.847109 154.04297 99.287109 C 155.57897 102.64711 157.25945 105.81525 158.93945 109.03125 C 160.04345 111.19125 162.44197 113.06445 165.41797 113.06445 L 174.3457 113.06445 C 175.6897 113.06445 176.79492 111.95923 176.79492 110.61523 C 176.79492 109.31923 175.6897 108.21484 174.3457 108.21484 L 165.41797 108.21484 C 164.45797 108.21484 163.64264 107.59109 163.30664 106.87109 L 158.36328 97.126953 C 157.97928 96.310953 157.73828 95.44775 157.73828 94.34375 C 157.73828 93.23975 157.97928 92.376547 158.36328 91.560547 L 163.30664 81.816406 C 163.64264 81.096406 164.45797 80.470703 165.41797 80.470703 L 174.3457 80.470703 C 175.6897 80.470703 176.79492 79.367437 176.79492 78.023438 C 176.79492 76.727438 175.6897 75.623047 174.3457 75.623047 L 165.41797 75.623047 z M 53.578125 80.470703 L 67.833984 80.470703 L 67.833984 87.863281 L 53.578125 87.863281 L 53.578125 80.470703 z M 127.78711 80.470703 L 129.51367 80.470703 C 130.47367 80.470703 131.29095 81.096406 131.62695 81.816406 L 136.57031 91.560547 C 136.95431 92.328547 137.24219 93.28775 137.24219 94.34375 C 137.24219 95.39975 136.90631 96.310953 136.57031 97.126953 L 131.62695 106.87109 C 131.29095 107.59109 130.47367 108.21484 129.51367 108.21484 L 127.78711 108.21484 L 127.78711 80.470703 z M 112.77344 127.19727 C 107.02396 127.19727 101.27738 129.38478 96.902344 133.75977 C 93.039912 137.62221 90.884211 142.55579 90.431641 147.61523 L 62.148438 147.61523 C 61.121879 136.26704 51.553213 127.33789 39.943359 127.33789 C 27.651448 127.33789 17.642578 137.34671 17.642578 149.63867 C 17.642578 161.93044 27.65145 171.93945 39.943359 171.93945 C 51.553213 171.93945 61.121879 163.00821 62.148438 151.66016 L 90.431641 151.66016 C 90.885345 156.71757 93.041393 161.6488 96.902344 165.50977 C 105.65241 174.25996 119.90227 174.25996 128.65234 165.50977 A 2.016 2.016 0 0 0 128.65234 162.66016 A 2.016 2.016 0 0 0 125.80273 162.66016 C 118.59349 169.86951 106.9612 169.86951 99.751953 162.66016 C 92.542606 155.45079 92.542606 143.82656 99.751953 136.61719 C 106.96119 129.40803 118.59341 129.40802 125.80273 136.61719 A 2.016 2.016 0 0 0 128.65234 136.61719 A 2.016 2.016 0 0 0 128.65234 133.75977 C 124.27727 129.38478 118.52292 127.19727 112.77344 127.19727 z M 185.6543 127.33789 C 174.04444 127.33789 164.47578 136.26704 163.44922 147.61523 L 122.05273 147.61523 C 121.11395 143.19247 117.16892 139.8418 112.47852 139.8418 C 107.09491 139.8418 102.68164 144.25504 102.68164 149.63867 C 102.68164 155.0223 107.09491 159.42578 112.47852 159.42578 C 117.16954 159.42578 121.11462 156.08235 122.05273 151.66016 L 163.44922 151.66016 C 164.47578 163.00821 174.04444 171.93945 185.6543 171.93945 C 197.94621 171.93945 207.95508 161.93044 207.95508 149.63867 C 207.95508 137.34671 197.94621 127.33789 185.6543 127.33789 z M 39.943359 131.38281 C 50.047994 131.38281 58.199219 139.53389 58.199219 149.63867 C 58.199219 159.74322 50.047994 167.88672 39.943359 167.88672 C 29.838642 167.88672 21.6875 159.74322 21.6875 149.63867 C 21.6875 139.53389 29.838643 131.38281 39.943359 131.38281 z M 185.6543 131.38281 C 195.75901 131.38281 203.91016 139.53389 203.91016 149.63867 C 203.91016 159.74322 195.75902 167.88672 185.6543 167.88672 C 175.54966 167.88672 167.40625 159.74322 167.40625 149.63867 C 167.40625 139.53389 175.54966 131.38281 185.6543 131.38281 z M 39.943359 137.49414 C 38.578032 137.49414 37.457031 138.61707 37.457031 139.93359 L 37.457031 147.14844 L 30.240234 147.14844 C 28.874987 147.14844 27.802734 148.27143 27.802734 149.63672 C 27.802734 151.00201 28.874987 152.07422 30.240234 152.07422 L 37.457031 152.07422 L 37.457031 159.29102 C 37.457031 160.6563 38.578032 161.77734 39.943359 161.77734 C 41.259962 161.77734 42.380859 160.6563 42.380859 159.29102 L 42.380859 152.07422 L 49.597656 152.07422 C 50.962905 152.07422 52.083984 151.00201 52.083984 149.63672 C 52.083984 148.27143 50.962905 147.14844 49.597656 147.14844 L 42.380859 147.14844 L 42.380859 139.93359 C 42.380859 138.61707 41.259878 137.49414 39.943359 137.49414 z M 175.95312 146.125 C 174.5878 146.125 173.51563 147.24604 173.51562 148.61133 L 173.51562 150.66016 C 173.51562 152.02544 174.5878 153.14648 175.95312 153.14648 L 195.31055 153.14648 C 196.67587 153.14648 197.79687 152.02544 197.79688 150.66016 L 197.79688 148.61133 C 197.79688 147.24604 196.67587 146.125 195.31055 146.125 L 175.95312 146.125 z M 40.224609 217.01953 L 40.224609 271.45312 C 40.224609 273.5438 41.866363 275.25977 43.957031 275.25977 C 46.047703 275.25977 47.765625 273.5438 47.765625 271.45312 L 47.765625 230.46094 L 67.402344 275.25977 L 77.408203 275.25977 L 77.408203 220.75391 C 77.408203 218.7379 75.690278 217.01953 73.599609 217.01953 C 71.508937 217.01953 69.867188 218.7379 69.867188 220.75391 L 69.867188 261.9707 L 50.154297 217.01953 L 40.224609 217.01953 z M 94.207031 217.01953 L 94.207031 271.45312 C 94.207031 273.5438 95.850734 275.25977 97.941406 275.25977 C 100.03208 275.25977 101.75 273.5438 101.75 271.45312 L 101.75 243.60156 L 120.19141 243.60156 C 122.28208 243.60156 123.92578 241.88364 123.92578 239.79297 C 123.92578 237.7023 122.28208 236.06055 120.19141 236.06055 L 101.75 236.06055 L 101.75 224.5625 L 127.58398 224.5625 C 129.67466 224.5625 131.39258 222.84458 131.39258 220.75391 C 131.39258 218.7379 129.67466 217.01953 127.58398 217.01953 L 94.207031 217.01953 z M 151.92578 217.01953 C 149.83511 217.01953 148.19141 218.7379 148.19141 220.75391 C 148.19141 221.50057 148.34195 222.09798 148.64062 222.69531 L 162.37891 246.14062 L 148.64062 269.58594 C 148.34197 270.18327 148.19141 270.78113 148.19141 271.45312 C 148.19141 273.5438 149.83511 275.25977 151.92578 275.25977 C 153.34445 275.25977 154.53893 274.51453 155.21094 273.39453 L 166.7832 253.68164 L 178.2832 273.39453 C 178.9552 274.51453 180.14969 275.25977 181.56836 275.25977 C 183.65903 275.25977 185.37695 273.5438 185.37695 271.45312 C 185.37695 270.78113 185.15217 270.18327 184.85352 269.58594 L 171.11523 246.14062 L 184.85352 222.69531 C 185.15217 222.09798 185.37695 221.50057 185.37695 220.75391 C 185.37695 218.7379 183.65903 217.01953 181.56836 217.01953 C 180.14969 217.01953 178.9552 217.76672 178.2832 218.88672 L 166.7832 238.59961 L 155.21094 218.88672 C 154.53893 217.76672 153.34445 217.01953 151.92578 217.01953 z M 47.765625 291.6875 C 43.658949 291.6875 40.224609 295.12184 40.224609 299.22852 L 40.224609 342.38672 C 40.224609 346.49339 43.658949 349.92773 47.765625 349.92773 L 69.867188 349.92773 C 73.899195 349.92773 77.408203 346.41873 77.408203 342.38672 L 77.408203 299.22852 C 77.408203 295.19651 73.899195 291.6875 69.867188 291.6875 L 47.765625 291.6875 z M 101.75 291.6875 C 97.643324 291.6875 94.207031 295.12184 94.207031 299.22852 L 94.207031 342.38672 C 94.207031 346.49339 97.643324 349.92773 101.75 349.92773 L 123.84961 349.92773 C 127.88162 349.92773 131.39258 346.41873 131.39258 342.38672 L 131.39258 299.22852 C 131.39258 295.19651 127.88162 291.6875 123.84961 291.6875 L 101.75 291.6875 z M 155.58398 291.6875 L 155.58398 324.54102 L 177.83398 324.54102 L 177.83398 342.38672 L 160.13867 342.38672 L 153.41797 339.54883 C 152.96997 339.32482 152.44845 339.25 151.92578 339.25 C 149.83511 339.25 148.19141 340.89175 148.19141 342.98242 C 148.19141 344.55042 149.08764 345.89485 150.43164 346.49219 C 153.56765 347.83619 156.70343 349.92773 160.88477 349.92773 L 177.83398 349.92773 C 181.866 349.92773 185.37695 346.41873 185.37695 342.38672 L 185.37695 324.54102 C 185.37695 320.509 181.866 317 177.83398 317 L 163.125 317 L 163.125 299.22852 L 181.56836 299.22852 C 183.65903 299.22852 185.37695 297.51059 185.37695 295.41992 C 185.37695 293.40391 183.65903 291.6875 181.56836 291.6875 L 155.58398 291.6875 z M 47.765625 299.22852 L 69.867188 299.22852 L 69.867188 342.38672 L 47.765625 342.38672 L 47.765625 299.22852 z M 101.75 299.22852 L 123.84961 299.22852 L 123.84961 342.38672 L 101.75 342.38672 L 101.75 299.22852 z "
     transform="scale(0.26458334)" />
</svg>
