<?xml version="1.0" encoding="UTF-8" standalone="no"?>
<svg
   xmlns:dc="http://purl.org/dc/elements/1.1/"
   xmlns:cc="http://creativecommons.org/ns#"
   xmlns:rdf="http://www.w3.org/1999/02/22-rdf-syntax-ns#"
   xmlns:svg="http://www.w3.org/2000/svg"
   xmlns="http://www.w3.org/2000/svg"
   width="2.3499999in"
   height="4in"
   viewBox="0 0 59.689999 101.6"
   version="1.1"
   id="svg853">
  <defs
     id="defs847">
    <marker
       orient="auto"
       refY="0.0"
       refX="0.0"
       id="Arrow1Lstart"
       style="overflow:visible">
      <path
         id="path1297"
         d="M 0.0,0.0 L 5.0,-5.0 L -12.5,0.0 L 5.0,5.0 L 0.0,0.0 z "
         style="fill-rule:evenodd;stroke:#000000;stroke-width:1pt;stroke-opacity:1;fill:#000000;fill-opacity:1"
         transform="scale(0.8) translate(12.5,0)" />
    </marker>
  </defs>
  <metadata
     id="metadata850">
    <rdf:RDF>
      <cc:Work
         rdf:about="">
        <dc:format>image/svg+xml</dc:format>
        <dc:type
           rdf:resource="http://purl.org/dc/dcmitype/StillImage" />
        <dc:title></dc:title>
      </cc:Work>
    </rdf:RDF>
  </metadata>
  <path
     id="path1190"
     style="color:#000000;font-style:normal;font-variant:normal;font-weight:normal;font-stretch:normal;font-size:medium;line-height:normal;font-family:sans-serif;font-variant-ligatures:normal;font-variant-position:normal;font-variant-caps:normal;font-variant-numeric:normal;font-variant-alternates:normal;font-variant-east-asian:normal;font-feature-settings:normal;font-variation-settings:normal;text-indent:0;text-align:start;text-decoration:none;text-decoration-line:none;text-decoration-style:solid;text-decoration-color:#000000;letter-spacing:normal;word-spacing:normal;text-transform:none;writing-mode:lr-tb;direction:ltr;text-orientation:mixed;dominant-baseline:auto;baseline-shift:baseline;text-anchor:start;white-space:normal;shape-padding:0;shape-margin:0;inline-size:0;clip-rule:nonzero;display:inline;overflow:visible;visibility:visible;opacity:1;isolation:auto;mix-blend-mode:normal;color-interpolation:sRGB;color-interpolation-filters:linearRGB;solid-color:#000000;solid-opacity:1;vector-effect:none;fill:#000000;fill-opacity:1;fill-rule:evenodd;stroke:none;stroke-width:3.77953;stroke-linecap:butt;stroke-linejoin:bevel;stroke-miterlimit:4;stroke-dasharray:none;stroke-dashoffset:0;stroke-opacity:1;color-rendering:auto;image-rendering:auto;shape-rendering:auto;text-rendering:auto;enable-background:accumulate;stop-color:#000000;stop-opacity:1"
     d="M 112.80273 12.341797 C 59.970106 12.341796 17.089842 55.224013 17.089844 108.05664 C 17.089844 128.81065 23.70927 148.0263 34.947266 163.71289 C 18.451292 182.19456 8.4160156 206.56319 8.4160156 233.26758 C 8.4160139 276.34093 34.513155 313.35268 71.746094 329.35352 C 75.39028 348.70882 92.400225 363.38867 112.80273 363.38867 C 133.15675 363.38867 150.13703 348.77923 153.83594 329.49219 C 191.23692 313.5662 217.47852 276.46404 217.47852 233.26758 C 217.47852 206.47567 207.37988 182.03275 190.78906 163.5293 C 201.94521 147.87678 208.50977 128.72899 208.50977 108.05664 C 208.50977 55.224013 165.63536 12.341797 112.80273 12.341797 z M 112.80273 16.882812 C 163.18423 16.882812 203.97656 57.675142 203.97656 108.05664 C 203.97656 127.43925 197.93312 145.39869 187.63477 160.16602 C 168.65683 140.78032 142.2049 128.74023 112.95117 128.74023 C 83.607851 128.74023 57.079825 140.85357 38.087891 160.34375 C 27.712754 145.54303 21.621094 127.51683 21.621094 108.05664 C 21.621092 57.675142 62.421236 16.882812 112.80273 16.882812 z M 109.80469 133.33398 L 89.380859 196.19141 C 69.833702 191.01659 52.868735 179.52089 40.802734 164.01758 C 58.320565 145.77351 82.699529 134.17079 109.80469 133.33398 z M 116.08789 133.33398 C 143.11274 134.16583 167.42358 145.70094 184.92969 163.84961 C 172.91182 179.36748 155.99496 190.8937 136.49023 196.12109 L 116.08789 133.33398 z M 112.94727 138.35352 L 132.0625 197.1875 C 125.85383 198.52102 119.41188 199.23047 112.80273 199.23047 C 106.28864 199.23047 99.936802 198.54252 93.810547 197.24609 L 112.94727 138.35352 z M 188.02734 167.21289 C 196.21452 176.51247 202.7021 187.34574 207 199.23047 L 141.97461 199.23047 C 160.36527 193.34427 176.34305 182.04926 188.02734 167.21289 z M 37.714844 167.38867 C 49.388093 182.13779 65.312521 193.36783 83.630859 199.23047 L 18.894531 199.23047 C 23.166003 187.42049 29.599582 176.64893 37.714844 167.38867 z M 22.90625 203.76953 L 86.917969 203.76953 L 74.693359 241.39453 L 22.90625 203.76953 z M 91.691406 203.76953 L 134.20117 203.76953 L 147.33789 244.20117 L 112.94531 269.1875 L 78.554688 244.20117 L 91.691406 203.76953 z M 138.97461 203.76953 L 202.98633 203.76953 L 151.19922 241.39453 L 138.97461 203.76953 z M 208.9043 205.07227 C 211.52479 214.01447 212.9375 223.47399 212.9375 233.26758 C 212.9375 265.417 197.78739 294.00387 174.23633 312.29297 L 152.67383 245.92969 L 208.9043 205.07227 z M 16.988281 205.07422 L 73.21875 245.92969 L 51.65625 312.29102 C 28.105195 294.00179 12.955077 265.41532 12.955078 233.26758 C 12.955078 223.47471 14.367775 214.01584 16.988281 205.07422 z M 77.082031 248.73438 L 109.08984 271.99023 L 57.298828 309.61914 L 77.082031 248.73438 z M 148.81055 248.73633 L 168.59375 309.61914 L 116.80469 271.99023 L 148.81055 248.73633 z M 112.94727 274.79297 L 120.95898 280.61328 C 118.3199 280.08952 115.59399 279.81055 112.80273 279.81055 C 110.14557 279.81055 107.54967 280.06916 105.0293 280.54492 L 112.94727 274.79297 z M 112.80273 284.34375 C 133.40453 284.34375 150.05078 300.99781 150.05078 321.59961 C 150.05078 323.18621 149.94167 324.74532 149.75 326.2793 C 138.3619 330.7856 125.94863 333.26367 112.95117 333.26367 C 99.832644 333.26367 87.307491 330.7368 75.832031 326.15039 C 75.650712 324.65777 75.546875 323.14179 75.546875 321.59961 C 75.546879 300.99781 92.200934 284.34375 112.80273 284.34375 z M 149.23633 301.16016 L 169.4082 315.81641 C 164.71125 319.03425 159.72626 321.86202 154.49805 324.25195 C 154.55328 323.37399 154.5918 322.49133 154.5918 321.59961 C 154.5918 314.17675 152.64001 307.2065 149.23633 301.16016 z M 76.162109 301.51953 C 72.883542 307.48146 71.013673 314.3247 71.013672 321.59961 C 71.013672 322.4435 71.046196 323.27972 71.095703 324.11133 C 65.976878 321.75063 61.093285 318.97067 56.486328 315.81445 L 76.162109 301.51953 z M 76.851562 331.39258 C 88.104598 335.53762 100.26508 337.80273 112.95117 337.80273 C 125.51023 337.80274 137.55317 335.58378 148.71094 331.51758 C 144.37726 347.29016 129.96736 358.85547 112.80273 358.85547 C 95.592658 358.85547 81.144811 347.22923 76.851562 331.39258 z "
     transform="scale(0.26458334)" />
</svg>
