<?xml version="1.0" encoding="UTF-8" standalone="no"?>
<svg
   xmlns:dc="http://purl.org/dc/elements/1.1/"
   xmlns:cc="http://creativecommons.org/ns#"
   xmlns:rdf="http://www.w3.org/1999/02/22-rdf-syntax-ns#"
   xmlns:svg="http://www.w3.org/2000/svg"
   xmlns="http://www.w3.org/2000/svg"
   width="2.3499999in"
   height="4in"
   viewBox="0 0 59.689999 101.6"
   version="1.1"
   id="svg853">
  <defs
     id="defs847">
    <marker
       orient="auto"
       refY="0.0"
       refX="0.0"
       id="Arrow1Lstart"
       style="overflow:visible">
      <path
         id="path1297"
         d="M 0.0,0.0 L 5.0,-5.0 L -12.5,0.0 L 5.0,5.0 L 0.0,0.0 z "
         style="fill-rule:evenodd;stroke:#000000;stroke-width:1pt;stroke-opacity:1;fill:#000000;fill-opacity:1"
         transform="scale(0.8) translate(12.5,0)" />
    </marker>
  </defs>
  <metadata
     id="metadata850">
    <rdf:RDF>
      <cc:Work
         rdf:about="">
        <dc:format>image/svg+xml</dc:format>
        <dc:type
           rdf:resource="http://purl.org/dc/dcmitype/StillImage" />
        <dc:title></dc:title>
      </cc:Work>
    </rdf:RDF>
  </metadata>
  <path
     id="path4101-1"
     style="color:#000000;font-style:normal;font-variant:normal;font-weight:normal;font-stretch:normal;font-size:medium;line-height:normal;font-family:sans-serif;font-variant-ligatures:normal;font-variant-position:normal;font-variant-caps:normal;font-variant-numeric:normal;font-variant-alternates:normal;font-feature-settings:normal;text-indent:0;text-align:start;text-decoration:none;text-decoration-line:none;text-decoration-style:solid;text-decoration-color:#000000;letter-spacing:normal;word-spacing:normal;text-transform:none;writing-mode:lr-tb;direction:ltr;text-orientation:mixed;dominant-baseline:auto;baseline-shift:baseline;text-anchor:start;white-space:normal;shape-padding:0;clip-rule:nonzero;display:inline;overflow:visible;visibility:visible;opacity:1;isolation:auto;mix-blend-mode:normal;color-interpolation:sRGB;color-interpolation-filters:linearRGB;solid-color:#000000;solid-opacity:1;vector-effect:none;fill:#000000;fill-opacity:1;fill-rule:nonzero;stroke:none;stroke-width:4.04708;stroke-linecap:butt;stroke-linejoin:miter;stroke-miterlimit:4;stroke-dasharray:none;stroke-dashoffset:0;stroke-opacity:1;marker:none;color-rendering:auto;image-rendering:auto;shape-rendering:auto;text-rendering:auto;enable-background:accumulate"
     d="M 112.77148 11.052734 A 2.5016127 2.5016127 0 0 0 112.6543 11.058594 A 2.5016127 2.5016127 0 0 0 111.23047 11.634766 A 2.5016127 2.5016127 0 0 0 110.87695 11.988281 A 2.5016127 2.5016127 0 0 0 110.80273 12.076172 L 100.00977 26.345703 A 2.5016127 2.5016127 0 1 0 104.00391 29.357422 L 110.30078 21.039062 L 110.30078 62.28125 A 2.5016127 2.5016127 0 1 0 115.29688 62.28125 L 115.29688 21.03125 L 121.60156 29.357422 A 2.5016127 2.5016127 0 1 0 125.58789 26.345703 L 115.02539 12.378906 A 2.5016127 2.5016127 0 0 0 112.77148 11.052734 z M 51.177734 75.623047 C 49.833734 75.623047 48.779297 76.727438 48.779297 78.023438 L 48.779297 90.263672 C 48.779297 91.607672 49.833734 92.710938 51.177734 92.710938 L 67.833984 92.710938 L 67.833984 108.21484 C 66.489984 108.21484 65.435547 109.31923 65.435547 110.61523 C 65.435547 111.95923 66.489984 113.06445 67.833984 113.06445 L 70.234375 113.06445 C 71.578375 113.06445 72.683594 111.95923 72.683594 110.61523 L 72.683594 78.023438 C 72.683594 76.727438 71.578375 75.623047 70.234375 75.623047 L 51.177734 75.623047 z M 85.882812 75.623047 C 84.538813 75.623047 83.482422 76.727438 83.482422 78.023438 L 83.482422 86.710938 L 93.130859 111.52734 C 93.514859 112.43934 94.379547 113.06445 95.435547 113.06445 C 96.443547 113.06445 97.307406 112.43934 97.691406 111.52734 L 107.38672 86.664062 L 107.38672 78.023438 C 107.38672 76.727438 106.28345 75.623047 104.93945 75.623047 C 103.59545 75.623047 102.53906 76.727438 102.53906 78.023438 L 102.53906 85.751953 L 95.435547 103.89648 L 88.330078 85.751953 L 88.330078 78.023438 C 88.330078 76.727438 87.226812 75.623047 85.882812 75.623047 z M 120.58594 75.623047 C 119.24194 75.623047 118.1875 76.727438 118.1875 78.023438 C 118.1875 79.367437 119.24194 80.470703 120.58594 80.470703 L 122.93945 80.470703 L 122.93945 108.21484 L 120.58594 108.21484 C 119.24194 108.21484 118.1875 109.31923 118.1875 110.61523 C 118.1875 111.95923 119.24194 113.06445 120.58594 113.06445 L 129.51367 113.06445 C 132.48967 113.06445 135.03497 111.28808 136.04297 109.08008 L 140.89062 99.287109 C 141.56262 97.895109 142.08984 96.26375 142.08984 94.34375 C 142.08984 92.42375 141.56262 90.792391 140.89062 89.400391 L 135.99414 79.65625 C 134.89014 77.49625 132.48967 75.623047 129.51367 75.623047 L 120.58594 75.623047 z M 165.41797 75.623047 C 162.44197 75.623047 159.89862 77.399422 158.89062 79.607422 L 154.04297 89.400391 C 153.37097 90.792391 152.89062 92.37575 152.89062 94.34375 C 152.89062 96.31175 153.37097 97.847109 154.04297 99.287109 C 155.57897 102.64711 157.25945 105.81525 158.93945 109.03125 C 160.04345 111.19125 162.44197 113.06445 165.41797 113.06445 L 174.3457 113.06445 C 175.6897 113.06445 176.79492 111.95923 176.79492 110.61523 C 176.79492 109.31923 175.6897 108.21484 174.3457 108.21484 L 165.41797 108.21484 C 164.45797 108.21484 163.64264 107.59109 163.30664 106.87109 L 158.36328 97.126953 C 157.97928 96.310953 157.73828 95.44775 157.73828 94.34375 C 157.73828 93.23975 157.97928 92.376547 158.36328 91.560547 L 163.30664 81.816406 C 163.64264 81.096406 164.45797 80.470703 165.41797 80.470703 L 174.3457 80.470703 C 175.6897 80.470703 176.79492 79.367437 176.79492 78.023438 C 176.79492 76.727438 175.6897 75.623047 174.3457 75.623047 L 165.41797 75.623047 z M 53.578125 80.470703 L 67.833984 80.470703 L 67.833984 87.863281 L 53.578125 87.863281 L 53.578125 80.470703 z M 127.78711 80.470703 L 129.51367 80.470703 C 130.47367 80.470703 131.29095 81.096406 131.62695 81.816406 L 136.57031 91.560547 C 136.95431 92.328547 137.24219 93.28775 137.24219 94.34375 C 137.24219 95.39975 136.90631 96.310953 136.57031 97.126953 L 131.62695 106.87109 C 131.29095 107.59109 130.47367 108.21484 129.51367 108.21484 L 127.78711 108.21484 L 127.78711 80.470703 z M 112.77344 127.19727 C 107.02396 127.19727 101.27738 129.38478 96.902344 133.75977 C 93.039912 137.62222 90.884209 142.55578 90.431641 147.61523 L 62.148438 147.61523 C 61.12188 136.26703 51.553218 127.33789 39.943359 127.33789 C 27.651445 127.33789 17.642578 137.3467 17.642578 149.63867 C 17.642578 161.93043 27.651446 171.93945 39.943359 171.93945 C 51.553218 171.93945 61.12188 163.00821 62.148438 151.66016 L 90.431641 151.66016 C 90.885675 156.71697 93.041829 161.64924 96.902344 165.50977 C 105.65241 174.25996 119.90227 174.25996 128.65234 165.50977 A 2.0162016 2.0162016 0 1 0 125.80273 162.66016 C 118.5935 169.86951 106.9612 169.86951 99.751953 162.66016 C 92.542606 155.45079 92.542606 143.82656 99.751953 136.61719 C 106.96119 129.40804 118.59341 129.40803 125.80273 136.61719 A 2.017743 2.017743 0 0 0 128.65234 133.75977 C 124.27727 129.38479 118.52292 127.19727 112.77344 127.19727 z M 185.6543 127.33789 C 174.04444 127.33789 164.47577 136.26704 163.44922 147.61523 L 122.05273 147.61523 C 121.11395 143.19247 117.16893 139.8418 112.47852 139.8418 C 107.09491 139.8418 102.68164 144.25502 102.68164 149.63867 C 102.68164 155.0223 107.09491 159.42578 112.47852 159.42578 C 117.16893 159.42578 121.11395 156.08147 122.05273 151.66016 L 163.44922 151.66016 C 164.47577 163.00821 174.04444 171.93945 185.6543 171.93945 C 197.94621 171.93945 207.95508 161.93043 207.95508 149.63867 C 207.95508 137.34669 197.94621 127.33789 185.6543 127.33789 z M 39.943359 131.38281 C 50.04799 131.38281 58.199219 139.53389 58.199219 149.63867 C 58.199219 159.74321 50.04799 167.88672 39.943359 167.88672 C 29.838647 167.88672 21.6875 159.74321 21.6875 149.63867 C 21.6875 139.53389 29.838649 131.38281 39.943359 131.38281 z M 185.6543 131.38281 C 195.75901 131.38281 203.91016 139.53389 203.91016 149.63867 C 203.91016 159.74321 195.75901 167.88672 185.6543 167.88672 C 175.54967 167.88672 167.40625 159.74321 167.40625 149.63867 C 167.40625 139.53389 175.54967 131.38281 185.6543 131.38281 z M 39.943359 137.49414 C 38.578035 137.49414 37.457031 138.61708 37.457031 139.93359 L 37.457031 147.14844 L 30.240234 147.14844 C 28.874987 147.14844 27.802734 148.27143 27.802734 149.63672 C 27.802734 151.00201 28.874987 152.07422 30.240234 152.07422 L 37.457031 152.07422 L 37.457031 159.29102 C 37.457031 160.65631 38.578035 161.77734 39.943359 161.77734 C 41.259965 161.77734 42.380859 160.65631 42.380859 159.29102 L 42.380859 152.07422 L 49.597656 152.07422 C 50.962909 152.07422 52.083984 151.00201 52.083984 149.63672 C 52.083984 148.27143 50.962909 147.14844 49.597656 147.14844 L 42.380859 147.14844 L 42.380859 139.93359 C 42.380859 138.61708 41.259878 137.49414 39.943359 137.49414 z M 175.95312 146.125 C 174.5878 146.125 173.51564 147.24604 173.51562 148.61133 L 173.51562 150.66016 C 173.51562 152.02545 174.5878 153.14648 175.95312 153.14648 L 195.31055 153.14648 C 196.67587 153.14648 197.79688 152.02545 197.79688 150.66016 L 197.79688 148.61133 C 197.79688 147.24604 196.67587 146.125 195.31055 146.125 L 175.95312 146.125 z M 40.224609 217.02148 L 40.224609 271.45312 C 40.224609 273.5438 41.866363 275.25977 43.957031 275.25977 C 46.047696 275.25977 47.765625 273.5438 47.765625 271.45312 L 47.765625 230.46094 L 67.402344 275.25977 L 77.408203 275.25977 L 77.408203 220.75391 C 77.408203 218.73791 75.690274 217.02148 73.599609 217.02148 C 71.508941 217.02148 69.867188 218.73791 69.867188 220.75391 L 69.867188 261.9707 L 50.154297 217.02148 L 40.224609 217.02148 z M 94.207031 217.02148 L 94.207031 271.45312 C 94.207031 273.5438 95.850742 275.25977 97.941406 275.25977 C 100.03207 275.25977 101.75 273.5438 101.75 271.45312 L 101.75 243.60156 L 120.19141 243.60156 C 122.28208 243.60156 123.92578 241.88364 123.92578 239.79297 C 123.92578 237.7023 122.28208 236.06055 120.19141 236.06055 L 101.75 236.06055 L 101.75 224.5625 L 127.58398 224.5625 C 129.67466 224.5625 131.39258 222.84458 131.39258 220.75391 C 131.39258 218.73791 129.67466 217.02148 127.58398 217.02148 L 94.207031 217.02148 z M 151.92578 217.02148 C 149.83512 217.02148 148.19141 218.73791 148.19141 220.75391 C 148.19141 221.50058 148.34196 222.09797 148.64062 222.69531 L 162.37891 246.14062 L 148.64062 269.58594 C 148.34197 270.18327 148.19141 270.78113 148.19141 271.45312 C 148.19141 273.5438 149.83512 275.25977 151.92578 275.25977 C 153.34445 275.25977 154.53894 274.51453 155.21094 273.39453 L 166.7832 253.68164 L 178.2832 273.39453 C 178.9552 274.51453 180.14969 275.25977 181.56836 275.25977 C 183.65902 275.25977 185.375 273.5438 185.375 271.45312 C 185.375 270.78113 185.15217 270.18327 184.85352 269.58594 L 171.11523 246.14062 L 184.85352 222.69531 C 185.15217 222.09797 185.375 221.50058 185.375 220.75391 C 185.375 218.73791 183.65902 217.02148 181.56836 217.02148 C 180.14969 217.02148 178.9552 217.76672 178.2832 218.88672 L 166.7832 238.59961 L 155.21094 218.88672 C 154.53894 217.76672 153.34445 217.02148 151.92578 217.02148 z M 47.765625 291.6875 C 43.658957 291.6875 40.224609 295.12185 40.224609 299.22852 L 40.224609 342.38672 C 40.224609 346.49339 43.658957 349.92773 47.765625 349.92773 L 69.867188 349.92773 C 73.899187 349.92773 77.408203 346.41872 77.408203 342.38672 L 77.408203 299.22852 C 77.408203 295.19652 73.899187 291.6875 69.867188 291.6875 L 47.765625 291.6875 z M 101.75 291.6875 C 97.643335 291.6875 94.207031 295.12185 94.207031 299.22852 L 94.207031 342.38672 C 94.207031 346.49339 97.643335 349.92773 101.75 349.92773 L 123.85156 349.92773 C 127.88356 349.92773 131.39258 346.41872 131.39258 342.38672 L 131.39258 299.22852 C 131.39258 295.19652 127.88356 291.6875 123.85156 291.6875 L 101.75 291.6875 z M 151.92578 291.6875 C 149.83512 291.6875 148.19141 293.40392 148.19141 295.41992 C 148.19141 297.51059 149.83512 299.22852 151.92578 299.22852 L 162.97656 299.22852 L 162.97656 342.38672 L 151.92578 342.38672 C 149.83512 342.38672 148.19141 344.10314 148.19141 346.11914 C 148.19141 348.2098 149.83512 349.92773 151.92578 349.92773 L 181.56836 349.92773 C 183.65902 349.92773 185.375 348.2098 185.375 346.11914 L 185.375 327.1543 C 185.375 325.06364 183.65902 323.3457 181.56836 323.3457 C 179.47769 323.3457 177.83398 325.06364 177.83398 327.1543 L 177.83398 342.38672 L 170.51758 342.38672 L 170.51758 291.6875 L 151.92578 291.6875 z M 47.765625 299.22852 L 69.867188 299.22852 L 69.867188 342.38672 L 47.765625 342.38672 L 47.765625 299.22852 z M 101.75 299.22852 L 123.85156 299.22852 L 123.85156 342.38672 L 101.75 342.38672 L 101.75 299.22852 z "
     transform="scale(0.26458334)" />
</svg>
