<?xml version="1.0" encoding="UTF-8" standalone="no"?>
<svg
   xmlns:dc="http://purl.org/dc/elements/1.1/"
   xmlns:cc="http://creativecommons.org/ns#"
   xmlns:rdf="http://www.w3.org/1999/02/22-rdf-syntax-ns#"
   xmlns:svg="http://www.w3.org/2000/svg"
   xmlns="http://www.w3.org/2000/svg"
   width="2.3499999in"
   height="4in"
   viewBox="0 0 59.689999 101.6"
   version="1.1"
   id="svg853">
  <defs
     id="defs847">
    <marker
       orient="auto"
       refY="0.0"
       refX="0.0"
       id="Arrow1Lstart"
       style="overflow:visible">
      <path
         id="path1297"
         d="M 0.0,0.0 L 5.0,-5.0 L -12.5,0.0 L 5.0,5.0 L 0.0,0.0 z "
         style="fill-rule:evenodd;stroke:#000000;stroke-width:1pt;stroke-opacity:1;fill:#000000;fill-opacity:1"
         transform="scale(0.8) translate(12.5,0)" />
    </marker>
  </defs>
  <metadata
     id="metadata850">
    <rdf:RDF>
      <cc:Work
         rdf:about="">
        <dc:format>image/svg+xml</dc:format>
        <dc:type
           rdf:resource="http://purl.org/dc/dcmitype/StillImage" />
        <dc:title></dc:title>
      </cc:Work>
    </rdf:RDF>
  </metadata>
  <path
     id="path841-5"
     style="color:#000000;font-style:normal;font-variant:normal;font-weight:normal;font-stretch:normal;font-size:medium;line-height:normal;font-family:sans-serif;font-variant-ligatures:normal;font-variant-position:normal;font-variant-caps:normal;font-variant-numeric:normal;font-variant-alternates:normal;font-feature-settings:normal;text-indent:0;text-align:start;text-decoration:none;text-decoration-line:none;text-decoration-style:solid;text-decoration-color:#000000;letter-spacing:normal;word-spacing:normal;text-transform:none;writing-mode:lr-tb;direction:ltr;text-orientation:mixed;dominant-baseline:auto;baseline-shift:baseline;text-anchor:start;white-space:normal;shape-padding:0;clip-rule:nonzero;display:inline;overflow:visible;visibility:visible;opacity:1;isolation:auto;mix-blend-mode:normal;color-interpolation:sRGB;color-interpolation-filters:linearRGB;solid-color:#000000;solid-opacity:1;vector-effect:none;fill:#000000;fill-opacity:1;fill-rule:evenodd;stroke:none;stroke-width:4.512;stroke-linecap:round;stroke-linejoin:round;stroke-miterlimit:4;stroke-dasharray:none;stroke-dashoffset:0;stroke-opacity:1;color-rendering:auto;image-rendering:auto;shape-rendering:auto;text-rendering:auto;enable-background:accumulate"
     d="M 86.332031 108.14453 A 2.2562255 2.2562255 0 0 0 85.394531 108.38086 L 37.388672 132.37891 A 2.2562255 2.2562255 0 0 0 38.400391 136.6543 L 86.398438 136.6543 A 2.2562255 2.2562255 0 0 0 88.65625 134.40234 L 88.65625 110.4043 A 2.2562255 2.2562255 0 0 0 86.332031 108.14453 z M 139.07422 108.14453 A 2.2562255 2.2562255 0 1 0 139.20117 112.6543 L 150.61328 112.6543 L 160.0625 122.39844 L 150.61328 132.14258 L 139.20117 132.14258 A 2.2562255 2.2562255 0 1 0 139.20117 136.6543 L 151.56445 136.6543 A 2.2562255 2.2562255 0 0 0 153.18164 135.9668 L 163.19922 125.64062 L 173.2168 135.9668 A 2.2562255 2.2562255 0 0 0 174.83203 136.6543 L 187.19727 136.6543 A 2.2562255 2.2562255 0 1 0 187.19727 132.14258 L 175.79297 132.14258 L 166.34375 122.39844 L 175.79297 112.6543 L 187.19727 112.6543 A 2.2562255 2.2562255 0 1 0 187.19727 108.14453 L 174.83203 108.14453 A 2.2562255 2.2562255 0 0 0 173.2168 108.83203 L 163.19922 119.1582 L 153.18164 108.83203 A 2.2562255 2.2562255 0 0 0 151.56445 108.14453 L 139.20117 108.14453 A 2.2562255 2.2562255 0 0 0 139.07422 108.14453 z M 84.146484 114.05078 L 84.146484 132.14258 L 47.960938 132.14258 L 84.146484 114.05078 z M 112.80273 153.56641 A 4.5124505 4.5124505 0 0 0 109.23633 155.31445 L 43.154297 240.57617 L -19.15625 240.57617 A 4.5124505 4.5124505 0 1 0 -19.15625 249.5957 L 10.519531 249.5957 L 10.519531 249.63281 L 45.339844 249.63281 A 4.5124505 4.5124505 0 0 0 45.896484 249.5957 L 113.28906 249.5957 A 4.5124505 4.5124505 0 0 0 116.84766 247.86133 L 183.31445 162.62305 L 255.82617 162.62305 A 4.5124505 4.5124505 0 1 0 255.82617 153.60156 L 215.07812 153.60156 L 215.07812 153.56641 L 112.80273 153.56641 z M 115.00977 162.58594 L 171.89648 162.58594 L 111.08203 240.57617 L 54.572266 240.57617 L 115.00977 162.58594 z "
     transform="scale(0.26458334)" />
</svg>
