<?xml version="1.0" encoding="UTF-8" standalone="no"?>
<svg
   width="2.3499999in"
   height="4in"
   viewBox="0 0 59.689999 101.6"
   version="1.1"
   id="svg853"
   xmlns="http://www.w3.org/2000/svg"
   xmlns:svg="http://www.w3.org/2000/svg"
   xmlns:rdf="http://www.w3.org/1999/02/22-rdf-syntax-ns#"
   xmlns:cc="http://creativecommons.org/ns#"
   xmlns:dc="http://purl.org/dc/elements/1.1/">
  <defs
     id="defs847" />
  <metadata
     id="metadata850">
    <rdf:RDF>
      <cc:Work
         rdf:about="">
        <dc:format>image/svg+xml</dc:format>
        <dc:type
           rdf:resource="http://purl.org/dc/dcmitype/StillImage" />
      </cc:Work>
    </rdf:RDF>
  </metadata>
  <path
     id="path841"
     style="color:#000000;fill:#000000;fill-rule:evenodd;stroke-linecap:round;stroke-linejoin:round;-inkscape-stroke:none"
     d="M 22.853902 26.613363 A 0.59695968 0.59695968 0 0 0 22.59397 26.675891 L 9.8924196 33.025375 A 0.59695968 0.59695968 0 0 0 10.160103 34.156055 L 22.859587 34.156055 A 0.59695968 0.59695968 0 0 0 23.456966 33.560743 L 23.456966 27.210743 A 0.59695968 0.59695968 0 0 0 22.853902 26.613363 z M 36.83031 26.613363 A 0.59689999 0.59689999 0 0 0 36.232414 27.211259 A 0.59689999 0.59689999 0 0 0 36.83031 27.806572 L 39.849764 27.806572 L 42.349354 30.384709 L 39.849764 32.962846 L 36.83031 32.962846 A 0.59689999 0.59689999 0 0 0 36.232414 33.560743 A 0.59689999 0.59689999 0 0 0 36.83031 34.156572 L 40.101429 34.156572 A 0.59695968 0.59695968 0 0 0 40.52931 33.974671 L 43.179794 31.242538 L 45.830278 33.974671 A 0.59695968 0.59695968 0 0 0 46.257642 34.156572 L 49.529277 34.156572 A 0.59689999 0.59689999 0 0 0 50.127173 33.560743 A 0.59689999 0.59689999 0 0 0 49.529277 32.962846 L 46.51189 32.962846 L 44.011784 30.384709 L 46.51189 27.806572 L 49.529277 27.806572 A 0.59689999 0.59689999 0 0 0 50.127173 27.211259 A 0.59689999 0.59689999 0 0 0 49.529277 26.613363 L 46.257642 26.613363 A 0.59695968 0.59695968 0 0 0 45.830278 26.795264 L 43.179794 29.527397 L 40.52931 26.795264 A 0.59695968 0.59695968 0 0 0 40.101429 26.613363 L 36.83031 26.613363 z M 22.263758 28.175542 L 22.263758 32.962846 L 12.689665 32.962846 L 22.263758 28.175542 z M 10.160103 56.835808 A 0.59689999 0.59689999 0 0 0 9.5627239 57.433704 A 0.59689999 0.59689999 0 0 0 10.160103 58.029534 L 18.179769 58.029534 L 13.17749 63.185291 L 10.160103 63.185291 A 0.59689999 0.59689999 0 0 0 9.5627239 63.783188 A 0.59689999 0.59689999 0 0 0 10.160103 64.379017 L 13.431738 64.379017 A 0.59695968 0.59695968 0 0 0 13.859619 64.197116 L 19.841683 58.029534 L 22.859587 58.029534 A 0.59689999 0.59689999 0 0 0 23.456966 57.433704 A 0.59689999 0.59689999 0 0 0 23.281267 57.009958 A 0.59689999 0.59689999 0 0 0 23.087997 56.880766 A 0.59689999 0.59689999 0 0 0 22.859587 56.835808 L 19.587952 56.835808 L 10.160103 56.835808 z M 46.257642 56.835808 A 0.59695968 0.59695968 0 0 0 45.830278 57.017709 L 39.849764 63.185291 L 36.83031 63.185291 A 0.59689999 0.59689999 0 0 0 36.232414 63.783188 A 0.59689999 0.59689999 0 0 0 36.83031 64.379017 L 40.101429 64.379017 A 0.59695968 0.59695968 0 0 0 40.52931 64.197116 L 46.51189 58.029534 L 49.529277 58.029534 A 0.59689999 0.59689999 0 0 0 50.127173 57.433704 A 0.59689999 0.59689999 0 0 0 49.529277 56.835808 L 46.257642 56.835808 z " />
</svg>
