<?xml version="1.0" encoding="UTF-8" standalone="no"?>
<svg
   xmlns:dc="http://purl.org/dc/elements/1.1/"
   xmlns:cc="http://creativecommons.org/ns#"
   xmlns:rdf="http://www.w3.org/1999/02/22-rdf-syntax-ns#"
   xmlns:svg="http://www.w3.org/2000/svg"
   xmlns="http://www.w3.org/2000/svg"
   width="2.3499999in"
   height="4in"
   viewBox="0 0 59.689999 101.6"
   version="1.1"
   id="svg853">
  <defs
     id="defs847">
    <marker
       orient="auto"
       refY="0.0"
       refX="0.0"
       id="Arrow1Lstart"
       style="overflow:visible">
      <path
         id="path1297"
         d="M 0.0,0.0 L 5.0,-5.0 L -12.5,0.0 L 5.0,5.0 L 0.0,0.0 z "
         style="fill-rule:evenodd;stroke:#000000;stroke-width:1pt;stroke-opacity:1;fill:#000000;fill-opacity:1"
         transform="scale(0.8) translate(12.5,0)" />
    </marker>
  </defs>
  <metadata
     id="metadata850">
    <rdf:RDF>
      <cc:Work
         rdf:about="">
        <dc:format>image/svg+xml</dc:format>
        <dc:type
           rdf:resource="http://purl.org/dc/dcmitype/StillImage" />
        <dc:title></dc:title>
      </cc:Work>
    </rdf:RDF>
  </metadata>
  <path
     style="color:#000000;font-style:normal;font-variant:normal;font-weight:normal;font-stretch:normal;font-size:medium;line-height:normal;font-family:sans-serif;font-variant-ligatures:normal;font-variant-position:normal;font-variant-caps:normal;font-variant-numeric:normal;font-variant-alternates:normal;font-feature-settings:normal;text-indent:0;text-align:start;text-decoration:none;text-decoration-line:none;text-decoration-style:solid;text-decoration-color:#000000;letter-spacing:normal;word-spacing:normal;text-transform:none;writing-mode:lr-tb;direction:ltr;text-orientation:mixed;dominant-baseline:auto;baseline-shift:baseline;text-anchor:start;white-space:normal;shape-padding:0;clip-rule:nonzero;display:inline;overflow:visible;visibility:visible;opacity:1;isolation:auto;mix-blend-mode:normal;color-interpolation:sRGB;color-interpolation-filters:linearRGB;solid-color:#000000;solid-opacity:1;vector-effect:none;fill:#000000;fill-opacity:1;fill-rule:evenodd;stroke:none;stroke-width:1.1938;stroke-linecap:round;stroke-linejoin:round;stroke-miterlimit:4;stroke-dasharray:none;stroke-dashoffset:0;stroke-opacity:1;color-rendering:auto;image-rendering:auto;shape-rendering:auto;text-rendering:auto;enable-background:accumulate"
     d="M 12.48606,1.2631174e-6 22.71541,15.199073 27.309445,13.29583 24.663611,1.2631174e-6 Z m 22.484933,0 L 32.282268,13.295314 36.876303,15.19804 47.162496,1.2631174e-6 Z M 59.679044,6.0425267 40.392885,18.713588 l 1.903243,4.594035 17.39377,-3.308326 V 6.3500014 A 6.3499998,6.3499998 0 0 0 59.67905,6.0425267 Z M 0.01395264,6.0647475 A 6.3499998,6.3499998 0 0 0 0,6.3500014 V 20.011183 l 17.297136,3.298506 1.902726,-4.594551 z M 42.296128,28.280446 l -1.902211,4.594035 19.295981,13.0576 V 31.879708 Z M 17.297652,28.282034 0,31.87661 V 45.925363 L 19.200895,32.876031 Z m 5.544365,29.553715 a 0.59695962,0.59695962 0 0 0 -0.248047,0.06253 l -12.7015504,6.35 a 0.59695962,0.59695962 0 0 0 0.2676844,1.130681 h 12.699483 a 0.59695962,0.59695962 0 0 0 0.597379,-0.595828 v -6.349484 a 0.59695962,0.59695962 0 0 0 -0.614949,-0.597895 z m 23.415625,0 a 0.59695962,0.59695962 0 0 0 -0.427363,0.181901 l -5.980515,6.168099 H 36.83031 a 0.59695962,0.59695962 0 1 0 0,1.193207 h 3.271118 a 0.59695962,0.59695962 0 0 0 0.427881,-0.181901 l 5.982582,-6.16758 h 3.017387 a 0.59695962,0.59695962 0 1 0 0,-1.193726 z m -23.993885,1.562695 v 4.787305 h -9.574092 z"
     id="path841-9" />
</svg>
