<?xml version="1.0" encoding="UTF-8" standalone="no"?>
<svg
   xmlns:dc="http://purl.org/dc/elements/1.1/"
   xmlns:cc="http://creativecommons.org/ns#"
   xmlns:rdf="http://www.w3.org/1999/02/22-rdf-syntax-ns#"
   xmlns:svg="http://www.w3.org/2000/svg"
   xmlns="http://www.w3.org/2000/svg"
   width="2.3499999in"
   height="4in"
   viewBox="0 0 59.689999 101.6"
   version="1.1"
   id="svg853">
  <defs
     id="defs847">
    <marker
       orient="auto"
       refY="0.0"
       refX="0.0"
       id="Arrow1Lstart"
       style="overflow:visible">
      <path
         id="path1297"
         d="M 0.0,0.0 L 5.0,-5.0 L -12.5,0.0 L 5.0,5.0 L 0.0,0.0 z "
         style="fill-rule:evenodd;stroke:#000000;stroke-width:1pt;stroke-opacity:1;fill:#000000;fill-opacity:1"
         transform="scale(0.8) translate(12.5,0)" />
    </marker>
  </defs>
  <metadata
     id="metadata850">
    <rdf:RDF>
      <cc:Work
         rdf:about="">
        <dc:format>image/svg+xml</dc:format>
        <dc:type
           rdf:resource="http://purl.org/dc/dcmitype/StillImage" />
        <dc:title></dc:title>
      </cc:Work>
    </rdf:RDF>
  </metadata>
  <path
     style="display:inline;fill:none;stroke:#000000;stroke-width:0.254;stroke-miterlimit:4;stroke-dasharray:none"
     d="m 36.194999,85.089991 a 6.3499998,6.3499998 0 0 0 -6.35,-6.350002 6.3499998,6.3499998 0 0 0 -6.35,6.350002 6.3499998,6.3499998 0 0 0 6.35,6.35 6.3499998,6.3499998 0 0 0 6.35,-6.35 z"
     id="circle2" />
  <path
     style="display:inline;fill:none;stroke:#000000;stroke-width:0.254;stroke-miterlimit:4;stroke-dasharray:none"
     d="m 20.066,45.720001 a 3.5559998,3.5559998 0 0 0 -3.556,-3.555999 3.5559998,3.5559998 0 0 0 -3.556,3.555999 3.5559998,3.5559998 0 0 0 3.556,3.556 3.5559998,3.5559998 0 0 0 3.556,-3.556 z"
     id="circle4" />
  <path
     style="display:inline;fill:none;stroke:#000000;stroke-width:0.254;stroke-miterlimit:4;stroke-dasharray:none"
     d="m 46.736,45.720001 a 3.5559998,3.5559998 0 0 0 -3.556,-3.555999 3.5559998,3.5559998 0 0 0 -3.556,3.555999 3.5559998,3.5559998 0 0 0 3.556,3.556 3.5559998,3.5559998 0 0 0 3.556,-3.556 z"
     id="circle6" />
  <path
     style="display:inline;fill:none;stroke:#000000;stroke-width:0.254;stroke-miterlimit:4;stroke-dasharray:none"
     d="m 32.384999,73.024988 a 2.54,2.54 0 0 0 -2.54,-2.54 2.54,2.54 0 0 0 -2.54,2.54 2.54,2.54 0 0 0 2.54,2.54 2.54,2.54 0 0 0 2.54,-2.54 z"
     id="circle8" />
  <path
     style="display:inline;opacity:1;vector-effect:none;fill:none;fill-opacity:1;stroke:#000000;stroke-width:0.254;stroke-linecap:butt;stroke-linejoin:miter;stroke-miterlimit:4;stroke-dasharray:none;stroke-dashoffset:0;stroke-opacity:1"
     d="m 40.004998,26.034999 a 10.159998,10.159998 0 0 0 -10.16,-10.159998 10.159998,10.159998 0 0 0 -10.159999,10.159998 10.159998,10.159998 0 0 0 10.159999,10.160002 10.159998,10.159998 0 0 0 10.16,-10.160002 z"
     id="circle6-3" />
</svg>
