<?xml version="1.0" encoding="UTF-8" standalone="no"?>
<svg
   xmlns:dc="http://purl.org/dc/elements/1.1/"
   xmlns:cc="http://creativecommons.org/ns#"
   xmlns:rdf="http://www.w3.org/1999/02/22-rdf-syntax-ns#"
   xmlns:svg="http://www.w3.org/2000/svg"
   xmlns="http://www.w3.org/2000/svg"
   width="2.3499999in"
   height="4in"
   viewBox="0 0 59.689999 101.6"
   version="1.1"
   id="svg853">
  <defs
     id="defs847">
    <marker
       orient="auto"
       refY="0.0"
       refX="0.0"
       id="Arrow1Lstart"
       style="overflow:visible">
      <path
         id="path1297"
         d="M 0.0,0.0 L 5.0,-5.0 L -12.5,0.0 L 5.0,5.0 L 0.0,0.0 z "
         style="fill-rule:evenodd;stroke:#000000;stroke-width:1pt;stroke-opacity:1;fill:#000000;fill-opacity:1"
         transform="scale(0.8) translate(12.5,0)" />
    </marker>
  </defs>
  <metadata
     id="metadata850">
    <rdf:RDF>
      <cc:Work
         rdf:about="">
        <dc:format>image/svg+xml</dc:format>
        <dc:type
           rdf:resource="http://purl.org/dc/dcmitype/StillImage" />
        <dc:title></dc:title>
      </cc:Work>
    </rdf:RDF>
  </metadata>
  <path
     style="color:#000000;font-style:normal;font-variant:normal;font-weight:normal;font-stretch:normal;font-size:medium;line-height:normal;font-family:sans-serif;font-variant-ligatures:normal;font-variant-position:normal;font-variant-caps:normal;font-variant-numeric:normal;font-variant-alternates:normal;font-feature-settings:normal;text-indent:0;text-align:start;text-decoration:none;text-decoration-line:none;text-decoration-style:solid;text-decoration-color:#000000;letter-spacing:normal;word-spacing:normal;text-transform:none;writing-mode:lr-tb;direction:ltr;text-orientation:mixed;dominant-baseline:auto;baseline-shift:baseline;text-anchor:start;white-space:normal;shape-padding:0;clip-rule:nonzero;display:inline;overflow:visible;visibility:visible;opacity:1;isolation:auto;mix-blend-mode:normal;color-interpolation:sRGB;color-interpolation-filters:linearRGB;solid-color:#000000;solid-opacity:1;vector-effect:none;fill:#000000;fill-opacity:1;fill-rule:evenodd;stroke:none;stroke-width:1.1938;stroke-linecap:round;stroke-linejoin:round;stroke-miterlimit:4;stroke-dasharray:none;stroke-dashoffset:0;stroke-opacity:1;color-rendering:auto;image-rendering:auto;shape-rendering:auto;text-rendering:auto;enable-background:accumulate"
     d="m 22.842017,28.61324 a 0.59695962,0.59695962 0 0 0 -0.248047,0.06253 L 9.8924196,35.025253 a 0.59695962,0.59695962 0 0 0 0.2676844,1.131197 h 12.699483 a 0.59695962,0.59695962 0 0 0 0.597379,-0.595831 V 29.211137 A 0.59695962,0.59695962 0 0 0 22.842017,28.61324 Z m 13.988293,0 a 0.59695962,0.59695962 0 1 0 0,1.19321 h 8.019151 l -4.999697,5.156274 H 36.83031 a 0.59695962,0.59695962 0 1 0 0,1.193726 h 3.271118 a 0.59695962,0.59695962 0 0 0 0.427881,-0.181901 l 5.982582,-6.168099 h 3.017387 a 0.59695962,0.59695962 0 0 0 0.06046,-0.0021 0.59695962,0.59695962 0 0 0 0.05891,-0.0078 0.59695962,0.59695962 0 0 0 0.05839,-0.01344 0.59695962,0.59695962 0 0 0 0.05684,-0.01963 0.59695962,0.59695962 0 0 0 0.105421,-0.05633 0.59695962,0.59695962 0 0 0 0.04651,-0.03514 0.59695962,0.59695962 0 0 0 0.150379,-0.183968 0.59695962,0.59695962 0 0 0 0.04496,-0.111103 0.59695962,0.59695962 0 0 0 0.02379,-0.1757 0.59695962,0.59695962 0 0 0 -0.01394,-0.119372 0.59695962,0.59695962 0 0 0 -0.0956,-0.216524 0.59695962,0.59695962 0 0 0 -0.07803,-0.08992 0.59695962,0.59695962 0 0 0 -0.04496,-0.03927 0.59695962,0.59695962 0 0 0 -0.212907,-0.103354 0.59695962,0.59695962 0 0 0 -0.05839,-0.01188 0.59695962,0.59695962 0 0 0 -0.05891,-0.0078 0.59695962,0.59695962 0 0 0 -0.04289,0 h -3.271645 z m -14.566553,1.562695 v 4.786789 H 12.689665 Z M 4.4452067,40.043034 c -0.708482,0 -1.3339019,0.27695 -1.7694011,0.728639 -0.4354987,0.451686 -0.6983094,1.039373 -0.8810831,1.691367 -0.3655476,1.303991 -0.4212052,2.914552 -0.4862752,4.502052 -0.06507,1.5875 -0.1393293,3.152974 -0.44131674,4.230233 -0.1509938,0.538631 -0.35755475,0.942612 -0.59169518,1.185457 C 0.18810647,52.471357 0.09937056,52.544663 0,52.600924 v 1.255736 c 0.44451953,-0.111919 0.8352453,-0.336799 1.1348145,-0.647504 0.4354988,-0.451686 0.6977927,-1.039373 0.8805664,-1.69137 0.3655474,-1.303991 0.421722,-2.916619 0.486792,-4.504119 0.06507,-1.5875 0.139329,-3.151423 0.4413167,-4.228682 0.1509938,-0.538628 0.3575548,-0.942612 0.5916951,-1.185458 0.2341407,-0.242842 0.478644,-0.363283 0.910022,-0.363283 0.431378,0 0.6758816,0.120441 0.9100219,0.363283 0.2341404,0.242846 0.4412184,0.64683 0.5922122,1.185458 0.3019874,1.077259 0.3762465,2.641182 0.4413165,4.228682 0.06507,1.5875 0.1207275,3.200128 0.4862753,4.504119 0.1827739,0.651997 0.445584,1.239684 0.8810832,1.69137 0.4354991,0.451689 1.0609191,0.72812 1.769401,0.72812 0.7084822,0 1.3339022,-0.276431 1.7694012,-0.72812 0.435499,-0.451686 0.69831,-1.039373 0.881083,-1.69137 0.365548,-1.303991 0.421205,-2.916619 0.486275,-4.504119 0.06507,-1.5875 0.139329,-3.151423 0.441317,-4.228682 0.150993,-0.538628 0.357555,-0.942612 0.591695,-1.185458 0.234141,-0.242842 0.478644,-0.363283 0.910022,-0.363283 0.431378,0 0.676399,0.120441 0.910539,0.363283 0.23414,0.242846 0.438634,0.64683 0.589628,1.185458 0.301987,1.077259 0.378314,2.641182 0.443384,4.228682 0.06507,1.5875 0.118661,3.200128 0.484208,4.504119 0.127633,0.455295 0.296128,0.877742 0.533301,1.24592 -0.138448,-0.01281 -0.278239,-0.0217 -0.42168,-0.0217 -1.707745,0 -3.058965,0.932117 -4.12533,2.197283 -1.066364,1.265167 -1.912625,2.883546 -2.751769,4.471046 -0.8391458,1.5875 -1.6705024,3.145671 -2.6112107,4.261755 -0.9407083,1.116084 -1.9254997,1.771468 -3.2111736,1.771468 -1.2856734,0 -2.2720156,-0.655384 -3.2127238,-1.771468 C 0.80212603,63.161496 0.39544834,62.555698 0,61.899582 v 2.137338 c 0.10506763,0.136851 0.21095939,0.272722 0.32039388,0.402559 1.06636452,1.265166 2.41706732,2.197282 4.12481282,2.197282 1.7077457,0 3.0589649,-0.932116 4.1253297,-2.197282 1.0663647,-1.265166 1.9126236,-2.883027 2.7517706,-4.470527 0.839144,-1.5875 1.670502,-3.144124 2.61121,-4.260207 0.940708,-1.116083 1.9255,-1.771469 3.211173,-1.771469 1.285673,0 2.272016,0.655386 3.212724,1.771469 0.940708,1.116083 1.769997,2.672707 2.609143,4.260207 0.839145,1.5875 1.687989,3.205361 2.754354,4.470527 1.066366,1.265166 2.417069,2.197282 4.124812,2.197282 1.707748,0 3.056898,-0.932116 4.123264,-2.197282 1.066363,-1.265166 1.914691,-2.883027 2.753836,-4.470527 0.839147,-1.5875 1.670502,-3.144124 2.61121,-4.260207 0.940708,-1.116083 1.924984,-1.771469 3.210658,-1.771469 1.285674,0 2.270466,0.655386 3.211174,1.771469 0.940707,1.116083 1.772063,2.672707 2.61121,4.260207 0.839144,1.5875 1.68747,3.205361 2.753836,4.470527 1.066364,1.265166 2.415514,2.197282 4.123264,2.197282 1.707743,0 3.058446,-0.932116 4.124812,-2.197282 0.109675,-0.130122 0.215622,-0.266428 0.320911,-0.403593 V 61.89855 c -0.395637,0.6565 -0.802426,1.26269 -1.233001,1.773534 -0.940708,1.116084 -1.927051,1.771467 -3.212722,1.771467 -1.285679,0 -2.270466,-0.655383 -3.211174,-1.771467 -0.94071,-1.116084 -1.772065,-2.674255 -2.61121,-4.261755 -0.839147,-1.5875 -1.685403,-3.20588 -2.751772,-4.471047 C 45.603655,53.674116 44.252436,52.742 42.544691,52.742 c -0.143441,0 -0.283231,0.0089 -0.42168,0.02169 0.237173,-0.368178 0.405667,-0.790625 0.5333,-1.24592 0.365548,-1.303991 0.419139,-2.916618 0.484208,-4.504118 0.06507,-1.5875 0.141396,-3.151423 0.443384,-4.228682 0.150995,-0.538629 0.356005,-0.942613 0.590145,-1.185458 0.23414,-0.242843 0.480711,-0.363284 0.91209,-0.363284 0.431377,0 0.675881,0.120441 0.910021,0.363284 0.234141,0.242845 0.438635,0.646829 0.58963,1.185458 0.301984,1.077259 0.378311,2.641182 0.443383,4.228682 0.06507,1.5875 0.119176,3.200127 0.484725,4.504118 0.182774,0.651997 0.445066,1.239684 0.880565,1.69137 0.435499,0.451689 1.060921,0.72812 1.769401,0.72812 0.708483,0 1.335971,-0.276431 1.77147,-0.72812 0.435499,-0.451686 0.698307,-1.039373 0.881081,-1.69137 0.365548,-1.303991 0.41914,-2.916618 0.484209,-4.504118 0.06507,-1.5875 0.141396,-3.151423 0.443383,-4.228682 0.150995,-0.538629 0.356005,-0.942613 0.590145,-1.185458 0.234141,-0.242843 0.478642,-0.363284 0.910024,-0.363284 0.431377,0 0.677947,0.120441 0.912088,0.363284 0.23414,0.242845 0.438634,0.646829 0.589629,1.185458 0.301985,1.077259 0.378312,2.641182 0.443383,4.228682 0.06507,1.5875 0.119177,3.200127 0.484725,4.504118 0.182774,0.651997 0.445066,1.239684 0.880565,1.69137 0.299707,0.310849 0.69056,0.536157 1.135333,0.648023 v -1.255739 c -0.09962,-0.05631 -0.188442,-0.129894 -0.275953,-0.220657 -0.23414,-0.242845 -0.438632,-0.646827 -0.589629,-1.185458 -0.301988,-1.077259 -0.378312,-2.642732 -0.443384,-4.230232 -0.06507,-1.5875 -0.11866,-3.198061 -0.484206,-4.502052 -0.182774,-0.651995 -0.445585,-1.239682 -0.881083,-1.691368 -0.435499,-0.451689 -1.062988,-0.728639 -1.771468,-0.728639 -0.708485,0 -1.333902,0.27695 -1.769401,0.728639 -0.435504,0.451686 -0.698309,1.039373 -0.881084,1.691368 -0.365548,1.303991 -0.419139,2.914552 -0.484208,4.502052 -0.06507,1.5875 -0.141396,3.152973 -0.443384,4.230232 -0.150995,0.538631 -0.356005,0.942613 -0.590145,1.185458 -0.23414,0.242842 -0.480711,0.361217 -0.91209,0.361217 -0.431377,0 -0.675881,-0.118375 -0.910021,-0.361217 -0.234141,-0.242845 -0.438634,-0.646827 -0.58963,-1.185458 -0.301984,-1.077259 -0.378311,-2.642732 -0.443383,-4.230232 -0.06507,-1.5875 -0.119176,-3.198061 -0.484725,-4.502052 -0.182774,-0.651995 -0.445066,-1.239682 -0.880565,-1.691368 -0.435499,-0.451689 -1.060921,-0.728639 -1.769401,-0.728639 -0.708482,0 -1.335971,0.27695 -1.77147,0.728639 -0.435499,0.451686 -0.698309,1.039373 -0.881081,1.691368 -0.365548,1.303991 -0.41914,2.914552 -0.484209,4.502052 -0.06507,1.5875 -0.141396,3.152973 -0.443383,4.230232 -0.150995,0.538631 -0.356005,0.942613 -0.590145,1.185458 -0.234141,0.242842 -0.478642,0.361217 -0.910024,0.361217 -0.431377,0 -0.677947,-0.118375 -0.912088,-0.361217 -0.23414,-0.242845 -0.438634,-0.646827 -0.589629,-1.185458 -0.301985,-1.077259 -0.378312,-2.642732 -0.443383,-4.230232 -0.06507,-1.5875 -0.119177,-3.198061 -0.484725,-4.502052 -0.182774,-0.651995 -0.445066,-1.239682 -0.880565,-1.691368 -0.435499,-0.451689 -1.060921,-0.728639 -1.769401,-0.728639 -0.708483,0 -1.336487,0.27695 -1.771986,0.728639 -0.435499,0.451686 -0.697794,1.039373 -0.880565,1.691368 -0.365549,1.303991 -0.419137,2.914552 -0.484209,4.502052 -0.06507,1.5875 -0.141396,3.152973 -0.443383,4.230232 -0.150995,0.538631 -0.356005,0.942613 -0.590146,1.185458 -0.23414,0.242842 -0.478644,0.361217 -0.910023,0.361217 -0.431377,0 -0.677948,-0.118375 -0.912088,-0.361217 -0.23414,-0.242845 -0.438634,-0.646827 -0.589629,-1.185458 -0.301988,-1.077259 -0.376762,-2.642732 -0.441833,-4.230232 -0.06507,-1.5875 -0.120727,-3.198061 -0.486275,-4.502052 -0.182774,-0.651995 -0.445066,-1.239682 -0.880565,-1.691368 -0.435501,-0.451689 -1.061437,-0.728639 -1.769919,-0.728639 -0.708482,0 -1.33597,0.27695 -1.771468,0.728639 -0.435499,0.451686 -0.697793,1.039373 -0.880567,1.691368 -0.365547,1.303991 -0.419655,2.914552 -0.484725,4.502052 -0.06507,1.5875 -0.14088,3.152973 -0.442867,4.230232 -0.150994,0.538631 -0.356005,0.942613 -0.590145,1.185458 -0.23414,0.242842 -0.478644,0.361217 -0.910022,0.361217 -0.431378,0 -0.677949,-0.118375 -0.912089,-0.361217 C 18.53939,52.137927 18.33438,51.733945 18.183386,51.195314 17.881398,50.118055 17.80714,48.552582 17.74207,46.965082 17.677,45.377582 17.621343,43.767021 17.255794,42.46303 17.073021,41.811035 16.810727,41.223348 16.375228,40.771662 15.939729,40.319973 15.313792,40.043023 14.60531,40.043023 c -0.708482,0 -1.333903,0.27695 -1.769401,0.728639 -0.435499,0.451686 -0.698309,1.039373 -0.881083,1.691368 -0.365547,1.303991 -0.421205,2.914552 -0.486275,4.502052 -0.06507,1.5875 -0.141397,3.152973 -0.443384,4.230232 -0.150994,0.538631 -0.355488,0.942613 -0.589628,1.185458 -0.234141,0.242842 -0.4786439,0.361217 -0.9100222,0.361217 -0.4313782,0 -0.676398,-0.118375 -0.9105386,-0.361217 C 8.3808375,52.137927 8.1742768,51.733945 8.023283,51.195314 7.7212953,50.118055 7.6470365,48.552582 7.5819662,46.965082 7.5168962,45.377582 7.4612384,43.767021 7.0956909,42.46303 6.9129175,41.811035 6.6501066,41.223348 6.2146078,40.771662 5.7791091,40.319973 5.1536884,40.043023 4.4452067,40.043023 Z m 20.3202073,1.19321 c 0.431378,0 0.676398,0.120441 0.910539,0.363283 0.23414,0.242846 0.438633,0.64683 0.589627,1.185458 0.301987,1.077259 0.378314,2.641182 0.443386,4.228682 0.06507,1.5875 0.11866,3.200128 0.484206,4.504119 0.182774,0.651997 0.445584,1.239684 0.881083,1.69137 0.435499,0.451689 1.062988,0.72812 1.771468,0.72812 0.708482,0 1.333902,-0.276431 1.769401,-0.72812 0.435499,-0.451686 0.698309,-1.039373 0.881083,-1.69137 0.365549,-1.303991 0.41914,-2.916619 0.484209,-4.504119 0.06507,-1.5875 0.141396,-3.151423 0.443384,-4.228682 0.150995,-0.538628 0.355488,-0.942612 0.589629,-1.185458 0.23414,-0.242842 0.481227,-0.363283 0.912606,-0.363283 0.431377,0 0.675881,0.120441 0.910021,0.363283 0.23414,0.242846 0.438632,0.64683 0.589629,1.185458 0.301988,1.077259 0.378312,2.641182 0.443384,4.228682 0.06507,1.5875 0.11866,3.200128 0.484206,4.504119 0.182774,0.651997 0.445585,1.239684 0.881084,1.69137 0.325236,0.337325 0.757925,0.576638 1.251087,0.676444 -0.383347,0.308409 -0.73801,0.665057 -1.06557,1.053682 -1.066363,1.265167 -1.912622,2.883547 -2.751769,4.471047 -0.839145,1.5875 -1.670503,3.145671 -2.61121,4.261755 -0.940708,1.116084 -1.9255,1.771467 -3.211174,1.771467 -1.285672,0 -2.272014,-0.655383 -3.212722,-1.771467 -0.94071,-1.116084 -1.770516,-2.674255 -2.609661,-4.261755 -0.839146,-1.5875 -1.687472,-3.20588 -2.753837,-4.471047 -0.327397,-0.388432 -0.681921,-0.74486 -1.065051,-1.053166 0.493276,-0.09961 0.924982,-0.33927 1.250569,-0.67696 0.435499,-0.451686 0.69831,-1.039373 0.881084,-1.69137 0.365547,-1.303991 0.421205,-2.916619 0.486275,-4.504119 0.06507,-1.5875 0.139328,-3.151423 0.441317,-4.228682 0.150994,-0.538628 0.355487,-0.942612 0.589628,-1.185458 0.23414,-0.242842 0.480711,-0.363283 0.912089,-0.363283 z"
     id="path841-3" />
</svg>
