<?xml version="1.0" encoding="UTF-8" standalone="no"?>
<svg
   xmlns:dc="http://purl.org/dc/elements/1.1/"
   xmlns:cc="http://creativecommons.org/ns#"
   xmlns:rdf="http://www.w3.org/1999/02/22-rdf-syntax-ns#"
   xmlns:svg="http://www.w3.org/2000/svg"
   xmlns="http://www.w3.org/2000/svg"
   width="2.3499999in"
   height="4in"
   viewBox="0 0 59.689999 101.6"
   version="1.1"
   id="svg853">
  <defs
     id="defs847">
    <marker
       orient="auto"
       refY="0.0"
       refX="0.0"
       id="Arrow1Lstart"
       style="overflow:visible">
      <path
         id="path1297"
         d="M 0.0,0.0 L 5.0,-5.0 L -12.5,0.0 L 5.0,5.0 L 0.0,0.0 z "
         style="fill-rule:evenodd;stroke:#000000;stroke-width:1pt;stroke-opacity:1;fill:#000000;fill-opacity:1"
         transform="scale(0.8) translate(12.5,0)" />
    </marker>
  </defs>
  <metadata
     id="metadata850">
    <rdf:RDF>
      <cc:Work
         rdf:about="">
        <dc:format>image/svg+xml</dc:format>
        <dc:type
           rdf:resource="http://purl.org/dc/dcmitype/StillImage" />
        <dc:title></dc:title>
      </cc:Work>
    </rdf:RDF>
  </metadata>
  <path
     id="path4101-1"
     style="color:#000000;font-style:normal;font-variant:normal;font-weight:normal;font-stretch:normal;font-size:medium;line-height:normal;font-family:sans-serif;font-variant-ligatures:normal;font-variant-position:normal;font-variant-caps:normal;font-variant-numeric:normal;font-variant-alternates:normal;font-feature-settings:normal;text-indent:0;text-align:start;text-decoration:none;text-decoration-line:none;text-decoration-style:solid;text-decoration-color:#000000;letter-spacing:normal;word-spacing:normal;text-transform:none;writing-mode:lr-tb;direction:ltr;text-orientation:mixed;dominant-baseline:auto;baseline-shift:baseline;text-anchor:start;white-space:normal;shape-padding:0;clip-rule:nonzero;display:inline;overflow:visible;visibility:visible;opacity:1;isolation:auto;mix-blend-mode:normal;color-interpolation:sRGB;color-interpolation-filters:linearRGB;solid-color:#000000;solid-opacity:1;vector-effect:none;fill:#000000;fill-opacity:1;fill-rule:nonzero;stroke:none;stroke-width:4.04708;stroke-linecap:butt;stroke-linejoin:miter;stroke-miterlimit:4;stroke-dasharray:none;stroke-dashoffset:0;stroke-opacity:1;marker:none;color-rendering:auto;image-rendering:auto;shape-rendering:auto;text-rendering:auto;enable-background:accumulate"
     d="m 112.77148,11.052734 c -0.0391,0.001 -0.0782,0.003 -0.11718,0.0059 -0.52329,0.038 -1.02138,0.239556 -1.42383,0.576172 -0.12935,0.105738 -0.24778,0.224168 -0.35352,0.353515 -0.0254,0.02872 -0.0502,0.05803 -0.0742,0.08789 l -10.79296,14.269531 c -2.095969,2.674701 1.99909,5.76252 3.99414,3.011719 l 6.29687,-8.31836 V 62.28125 c -0.18771,3.513432 5.18381,3.513432 4.9961,0 v -41.25 l 6.30468,8.326172 c 1.96826,2.915983 6.25355,-0.321604 3.98633,-3.011719 l -10.5625,-13.966797 c -0.44204,-0.830824 -1.31296,-1.343263 -2.25391,-1.326172 z M 51.177734,75.623047 c -1.344,0 -2.398437,1.104391 -2.398437,2.400391 v 12.240234 c 0,1.344 1.054437,2.447266 2.398437,2.447266 h 16.65625 v 15.503902 c -1.344,0 -2.398437,1.10439 -2.398437,2.40039 0,1.344 1.054437,2.44922 2.398437,2.44922 h 2.400391 c 1.344,0 2.449219,-1.10522 2.449219,-2.44922 V 78.023438 c 0,-1.296 -1.105219,-2.400391 -2.449219,-2.400391 z m 34.705078,0 c -1.343999,0 -2.40039,1.104391 -2.40039,2.400391 v 8.6875 l 9.648437,24.816402 c 0.384,0.912 1.248688,1.53711 2.304688,1.53711 1.008,0 1.871859,-0.62511 2.255859,-1.53711 l 9.695314,-24.863278 v -8.640624 c 0,-1.296 -1.10327,-2.400391 -2.44727,-2.400391 -1.344,0 -2.40039,1.104391 -2.40039,2.400391 v 7.728515 L 95.435547,103.89648 88.330078,85.751953 v -7.728515 c 0,-1.296 -1.103266,-2.400391 -2.447266,-2.400391 z m 34.703128,0 c -1.344,0 -2.39844,1.104391 -2.39844,2.400391 0,1.343999 1.05444,2.447265 2.39844,2.447265 h 2.35351 v 27.744137 h -2.35351 c -1.344,0 -2.39844,1.10439 -2.39844,2.40039 0,1.344 1.05444,2.44922 2.39844,2.44922 h 8.92773 c 2.976,0 5.5213,-1.77637 6.5293,-3.98437 l 4.84765,-9.792971 c 0.672,-1.392 1.19922,-3.023359 1.19922,-4.943359 0,-1.92 -0.52722,-3.551359 -1.19922,-4.943359 l -4.89648,-9.744141 c -1.104,-2.16 -3.50447,-4.033203 -6.48047,-4.033203 z m 44.83203,0 c -2.976,0 -5.51935,1.776375 -6.52735,3.984375 l -4.84765,9.792969 c -0.672,1.392 -1.15235,2.975359 -1.15235,4.943359 0,1.968 0.48035,3.503359 1.15235,4.943359 1.536,3.360001 3.21648,6.528141 4.89648,9.744141 1.104,2.16 3.50252,4.0332 6.47852,4.0332 h 8.92773 c 1.344,0 2.44922,-1.10522 2.44922,-2.44922 0,-1.296 -1.10522,-2.40039 -2.44922,-2.40039 h -8.92773 c -0.96,0 -1.77533,-0.62375 -2.11133,-1.34375 l -4.94336,-9.744137 c -0.384,-0.816 -0.625,-1.679203 -0.625,-2.783203 0,-1.104 0.241,-1.967203 0.625,-2.783203 l 4.94336,-9.744141 c 0.336,-0.72 1.15133,-1.345703 2.11133,-1.345703 h 8.92773 c 1.344,0 2.44922,-1.103266 2.44922,-2.447265 0,-1.296 -1.10522,-2.400391 -2.44922,-2.400391 z M 53.578125,80.470703 h 14.255859 v 7.392578 H 53.578125 Z m 74.208985,0 h 1.72656 c 0.96,0 1.77728,0.625703 2.11328,1.345703 l 4.94336,9.744141 c 0.384,0.768 0.67188,1.727203 0.67188,2.783203 0,1.056 -0.33588,1.967203 -0.67188,2.783203 l -4.94336,9.744137 c -0.336,0.72 -1.15328,1.34375 -2.11328,1.34375 h -1.72656 z m -15.01367,46.726567 c -5.74948,0 -11.49606,2.18751 -15.871096,6.5625 -3.862432,3.86245 -6.018135,8.79601 -6.470703,13.85546 H 62.148438 c -1.026558,-11.3482 -10.59522,-20.27734 -22.205079,-20.27734 -12.291914,0 -22.300781,10.00881 -22.300781,22.30078 0,12.29176 10.008868,22.30078 22.300781,22.30078 11.609859,0 21.178521,-8.93124 22.205079,-20.27929 h 28.283203 c 0.454034,5.05681 2.610188,9.98908 6.470703,13.84961 8.750066,8.75019 22.999926,8.75019 31.749996,0 2.03564,-1.89854 -0.95107,-4.88525 -2.84961,-2.84961 -7.20923,7.20935 -18.84153,7.20935 -26.050777,0 -7.209347,-7.20937 -7.209347,-18.8336 0,-26.04297 7.209237,-7.20915 18.841457,-7.20916 26.050777,0 1.90494,1.89542 4.75023,-0.95768 2.84961,-2.85742 -4.37507,-4.37498 -10.12942,-6.5625 -15.8789,-6.5625 z m 72.88086,0.14062 c -11.60986,0 -21.17853,8.92915 -22.20508,20.27734 h -41.39649 c -0.93878,-4.42276 -4.8838,-7.77343 -9.57421,-7.77343 -5.38361,0 -9.79688,4.41322 -9.79688,9.79687 0,5.38363 4.41327,9.78711 9.79688,9.78711 4.69041,0 8.63543,-3.34431 9.57421,-7.76562 h 41.39649 c 1.02655,11.34805 10.59522,20.27929 22.20508,20.27929 12.29191,0 22.30078,-10.00902 22.30078,-22.30078 0,-12.29198 -10.00887,-22.30078 -22.30078,-22.30078 z m -145.710941,4.04492 c 10.104631,0 18.25586,8.15108 18.25586,18.25586 0,10.10454 -8.151229,18.24805 -18.25586,18.24805 -10.104712,0 -18.255859,-8.14351 -18.255859,-18.24805 0,-10.10478 8.151149,-18.25586 18.255859,-18.25586 z m 145.710941,0 c 10.10471,0 18.25586,8.15108 18.25586,18.25586 0,10.10454 -8.15115,18.24805 -18.25586,18.24805 -10.10463,0 -18.24805,-8.14351 -18.24805,-18.24805 0,-10.10478 8.14342,-18.25586 18.24805,-18.25586 z m -145.710941,6.11133 c -1.365324,0 -2.486328,1.12294 -2.486328,2.43945 v 7.21485 h -7.216797 c -1.365247,0 -2.4375,1.12299 -2.4375,2.48828 0,1.36529 1.072253,2.4375 2.4375,2.4375 h 7.216797 v 7.2168 c 0,1.36529 1.121004,2.48632 2.486328,2.48632 1.316606,0 2.4375,-1.12103 2.4375,-2.48632 v -7.2168 h 7.216797 c 1.365253,0 2.486328,-1.07221 2.486328,-2.4375 0,-1.36529 -1.121075,-2.48828 -2.486328,-2.48828 h -7.216797 v -7.21485 c 0,-1.31651 -1.120981,-2.43945 -2.4375,-2.43945 z M 175.95312,146.125 c -1.36532,0 -2.43748,1.12104 -2.4375,2.48633 v 2.04883 c 0,1.36529 1.07218,2.48632 2.4375,2.48632 h 19.35743 c 1.36532,0 2.48633,-1.12103 2.48633,-2.48632 v -2.04883 c 0,-1.36529 -1.12101,-2.48633 -2.48633,-2.48633 z"
     transform="scale(0.26458334)" />
</svg>
