<?xml version="1.0" encoding="UTF-8" standalone="no"?>
<svg
   xmlns:dc="http://purl.org/dc/elements/1.1/"
   xmlns:cc="http://creativecommons.org/ns#"
   xmlns:rdf="http://www.w3.org/1999/02/22-rdf-syntax-ns#"
   xmlns:svg="http://www.w3.org/2000/svg"
   xmlns="http://www.w3.org/2000/svg"
   width="2.3499999in"
   height="4in"
   viewBox="0 0 59.689999 101.6"
   version="1.1"
   id="svg853">
  <defs
     id="defs847">
    <marker
       orient="auto"
       refY="0.0"
       refX="0.0"
       id="Arrow1Lstart"
       style="overflow:visible">
      <path
         id="path1297"
         d="M 0.0,0.0 L 5.0,-5.0 L -12.5,0.0 L 5.0,5.0 L 0.0,0.0 z "
         style="fill-rule:evenodd;stroke:#000000;stroke-width:1pt;stroke-opacity:1;fill:#000000;fill-opacity:1"
         transform="scale(0.8) translate(12.5,0)" />
    </marker>
  </defs>
  <metadata
     id="metadata850">
    <rdf:RDF>
      <cc:Work
         rdf:about="">
        <dc:format>image/svg+xml</dc:format>
        <dc:type
           rdf:resource="http://purl.org/dc/dcmitype/StillImage" />
        <dc:title></dc:title>
      </cc:Work>
    </rdf:RDF>
  </metadata>
  <path
     id="path841-5"
     style="color:#000000;font-style:normal;font-variant:normal;font-weight:normal;font-stretch:normal;font-size:medium;line-height:normal;font-family:sans-serif;font-variant-ligatures:normal;font-variant-position:normal;font-variant-caps:normal;font-variant-numeric:normal;font-variant-alternates:normal;font-feature-settings:normal;text-indent:0;text-align:start;text-decoration:none;text-decoration-line:none;text-decoration-style:solid;text-decoration-color:#000000;letter-spacing:normal;word-spacing:normal;text-transform:none;writing-mode:lr-tb;direction:ltr;text-orientation:mixed;dominant-baseline:auto;baseline-shift:baseline;text-anchor:start;white-space:normal;shape-padding:0;clip-rule:nonzero;display:inline;overflow:visible;visibility:visible;opacity:1;isolation:auto;mix-blend-mode:normal;color-interpolation:sRGB;color-interpolation-filters:linearRGB;solid-color:#000000;solid-opacity:1;vector-effect:none;fill:#000000;fill-opacity:1;fill-rule:evenodd;stroke:none;stroke-width:4.512;stroke-linecap:round;stroke-linejoin:round;stroke-miterlimit:4;stroke-dasharray:none;stroke-dashoffset:0;stroke-opacity:1;color-rendering:auto;image-rendering:auto;shape-rendering:auto;text-rendering:auto;enable-background:accumulate"
     d="m 86.332031,108.14453 c -0.325906,0.0101 -0.645748,0.0907 -0.9375,0.23633 l -48.005859,23.99805 c -2.134339,1.06415 -1.373191,4.28066 1.011719,4.27539 h 47.998047 c 1.245034,8.8e-4 2.255459,-1.00693 2.257812,-2.25196 V 110.4043 c 0.0026,-1.27452 -1.05028,-2.29818 -2.324219,-2.25977 z m 52.742189,0 c -3.0687,0.0253 -2.93831,4.65718 0.12695,4.50977 h 11.41211 l 9.44922,9.74414 -9.44922,9.74414 h -11.41211 c -3.06245,-0.0551 -3.06245,4.56685 0,4.51172 h 12.36328 c 0.60982,-0.001 1.19319,-0.2492 1.61719,-0.6875 l 10.01758,-10.32618 10.01758,10.32618 c 0.42353,0.43781 1.00609,0.68577 1.61523,0.6875 h 12.36524 c 3.06245,0.0551 3.06245,-4.56685 0,-4.51172 h -11.4043 l -9.44922,-9.74414 9.44922,-9.74414 h 11.4043 c 3.11198,0.10732 3.11198,-4.61709 0,-4.50977 h -12.36524 c -0.60914,0.002 -1.1917,0.24969 -1.61523,0.6875 l -10.01758,10.32617 -10.01758,-10.32617 c -0.424,-0.4383 -1.00737,-0.6863 -1.61719,-0.6875 h -12.36328 c -0.0423,-0.001 -0.0846,-0.001 -0.12695,0 z m -54.927736,5.90625 v 18.0918 H 47.960938 Z"
     transform="scale(0.26458334)" />
</svg>
