<?xml version="1.0" encoding="UTF-8" standalone="no"?>
<svg
   xmlns:dc="http://purl.org/dc/elements/1.1/"
   xmlns:cc="http://creativecommons.org/ns#"
   xmlns:rdf="http://www.w3.org/1999/02/22-rdf-syntax-ns#"
   xmlns:svg="http://www.w3.org/2000/svg"
   xmlns="http://www.w3.org/2000/svg"
   width="2.3499999in"
   height="4in"
   viewBox="0 0 59.689999 101.6"
   version="1.1"
   id="svg853">
  <defs
     id="defs847">
    <marker
       orient="auto"
       refY="0.0"
       refX="0.0"
       id="Arrow1Lstart"
       style="overflow:visible">
      <path
         id="path1297"
         d="M 0.0,0.0 L 5.0,-5.0 L -12.5,0.0 L 5.0,5.0 L 0.0,0.0 z "
         style="fill-rule:evenodd;stroke:#000000;stroke-width:1pt;stroke-opacity:1;fill:#000000;fill-opacity:1"
         transform="scale(0.8) translate(12.5,0)" />
    </marker>
  </defs>
  <metadata
     id="metadata850">
    <rdf:RDF>
      <cc:Work
         rdf:about="">
        <dc:format>image/svg+xml</dc:format>
        <dc:type
           rdf:resource="http://purl.org/dc/dcmitype/StillImage" />
        <dc:title></dc:title>
      </cc:Work>
    </rdf:RDF>
  </metadata>
  <path
     style="color:#000000;font-style:normal;font-variant:normal;font-weight:normal;font-stretch:normal;font-size:medium;line-height:normal;font-family:sans-serif;font-variant-ligatures:normal;font-variant-position:normal;font-variant-caps:normal;font-variant-numeric:normal;font-variant-alternates:normal;font-feature-settings:normal;text-indent:0;text-align:start;text-decoration:none;text-decoration-line:none;text-decoration-style:solid;text-decoration-color:#000000;letter-spacing:normal;word-spacing:normal;text-transform:none;writing-mode:lr-tb;direction:ltr;text-orientation:mixed;dominant-baseline:auto;baseline-shift:baseline;text-anchor:start;white-space:normal;shape-padding:0;clip-rule:nonzero;display:inline;overflow:visible;visibility:visible;opacity:1;isolation:auto;mix-blend-mode:normal;color-interpolation:sRGB;color-interpolation-filters:linearRGB;solid-color:#000000;solid-opacity:1;vector-effect:none;fill:#000000;fill-opacity:1;fill-rule:evenodd;stroke:none;stroke-width:1.1938;stroke-linecap:round;stroke-linejoin:round;stroke-miterlimit:4;stroke-dasharray:none;stroke-dashoffset:0;stroke-opacity:1;color-rendering:auto;image-rendering:auto;shape-rendering:auto;text-rendering:auto;enable-background:accumulate"
     d="m 22.842017,28.613219 a 0.59695962,0.59695962 0 0 0 -0.248047,0.06253 L 9.8924197,35.025232 a 0.59695962,0.59695962 0 0 0 0.2676843,1.131197 h 12.699483 a 0.59695962,0.59695962 0 0 0 0.59738,-0.595831 v -6.349481 a 0.59695962,0.59695962 0 0 0 -0.61495,-0.597898 z m 13.988292,0 a 0.59695962,0.59695962 0 1 0 0,1.19321 h 3.126941 l 4.997112,2.578137 -4.997112,2.578137 h -3.126941 a 0.59695962,0.59695962 0 1 0 0,1.193726 h 3.271118 a 0.59695962,0.59695962 0 0 0 0.27337,-0.06666 l 6.029606,-3.107304 h 3.124874 a 0.59695962,0.59695962 0 0 0 0.05943,-0.0011 0.59695962,0.59695962 0 0 0 0.0021,-1.191143 0.59695962,0.59695962 0 0 0 -0.06149,-0.0011 h -3.124864 l -6.029606,-3.10937 a 0.59695962,0.59695962 0 0 0 -0.27337,-0.06666 z m -14.566551,1.562695 v 4.786789 h -9.574093 z m 2.893363,17.140039 c -0.188599,0.01503 -0.394222,0.08106 -0.551904,0.238747 -0.210243,0.21024 -0.259109,0.507614 -0.239779,0.734322 0.01933,0.226708 0.08544,0.422772 0.14056,0.601512 0.05512,0.178739 0.09925,0.339111 0.107487,0.435633 0.0082,0.09652 0.0025,0.0895 -0.0078,0.09973 -0.01024,0.01024 -0.0032,0.01802 -0.09973,0.0098 -0.09652,-0.0082 -0.256894,-0.05443 -0.435633,-0.109553 -0.178738,-0.05512 -0.376873,-0.119163 -0.603581,-0.138494 -0.226708,-0.01934 -0.522012,0.02799 -0.732255,0.238228 -0.210244,0.210244 -0.259625,0.507614 -0.240295,0.734322 0.01933,0.226709 0.08543,0.422775 0.14056,0.601515 0.05512,0.178739 0.09925,0.339108 0.107487,0.435631 0.0082,0.09652 0.0025,0.08949 -0.0078,0.09974 -0.01024,0.01024 -0.0032,0.01598 -0.09973,0.0078 -0.09652,-0.0082 -0.256893,-0.05236 -0.435632,-0.107486 -0.17874,-0.05512 -0.376872,-0.12123 -0.603581,-0.14056 -0.226708,-0.01934 -0.522012,0.03005 -0.732255,0.240297 -0.210242,0.210243 -0.259627,0.507614 -0.240296,0.734322 0.01933,0.226708 0.08544,0.422775 0.14056,0.601511 0.05512,0.17874 0.09925,0.339112 0.107487,0.435634 0.0082,0.09652 0.0025,0.08898 -0.0078,0.09922 -0.01024,0.01024 -0.0032,0.01598 -0.09974,0.0078 -0.09652,-0.0082 -0.256893,-0.05185 -0.435632,-0.106971 -0.178739,-0.05512 -0.374805,-0.121745 -0.601514,-0.141076 -0.226708,-0.01934 -0.52408,0.03005 -0.734322,0.240295 -0.210243,0.210243 -0.259625,0.506063 -0.240295,0.732772 0.01933,0.226708 0.08543,0.424841 0.14056,0.60358 0.05512,0.17874 0.09926,0.338593 0.107487,0.435116 0.0082,0.09652 0.0025,0.08949 -0.0078,0.09973 -0.01024,0.01024 -0.0032,0.01598 -0.09973,0.0078 -0.09652,-0.0082 -0.256377,-0.05236 -0.435116,-0.107487 -0.178738,-0.05512 -0.374806,-0.12123 -0.601514,-0.14056 -0.226708,-0.01934 -0.524595,0.03005 -0.734839,0.240294 -0.210243,0.210243 -0.257558,0.505548 -0.238228,0.732256 0.01933,0.226711 0.08389,0.424841 0.13901,0.60358 0.05512,0.17874 0.100807,0.339112 0.109037,0.435634 0.0082,0.09652 4.5e-4,0.0895 -0.0098,0.09974 -0.01024,0.01024 -0.0027,0.01598 -0.09922,0.0078 -0.09652,-0.0082 -0.256893,-0.05237 -0.435632,-0.107487 -0.17874,-0.05512 -0.374805,-0.121229 -0.601514,-0.14056 -0.226708,-0.01934 -0.524079,0.03005 -0.734322,0.240295 -0.360308,0.360304 -0.345018,0.82832 -0.351916,1.162203 -0.0069,0.333881 -0.03664,0.532215 -0.117306,0.612881 -0.360836,0.360799 -0.745555,0.457163 -0.745555,0.457163 a 0.40004879,0.40004879 0 0 0 -0.188102,0.106452 l -1.316199,-1.31568 c -0.07605,-0.07608 -0.179237,-0.117919 -0.286804,-0.11679 -0.221223,0.003 -0.398263,0.18496 -0.394808,0.406178 l 0.05891,3.13676 c 0.004,0.215146 0.177078,0.388247 0.392224,0.392223 l 3.136759,0.05891 c 0.357919,0.0044 0.541386,-0.4274 0.289388,-0.681612 l -1.286226,-1.286227 c 0.220491,-0.08617 0.572734,-0.255955 0.907438,-0.590661 0.360306,-0.360304 0.344501,-0.828323 0.3514,-1.162203 0.0069,-0.333881 0.03664,-0.534797 0.117306,-0.615466 0.01024,-0.01024 0.0027,-0.01598 0.09922,-0.0078 0.09652,0.0082 0.256893,0.05236 0.435632,0.107487 0.17874,0.05512 0.376873,0.121229 0.603581,0.14056 0.226707,0.01931 0.522012,-0.03005 0.732255,-0.240298 0.210243,-0.210243 0.259627,-0.505547 0.240295,-0.732255 -0.01933,-0.226708 -0.08543,-0.424842 -0.14056,-0.603581 -0.05512,-0.178737 -0.09925,-0.337042 -0.107487,-0.433565 -0.0082,-0.09652 -0.0025,-0.08949 0.0077,-0.09973 0.01024,-0.01024 0.0032,-0.01802 0.09974,-0.0098 0.09652,0.0082 0.256895,0.05236 0.435633,0.107487 0.178739,0.05512 0.374805,0.121229 0.601513,0.140559 0.226708,0.01934 0.524079,-0.02799 0.734322,-0.238228 0.210243,-0.210243 0.259625,-0.507613 0.240295,-0.734322 -0.01933,-0.226708 -0.08543,-0.424841 -0.14056,-0.60358 -0.05512,-0.17874 -0.09925,-0.337043 -0.107486,-0.433565 -0.0082,-0.09652 -0.0025,-0.0895 0.0077,-0.09974 0.01024,-0.01024 0.0032,-0.01802 0.09974,-0.0098 0.09652,0.0082 0.256894,0.05443 0.435632,0.109556 0.17874,0.05512 0.374806,0.119163 0.601514,0.138491 0.226709,0.01934 0.524079,-0.02799 0.734322,-0.238228 0.210252,-0.210172 0.25756,-0.507614 0.238229,-0.734322 -0.01933,-0.226708 -0.08337,-0.422775 -0.138493,-0.601512 -0.05512,-0.178739 -0.101324,-0.339111 -0.109554,-0.435633 -0.0082,-0.09652 -4.5e-4,-0.08898 0.0098,-0.09922 0.01024,-0.01024 0.0032,-0.01651 0.09974,-0.0083 0.09652,0.0082 0.254825,0.05237 0.433565,0.107487 0.178739,0.05512 0.376873,0.121229 0.603581,0.14056 0.226708,0.01934 0.524079,-0.02953 0.734322,-0.239779 0.210243,-0.210243 0.257559,-0.50813 0.238228,-0.734838 -0.01933,-0.226708 -0.08544,-0.422775 -0.14056,-0.601514 -0.05512,-0.178739 -0.09925,-0.338593 -0.107487,-0.435115 -0.0082,-0.09652 -4.49e-4,-0.0895 0.0098,-0.09974 0.01024,-0.01024 0.0032,-0.01598 0.09974,-0.0078 0.09652,0.0082 0.254827,0.05236 0.433565,0.107487 0.178739,0.05512 0.376873,0.121229 0.603581,0.14056 0.226708,0.01934 0.522012,-0.03005 0.732255,-0.240295 0.210243,-0.210243 0.259626,-0.505547 0.240295,-0.732256 -0.01933,-0.22671 -0.08543,-0.424841 -0.14056,-0.60358 -0.05512,-0.17874 -0.09925,-0.339111 -0.107487,-0.435634 -0.0082,-0.09652 -0.0025,-0.08949 0.0078,-0.09974 0.01024,-0.01024 0.0032,-0.01598 0.09973,-0.0078 0.09652,0.0082 0.256377,0.05237 0.435116,0.107487 0.17874,0.05512 0.376871,0.121229 0.603581,0.14056 0.226707,0.01934 0.52253,-0.03005 0.732771,-0.240295 A 0.40004,0.40004 0 1 0 26.476429,47.55455 c -0.01024,0.01024 -0.0027,0.01802 -0.09922,0.0098 -0.09652,-0.0082 -0.256892,-0.05443 -0.435632,-0.109554 -0.178739,-0.05512 -0.376873,-0.119163 -0.603581,-0.138493 -0.05668,-0.0048 -0.118001,-0.0055 -0.180868,-5.29e-4 z m 9.011854,0.07235 c -0.06287,-0.005 -0.12419,-0.0043 -0.180869,5.29e-4 -0.226706,0.01934 -0.424842,0.08337 -0.603581,0.138493 -0.178739,0.05512 -0.338593,0.101325 -0.435115,0.109554 -0.09652,0.0082 -0.08742,5.29e-4 -0.09767,-0.0098 a 0.40050953,0.40050953 0 1 0 -0.566373,0.566375 c 0.210243,0.210243 0.505547,0.259625 0.732256,0.240294 0.226708,-0.01934 0.424838,-0.08543 0.60358,-0.140559 0.178737,-0.05512 0.339109,-0.09926 0.435632,-0.107487 0.09652,-0.0082 0.08898,-0.0024 0.09922,0.0078 0.01024,0.01024 0.01598,0.0032 0.0078,0.09973 -0.0082,0.09652 -0.05185,0.256375 -0.106971,0.435115 -0.05512,0.178739 -0.121746,0.376872 -0.141076,0.60358 -0.01934,0.226709 0.03005,0.522531 0.240294,0.732772 0.210244,0.210243 0.506064,0.259112 0.732772,0.239779 0.226708,-0.01934 0.424841,-0.08543 0.603581,-0.14056 0.178739,-0.05512 0.338595,-0.09926 0.435115,-0.107487 0.09652,-0.0082 0.08949,-0.0019 0.09974,0.0083 0.01024,0.01024 0.01598,0.0027 0.0078,0.09922 -0.0082,0.09652 -0.05236,0.256894 -0.107486,0.435633 -0.05512,0.17874 -0.121229,0.374806 -0.140559,0.601512 -0.01934,0.226714 0.03005,0.524081 0.240296,0.734325 0.21024,0.21024 0.505544,0.259625 0.732253,0.240294 0.226708,-0.01934 0.424841,-0.08543 0.60358,-0.14056 0.178742,-0.05512 0.339112,-0.09926 0.435634,-0.107487 0.09652,-0.0082 0.08949,-0.0024 0.09973,0.0078 0.01024,0.01024 0.01598,0.0032 0.0078,0.09973 -0.0082,0.09652 -0.05237,0.256895 -0.107487,0.435631 -0.05512,0.17874 -0.121229,0.374807 -0.14056,0.601515 -0.01934,0.226708 0.03005,0.524079 0.240295,0.734322 0.210243,0.210243 0.505547,0.257558 0.732255,0.238228 0.226709,-0.01934 0.424842,-0.08337 0.603581,-0.138494 0.178739,-0.05512 0.337042,-0.101322 0.433565,-0.109553 0.09652,-0.0082 0.08949,-5.29e-4 0.09973,0.0098 0.01024,0.01024 0.01802,0.0032 0.0098,0.09973 -0.0082,0.09652 -0.05236,0.254825 -0.107487,0.433567 -0.05512,0.178739 -0.12123,0.376873 -0.14056,0.603581 -0.01934,0.226708 0.02799,0.524079 0.238228,0.734322 0.210243,0.210243 0.507616,0.257559 0.734322,0.238228 0.226713,-0.01934 0.424839,-0.08544 0.603583,-0.14056 0.178737,-0.05512 0.337042,-0.09926 0.433565,-0.107487 0.09652,-0.0082 0.08949,-5.29e-4 0.09973,0.0098 0.01024,0.01024 0.01802,0.0032 0.0098,0.09973 -0.0082,0.09652 -0.05443,0.254825 -0.109554,0.433565 -0.05512,0.178739 -0.119163,0.376872 -0.138493,0.60358 -0.01934,0.226709 0.02799,0.522013 0.238228,0.732256 0.210243,0.210243 0.507614,0.259628 0.734322,0.240295 0.226708,-0.01934 0.422775,-0.08543 0.601514,-0.14056 0.17874,-0.05512 0.339109,-0.09925 0.435632,-0.107487 0.09652,-0.0082 0.08949,-0.0024 0.09974,0.0078 0.08067,0.08067 0.109889,0.281585 0.116787,0.615466 0.0069,0.33388 -0.0083,0.80138 0.351917,1.161687 0.334616,0.334616 0.686411,0.504463 0.90692,0.590661 l -1.286224,1.286227 c -0.252714,0.254879 -0.06742,0.688354 0.291454,0.682128 l 3.136242,-0.05891 c 0.214384,-0.005 0.386733,-0.178338 0.390675,-0.392743 l 0.05891,-3.136244 c 0.0035,-0.225033 -0.179575,-0.409114 -0.404625,-0.406691 -0.104182,0.0016 -0.203327,0.04361 -0.276987,0.117306 l -1.315683,1.315164 a 0.40004892,0.40004892 0 0 0 -0.1881,-0.105936 c 0,0 -0.385239,-0.09636 -0.746207,-0.457338 -0.08068,-0.08067 -0.110408,-0.279 -0.117306,-0.612881 -0.0069,-0.333883 0.0089,-0.801899 -0.351401,-1.162203 -0.210243,-0.210243 -0.507613,-0.259628 -0.734322,-0.240297 -0.226708,0.01934 -0.423291,0.08544 -0.60203,0.14056 -0.178739,0.05512 -0.338593,0.09925 -0.435115,0.107487 -0.09652,0.0082 -0.08949,0.0024 -0.09974,-0.0078 -0.01024,-0.01024 -0.01598,-0.0032 -0.0078,-0.09974 0.0082,-0.09652 0.05236,-0.256892 0.107487,-0.435631 0.05512,-0.178739 0.12123,-0.376873 0.14056,-0.603581 0.01934,-0.226708 -0.03005,-0.522012 -0.240297,-0.732255 -0.210241,-0.210241 -0.505545,-0.259625 -0.732253,-0.240295 -0.226708,0.01934 -0.424844,0.08543 -0.603581,0.14056 -0.178739,0.05512 -0.339111,0.09926 -0.435634,0.107487 -0.09652,0.0082 -0.0895,0.0024 -0.09973,-0.0078 -0.01024,-0.01024 -0.01598,-0.0032 -0.0078,-0.09974 0.0082,-0.09652 0.05237,-0.256895 0.107487,-0.435634 0.05512,-0.178739 0.12123,-0.37687 0.14056,-0.603581 0.01934,-0.226705 -0.03005,-0.522009 -0.240294,-0.732253 -0.210299,-0.210256 -0.505548,-0.259627 -0.732256,-0.240297 -0.226708,0.01934 -0.424841,0.08544 -0.603581,0.14056 -0.178739,0.05512 -0.339111,0.09926 -0.435631,0.107487 -0.09652,0.0082 -0.08949,0.0024 -0.09974,-0.0078 -0.01024,-0.01024 -0.01598,-0.0032 -0.0078,-0.09974 0.0082,-0.09652 0.05236,-0.256376 0.107487,-0.435115 0.05512,-0.178736 0.121226,-0.375322 0.140559,-0.60203 0.01934,-0.226708 -0.03005,-0.524079 -0.240297,-0.734322 -0.210243,-0.210243 -0.505547,-0.259625 -0.732253,-0.240295 -0.226711,0.01934 -0.424841,0.08595 -0.60358,0.141076 -0.17874,0.05512 -0.339112,0.09874 -0.435634,0.106971 -0.09652,0.0082 -0.0895,0.0024 -0.09973,-0.0078 -0.01024,-0.01024 -0.01598,-0.0027 -0.0078,-0.09922 0.0082,-0.09652 0.05237,-0.256892 0.107487,-0.435631 0.05512,-0.178739 0.121229,-0.374806 0.14056,-0.601514 0.01934,-0.226708 -0.03005,-0.524082 -0.240295,-0.734322 -0.210243,-0.210243 -0.505547,-0.257559 -0.732254,-0.238228 -0.226709,0.01934 -0.424842,0.08337 -0.603581,0.13849 -0.178739,0.05513 -0.339111,0.101325 -0.435631,0.109556 -0.09652,0.0082 -0.08898,5.3e-4 -0.09922,-0.0098 -0.01024,-0.01024 -0.01598,-0.0032 -0.0078,-0.09974 0.0082,-0.09652 0.05185,-0.256892 0.106971,-0.435631 0.05512,-0.178739 0.121745,-0.374806 0.141076,-0.601514 0.01934,-0.226709 -0.03005,-0.524079 -0.240295,-0.734322 -0.15771,-0.157674 -0.363305,-0.223724 -0.551905,-0.238744 z m -5.641517,0.920356 a 0.40004,0.40004 0 0 0 -0.363284,0.251666 c -0.0055,0.01339 0.0024,0.01564 -0.08992,0.04496 -0.09232,0.02933 -0.257156,0.04918 -0.443383,0.06666 -0.186227,0.01746 -0.392417,0.03238 -0.609264,0.101285 -0.21685,0.0689 -0.472228,0.2276 -0.586012,0.502295 -0.113782,0.274696 -0.04622,0.56741 0.0584,0.769462 0.104613,0.202054 0.242408,0.359807 0.361733,0.503846 0.119327,0.144039 0.221078,0.275193 0.265618,0.36122 0.04454,0.08603 0.03448,0.08067 0.02894,0.09405 -0.0055,0.01339 0.0044,0.01717 -0.08785,0.04651 -0.09232,0.02933 -0.257157,0.04918 -0.443384,0.06666 -0.186225,0.01746 -0.394483,0.03238 -0.611332,0.101285 -0.216848,0.0689 -0.47016,0.2276 -0.583943,0.502296 -0.113783,0.274696 -0.04622,0.567409 0.05839,0.769461 0.104616,0.202055 0.240342,0.357738 0.359668,0.50178 0.119326,0.144039 0.223143,0.27519 0.267684,0.361217 0.04454,0.08602 0.03448,0.08274 0.02894,0.09612 -0.0055,0.01339 0.0044,0.01511 -0.08785,0.04444 -0.09232,0.02933 -0.257156,0.05125 -0.443384,0.06873 -0.186228,0.01746 -0.394484,0.03083 -0.611332,0.09973 -0.216849,0.0689 -0.471711,0.227084 -0.585494,0.501777 -0.113782,0.274696 -0.04622,0.56741 0.05839,0.769464 0.104617,0.202052 0.241892,0.359807 0.361218,0.503844 0.119326,0.144039 0.221076,0.275195 0.265617,0.361219 0.04454,0.08602 0.03706,0.08067 0.03152,0.09405 -0.0055,0.01339 0.0024,0.01717 -0.08992,0.04651 -0.09232,0.02933 -0.257156,0.04918 -0.443384,0.06666 -0.186228,0.01749 -0.392417,0.03238 -0.609265,0.101285 -0.216848,0.0689 -0.472229,0.2276 -0.586011,0.502296 -0.113783,0.274696 -0.04622,0.567409 0.05839,0.769461 0.104617,0.202054 0.240342,0.357741 0.359668,0.50178 0.119326,0.144039 0.222627,0.275709 0.267167,0.361735 0.04454,0.08602 0.03499,0.08222 0.02945,0.0956 -0.0055,0.01339 0.0044,0.01564 -0.08785,0.04496 -0.09232,0.02933 -0.257157,0.05074 -0.443384,0.06821 -0.186227,0.01746 -0.394484,0.03083 -0.611333,0.09973 -0.216848,0.0689 -0.472227,0.227084 -0.58601,0.50178 -0.113783,0.274696 -0.04416,0.567407 0.06046,0.769461 0.104617,0.202052 0.240342,0.359804 0.359668,0.503846 0.119325,0.144039 0.221076,0.275191 0.265617,0.361217 0.04454,0.08603 0.03655,0.08067 0.03101,0.09405 -0.0055,0.01339 0.0024,0.0177 -0.08992,0.04702 -0.09232,0.02933 -0.257156,0.04867 -0.443384,0.06615 -0.186227,0.01749 -0.392416,0.0329 -0.609265,0.101804 -0.216848,0.0689 -0.472229,0.227081 -0.586011,0.501777 -0.194995,0.470762 4.2e-5,0.897607 0.12144,1.208712 0.121397,0.311107 0.168713,0.505936 0.125057,0.611333 -0.195357,0.471633 -0.515731,0.707451 -0.515731,0.707451 a 0.40042018,0.40042018 0 0 0 -0.133325,0.170531 l -1.718223,-0.711568 c -0.04946,-0.0208 -0.102927,-0.0317 -0.156579,-0.03152 -0.287211,0.0024 -0.478535,0.297606 -0.363286,0.560689 l 1.254187,2.874759 c 0.08586,0.197813 0.313047,0.291989 0.513664,0.212908 L 23.41976,65.95513 c 0.335644,-0.130998 0.340568,-0.604052 0.0078,-0.742074 l -1.680566,-0.695569 c 0.171125,-0.164076 0.431359,-0.455459 0.612366,-0.89245 0.194995,-0.470763 4.76e-4,-0.898126 -0.120923,-1.209231 -0.121397,-0.311105 -0.170781,-0.505933 -0.127124,-0.61133 0.0055,-0.01339 -0.0024,-0.01717 0.08992,-0.04651 0.09232,-0.02933 0.257156,-0.04918 0.443384,-0.06666 0.186228,-0.01746 0.392417,-0.03238 0.609265,-0.101285 0.216849,-0.0689 0.472228,-0.2276 0.586011,-0.502296 0.113783,-0.274696 0.04622,-0.567407 -0.0584,-0.769461 -0.104616,-0.202054 -0.240342,-0.357733 -0.359667,-0.50178 -0.119327,-0.144036 -0.223143,-0.27519 -0.267684,-0.361217 -0.04454,-0.08602 -0.03448,-0.08274 -0.02894,-0.09612 0.0055,-0.01339 -0.0044,-0.01564 0.08785,-0.04496 0.09232,-0.02933 0.257156,-0.05074 0.443383,-0.06821 0.186227,-0.01746 0.394485,-0.03084 0.611333,-0.09974 0.216849,-0.0689 0.471711,-0.227082 0.585494,-0.501777 0.113783,-0.274696 0.04416,-0.56741 -0.06046,-0.769464 -0.104616,-0.202052 -0.239825,-0.359804 -0.359151,-0.503844 -0.119326,-0.144041 -0.221076,-0.275193 -0.265617,-0.361219 -0.04454,-0.08603 -0.03706,-0.08067 -0.03152,-0.09405 0.0055,-0.01339 -0.0024,-0.0177 0.08992,-0.04702 0.09232,-0.02933 0.257155,-0.04866 0.443383,-0.06615 0.186227,-0.01746 0.392416,-0.0329 0.609266,-0.101804 0.216848,-0.0689 0.472228,-0.227081 0.58601,-0.501777 0.113784,-0.274695 0.04622,-0.567409 -0.05839,-0.769461 -0.104617,-0.202054 -0.241891,-0.35774 -0.361218,-0.50178 -0.119326,-0.144036 -0.221077,-0.275709 -0.265617,-0.361733 -0.04454,-0.08603 -0.035,-0.08222 -0.02946,-0.0956 0.0055,-0.01339 -0.0044,-0.01564 0.08785,-0.04496 0.09232,-0.02933 0.257156,-0.05073 0.443384,-0.06821 0.186227,-0.01746 0.394483,-0.03083 0.611332,-0.09974 0.216847,-0.0689 0.472228,-0.227081 0.586009,-0.501777 0.113784,-0.274701 0.04416,-0.56741 -0.06046,-0.769464 -0.104616,-0.202054 -0.240342,-0.359807 -0.359669,-0.503843 -0.119323,-0.144048 -0.221074,-0.275712 -0.265615,-0.361736 -0.04454,-0.08603 -0.03655,-0.08016 -0.03101,-0.09354 0.0055,-0.01339 -0.0044,-0.0177 0.08785,-0.04702 0.09232,-0.02933 0.257155,-0.04867 0.443382,-0.06615 0.186227,-0.01746 0.394483,-0.0329 0.611333,-0.101804 0.216847,-0.0689 0.472229,-0.227084 0.58601,-0.501777 0.113784,-0.274695 0.0457,-0.567409 -0.05891,-0.769464 -0.104616,-0.202051 -0.241892,-0.359804 -0.361219,-0.503843 -0.119325,-0.144039 -0.221076,-0.273643 -0.265616,-0.359669 -0.04454,-0.08602 -0.03655,-0.08222 -0.03101,-0.0956 0.0055,-0.01339 -0.0029,-0.01564 0.0894,-0.04496 0.09232,-0.02933 0.257157,-0.05073 0.443384,-0.06821 0.186226,-0.01746 0.392932,-0.0329 0.609782,-0.101804 0.216847,-0.0689 0.47171,-0.227081 0.585494,-0.501777 a 0.40004,0.40004 0 0 0 -0.374655,-0.556556 z m 2.538865,0 a 0.40004,0.40004 0 0 0 -0.363287,0.556556 c 0.113782,0.274696 0.369163,0.432879 0.58601,0.501777 0.21685,0.0689 0.423037,0.08433 0.609267,0.101804 0.186227,0.01746 0.351057,0.03888 0.443383,0.06821 0.09233,0.02933 0.08438,0.03158 0.08992,0.04496 0.0055,0.01339 0.01352,0.0096 -0.03101,0.0956 -0.04454,0.08603 -0.146291,0.21563 -0.265615,0.359669 -0.119328,0.144039 -0.255054,0.301792 -0.35967,0.503843 -0.104616,0.202055 -0.174241,0.494769 -0.06046,0.769464 0.113782,0.274693 0.369163,0.43288 0.58601,0.501777 0.21685,0.0689 0.425106,0.08433 0.611333,0.101804 0.186227,0.01746 0.35106,0.03681 0.443384,0.06615 0.09232,0.02933 0.08231,0.03364 0.08785,0.04702 0.0055,0.01339 0.01508,0.0075 -0.02946,0.09354 -0.04454,0.08602 -0.148357,0.217688 -0.267684,0.361736 -0.119325,0.144039 -0.254535,0.301789 -0.359151,0.503843 -0.104616,0.202054 -0.17218,0.494763 -0.05839,0.769464 0.113781,0.274696 0.368646,0.432879 0.585493,0.501777 0.21685,0.0689 0.423553,0.08226 0.609783,0.09974 0.186227,0.01746 0.351057,0.03888 0.443383,0.06821 0.09232,0.02934 0.08386,0.03158 0.0894,0.04496 0.0055,0.01339 0.01355,0.0096 -0.03101,0.0956 -0.04454,0.08602 -0.146291,0.217697 -0.265615,0.361733 -0.119333,0.14404 -0.256604,0.299726 -0.36122,0.50178 -0.104616,0.202052 -0.172696,0.494766 -0.05891,0.769461 0.113784,0.274696 0.369162,0.43288 0.586012,0.501777 0.216848,0.0689 0.425098,0.08433 0.611333,0.101804 0.186227,0.01749 0.35106,0.03681 0.443384,0.06615 0.09233,0.02933 0.08231,0.03364 0.08785,0.04702 0.0055,0.01339 0.01355,0.008 -0.03101,0.09405 -0.04454,0.08602 -0.146291,0.217178 -0.265618,0.361219 -0.119324,0.14404 -0.25505,0.301792 -0.359667,0.503844 -0.104616,0.202054 -0.174241,0.494768 -0.06046,0.769464 0.113784,0.274693 0.369162,0.432879 0.586012,0.501777 0.216847,0.0689 0.425104,0.08226 0.611331,0.09974 0.186225,0.01746 0.351053,0.03888 0.443385,0.06821 0.09232,0.02933 0.08231,0.03158 0.08785,0.04496 0.0055,0.01339 0.01508,0.01011 -0.02946,0.09612 -0.04454,0.08603 -0.146291,0.217181 -0.265618,0.361217 -0.119324,0.144047 -0.2566,0.299726 -0.361216,0.50178 -0.104619,0.202054 -0.172183,0.494765 -0.0584,0.769461 0.113784,0.274696 0.369164,0.433396 0.586011,0.502296 0.216848,0.0689 0.423037,0.08381 0.609264,0.101285 0.186227,0.01746 0.35106,0.03732 0.443384,0.06666 0.09232,0.02933 0.08438,0.03312 0.08992,0.04651 0.04366,0.105397 -0.0058,0.300225 -0.127124,0.61133 -0.121399,0.311105 -0.315918,0.738468 -0.120922,1.209231 0.181006,0.436988 0.44124,0.728374 0.612365,0.89245 l -1.681033,0.695566 c -0.332824,0.138022 -0.327892,0.611076 0.0078,0.742074 l 2.920235,1.146183 c 0.200618,0.07908 0.427805,-0.01511 0.513665,-0.212908 L 40.873,64.013648 c 0.11698,-0.266951 -0.08169,-0.56552 -0.373105,-0.560689 -0.05036,0.0011 -0.09982,0.01199 -0.146243,0.03152 l -1.718241,0.711068 a 0.40042018,0.40042018 0 0 0 -0.133326,-0.170016 c 0,0 -0.320374,-0.235818 -0.515732,-0.707451 -0.04366,-0.105397 0.0058,-0.300226 0.127125,-0.611333 0.121399,-0.311105 0.313851,-0.73795 0.118856,-1.208712 -0.113781,-0.274696 -0.369163,-0.43288 -0.58601,-0.501777 -0.21685,-0.0689 -0.423037,-0.08433 -0.609266,-0.101804 -0.186227,-0.01746 -0.351058,-0.0368 -0.443384,-0.06615 -0.09233,-0.02933 -0.08438,-0.03364 -0.08992,-0.04702 -0.0055,-0.01339 -0.01302,-0.008 0.03152,-0.09405 0.04454,-0.08603 0.14629,-0.217178 0.265615,-0.361217 0.119327,-0.144042 0.256603,-0.301794 0.36122,-0.503846 0.104616,-0.202054 0.17218,-0.494765 0.05839,-0.769461 -0.113781,-0.274696 -0.368647,-0.432882 -0.585494,-0.50178 -0.21685,-0.0689 -0.425106,-0.08226 -0.611333,-0.09973 -0.186226,-0.01746 -0.351058,-0.03888 -0.443382,-0.06821 -0.09232,-0.02933 -0.08231,-0.03158 -0.08785,-0.04496 -0.0055,-0.01339 -0.01561,-0.0096 0.02894,-0.0956 0.04454,-0.08603 0.148357,-0.217696 0.267682,-0.361735 0.119332,-0.144039 0.254533,-0.299726 0.359152,-0.50178 0.104616,-0.202052 0.172696,-0.494765 0.05891,-0.769461 -0.113782,-0.274696 -0.367095,-0.433396 -0.583943,-0.502296 -0.216847,-0.0689 -0.425098,-0.08381 -0.611333,-0.101285 -0.186227,-0.01746 -0.351057,-0.03732 -0.443383,-0.06666 -0.09232,-0.02933 -0.08438,-0.03313 -0.08992,-0.04651 -0.0055,-0.01339 -0.01355,-0.008 0.03101,-0.09405 0.04454,-0.08602 0.146289,-0.21718 0.265616,-0.361219 0.119327,-0.144037 0.257119,-0.301792 0.361735,-0.503844 0.104617,-0.202054 0.172181,-0.494768 0.05839,-0.769464 -0.113768,-0.27469 -0.369163,-0.432876 -0.58601,-0.501777 -0.216847,-0.0689 -0.423037,-0.08226 -0.609264,-0.09973 -0.186229,-0.01746 -0.351054,-0.0394 -0.443386,-0.06873 -0.09233,-0.02933 -0.08438,-0.03106 -0.08992,-0.04444 -0.0055,-0.01339 -0.01302,-0.01011 0.03152,-0.09612 0.04454,-0.08603 0.146291,-0.217178 0.265618,-0.361217 0.119325,-0.144042 0.254535,-0.299725 0.359151,-0.50178 0.104616,-0.202052 0.174241,-0.494765 0.06046,-0.769461 -0.113784,-0.274696 -0.369163,-0.433398 -0.586013,-0.502296 -0.216847,-0.0689 -0.425103,-0.08381 -0.61133,-0.101285 -0.186235,-0.01746 -0.350547,-0.03732 -0.442868,-0.06666 -0.09232,-0.02933 -0.08283,-0.03313 -0.08837,-0.04651 -0.0055,-0.01339 -0.01508,-0.008 0.02946,-0.09405 0.04454,-0.08602 0.146291,-0.217181 0.265618,-0.36122 0.119325,-0.144039 0.256601,-0.301792 0.361217,-0.503846 0.104616,-0.202052 0.172696,-0.494766 0.05891,-0.769462 -0.113784,-0.274695 -0.369162,-0.433395 -0.586012,-0.502295 -0.216847,-0.0689 -0.423037,-0.08381 -0.609264,-0.101285 -0.186227,-0.01746 -0.35106,-0.03732 -0.443384,-0.06666 -0.09232,-0.02933 -0.08438,-0.03158 -0.08992,-0.04496 A 0.40004,0.40004 0 0 0 31.06634,48.308676 Z m -1.226283,0.127124 a 0.40004,0.40004 0 0 0 -0.394809,0.406178 c 3e-6,0.170648 -0.05559,0.211717 -0.220657,0.38654 -0.165066,0.174821 -0.439251,0.482362 -0.439251,0.935342 0,0.297331 0.173292,0.543242 0.347266,0.68988 0.173977,0.146645 0.362251,0.238667 0.527616,0.32608 0.165365,0.08741 0.308851,0.170111 0.382924,0.232542 0.07407,0.06243 0.06408,0.06148 0.06408,0.07597 0,0.0145 0.01,0.01355 -0.06408,0.07597 -0.07407,0.06243 -0.217559,0.143068 -0.382924,0.230478 -0.165365,0.08741 -0.353639,0.181507 -0.527616,0.328144 -0.173974,0.146638 -0.347263,0.390486 -0.347266,0.687814 0,0.297328 0.173292,0.540657 0.347266,0.687297 0.173977,0.146638 0.362251,0.240734 0.527616,0.328144 0.165365,0.08741 0.308851,0.168045 0.382924,0.230476 0.07407,0.06243 0.06408,0.06149 0.06408,0.07597 0,0.0145 0.01,0.01611 -0.06408,0.07855 -0.07407,0.06243 -0.217559,0.143066 -0.382924,0.230476 -0.165365,0.08741 -0.353639,0.181507 -0.527616,0.328147 -0.173974,0.146638 -0.347266,0.389967 -0.347266,0.687295 3e-6,0.297328 0.173292,0.54066 0.347266,0.687298 0.173977,0.146637 0.362251,0.240733 0.527616,0.328144 0.165365,0.08741 0.308851,0.168047 0.382924,0.230478 0.07407,0.06243 0.06408,0.06199 0.06408,0.07648 0,0.0145 0.01,0.01352 -0.06408,0.07596 -0.07407,0.06243 -0.217559,0.145132 -0.382924,0.232543 -0.165365,0.08742 -0.353639,0.17944 -0.527616,0.32608 -0.173974,0.146637 -0.347266,0.389967 -0.347266,0.687295 0,0.297331 0.173292,0.543242 0.347266,0.68988 0.173977,0.146645 0.362251,0.238667 0.527616,0.32608 0.165365,0.08741 0.308851,0.169596 0.382924,0.232027 0.07407,0.06243 0.06408,0.062 0.06408,0.07648 0,0.0145 0.01,0.01355 -0.06408,0.07597 -0.07407,0.06243 -0.217559,0.143068 -0.382924,0.230478 -0.165365,0.08741 -0.353639,0.181507 -0.527616,0.328144 -0.173974,0.146638 -0.347263,0.390486 -0.347266,0.687814 0,0.297328 0.173292,0.540657 0.347266,0.687297 0.173977,0.146638 0.362251,0.240734 0.527616,0.328145 0.165365,0.08741 0.308851,0.168044 0.382924,0.230475 0.07407,0.06243 0.06408,0.06149 0.06408,0.07597 0,0.0145 0.01,0.01611 -0.06408,0.07855 -0.07407,0.06243 -0.217559,0.143065 -0.382924,0.230475 -0.165365,0.08741 -0.353639,0.180991 -0.527616,0.327629 -0.173974,0.14664 -0.347266,0.390485 -0.347266,0.687813 3e-6,0.509551 0.342916,0.829252 0.574125,1.070219 0.231211,0.240969 0.349335,0.403717 0.349335,0.5178 0,0.510489 -0.20464,0.849558 -0.20464,0.849558 a 0.40011562,0.40011562 0 0 0 -0.05788,0.206706 h -1.860349 c -0.3615,-0.0011 -0.539036,0.440314 -0.277503,0.68988 l 2.259812,2.175579 c 0.154879,0.148997 0.400124,0.148997 0.555003,0 l 2.257745,-2.175579 c 0.261533,-0.249563 0.084,-0.690938 -0.277503,-0.68988 h -1.816944 c 0.09505,-0.21703 0.223242,-0.584552 0.223242,-1.056264 0,-0.509551 -0.342913,-0.831318 -0.574124,-1.072288 -0.231212,-0.240966 -0.351399,-0.401648 -0.351402,-0.515731 0,-0.0145 -0.01,-0.01405 0.06408,-0.07648 0.07407,-0.06243 0.219625,-0.144616 0.38499,-0.232027 0.165364,-0.08741 0.351057,-0.179435 0.525031,-0.32608 0.173977,-0.146637 0.349851,-0.392549 0.349851,-0.68988 0,-0.297328 -0.175874,-0.540658 -0.349851,-0.687295 -0.173974,-0.14664 -0.359667,-0.238662 -0.525031,-0.32608 -0.165365,-0.08741 -0.31092,-0.170112 -0.38499,-0.232543 -0.07407,-0.06243 -0.06408,-0.06148 -0.06408,-0.07596 0,-0.0145 -0.01,-0.01405 0.06408,-0.07648 0.07407,-0.06243 0.219625,-0.143068 0.38499,-0.230478 0.165364,-0.08741 0.351057,-0.181507 0.525031,-0.328144 0.173977,-0.146638 0.349851,-0.38997 0.349851,-0.687298 0,-0.297328 -0.175874,-0.540657 -0.349851,-0.687295 -0.173974,-0.14664 -0.359667,-0.240734 -0.525031,-0.328147 -0.165365,-0.08741 -0.31092,-0.168044 -0.38499,-0.230476 -0.07407,-0.06243 -0.06408,-0.06406 -0.06408,-0.07855 0,-0.0145 -0.01,-0.01355 0.06408,-0.07597 0.07407,-0.06243 0.219625,-0.143065 0.38499,-0.230475 0.165364,-0.08741 0.351057,-0.181507 0.525031,-0.328145 0.173977,-0.14664 0.349851,-0.389969 0.349851,-0.687297 0,-0.297328 -0.175874,-0.541176 -0.349851,-0.687814 -0.173974,-0.146637 -0.359667,-0.240736 -0.525031,-0.328144 -0.165365,-0.08741 -0.31092,-0.168047 -0.38499,-0.230478 -0.07407,-0.06243 -0.06408,-0.06147 -0.06408,-0.07597 0,-0.0145 -0.01,-0.01355 0.06408,-0.07596 0.07407,-0.06243 0.219625,-0.145132 0.38499,-0.232543 0.165364,-0.08741 0.351057,-0.179435 0.525031,-0.32608 0.173977,-0.146638 0.349851,-0.392549 0.349851,-0.68988 0,-0.297328 -0.175874,-0.540658 -0.349851,-0.687295 -0.173974,-0.14664 -0.359667,-0.238662 -0.525031,-0.32608 -0.165365,-0.08741 -0.31092,-0.170112 -0.38499,-0.232543 -0.07407,-0.06243 -0.06408,-0.06148 -0.06408,-0.07596 0,-0.0145 -0.01,-0.01405 0.06408,-0.07648 0.07407,-0.06243 0.219625,-0.143068 0.38499,-0.230478 0.165364,-0.08741 0.351057,-0.181507 0.525031,-0.328144 0.173977,-0.146638 0.349851,-0.38997 0.349851,-0.687298 0,-0.297328 -0.175874,-0.540658 -0.349851,-0.687295 -0.173974,-0.14664 -0.359667,-0.240734 -0.525031,-0.328147 -0.165365,-0.08741 -0.31092,-0.168045 -0.38499,-0.230476 -0.07407,-0.06243 -0.06408,-0.06406 -0.06408,-0.07855 0,-0.170648 0.05714,-0.211717 0.222211,-0.386538 0.165063,-0.174823 0.437697,-0.482364 0.437697,-0.935344 A 0.40004,0.40004 0 0 0 29.84004,48.435806 Z"
     id="path1090-3" />
</svg>
