<?xml version="1.0" encoding="UTF-8" standalone="no"?>
<svg
   width="2.3499999in"
   height="4in"
   viewBox="0 0 59.689999 101.6"
   version="1.1"
   id="svg853"
   xmlns="http://www.w3.org/2000/svg"
   xmlns:svg="http://www.w3.org/2000/svg"
   xmlns:rdf="http://www.w3.org/1999/02/22-rdf-syntax-ns#"
   xmlns:cc="http://creativecommons.org/ns#"
   xmlns:dc="http://purl.org/dc/elements/1.1/">
  <defs
     id="defs847" />
  <metadata
     id="metadata850">
    <rdf:RDF>
      <cc:Work
         rdf:about="">
        <dc:format>image/svg+xml</dc:format>
        <dc:type
           rdf:resource="http://purl.org/dc/dcmitype/StillImage" />
        <dc:title />
      </cc:Work>
    </rdf:RDF>
  </metadata>
  <g
     id="layer5"
     style="display:inline">
    <path
       style="display:inline;fill:none;stroke:#000000;stroke-width:0.254;stroke-miterlimit:4;stroke-dasharray:none"
       d="M 20.066,16.51 A 3.5559999,3.5559999 0 0 0 16.51,12.954 3.5559999,3.5559999 0 0 0 12.954,16.51 3.5559999,3.5559999 0 0 0 16.51,20.066 3.5559999,3.5559999 0 0 0 20.066,16.51 Z"
       id="circle4" />
    <path
       style="display:inline;fill:none;stroke:#000000;stroke-width:0.254;stroke-miterlimit:4;stroke-dasharray:none"
       d="m 46.735999,16.51 a 3.5559999,3.5559999 0 0 0 -3.556,-3.556 3.5559999,3.5559999 0 0 0 -3.556,3.556 3.5559999,3.5559999 0 0 0 3.556,3.556 3.5559999,3.5559999 0 0 0 3.556,-3.556 z"
       id="circle6" />
    <path
       style="display:inline;fill:none;stroke:#000000;stroke-width:0.254;stroke-miterlimit:4;stroke-dasharray:none"
       d="m 32.384999,73.024988 a 2.54,2.54 0 0 0 -2.54,-2.54 2.54,2.54 0 0 0 -2.54,2.54 2.54,2.54 0 0 0 2.54,2.54 2.54,2.54 0 0 0 2.54,-2.54 z"
       id="circle8" />
    <path
       style="color:#000000;clip-rule:nonzero;display:inline;overflow:visible;visibility:visible;opacity:1;isolation:auto;mix-blend-mode:normal;color-interpolation:sRGB;color-interpolation-filters:linearRGB;solid-color:#000000;solid-opacity:1;vector-effect:none;fill:none;fill-opacity:1;fill-rule:nonzero;stroke:#000000;stroke-width:0.254;stroke-linecap:butt;stroke-linejoin:miter;stroke-miterlimit:4;stroke-dasharray:none;stroke-dashoffset:0;stroke-opacity:1;marker:none;color-rendering:auto;image-rendering:auto;shape-rendering:auto;text-rendering:auto;enable-background:accumulate"
       d="m 29.210509,43.815002 a 2.54,2.54 0 0 1 -2.54,2.54 2.54,2.54 0 0 1 -2.54,-2.54 2.54,2.54 0 0 1 2.54,-2.54 2.54,2.54 0 0 1 2.54,2.54 z"
       id="path6109-9" />
    <path
       style="color:#000000;clip-rule:nonzero;display:inline;overflow:visible;visibility:visible;opacity:1;isolation:auto;mix-blend-mode:normal;color-interpolation:sRGB;color-interpolation-filters:linearRGB;solid-color:#000000;solid-opacity:1;vector-effect:none;fill:none;fill-opacity:1;fill-rule:nonzero;stroke:#000000;stroke-width:0.254;stroke-linecap:butt;stroke-linejoin:miter;stroke-miterlimit:4;stroke-dasharray:none;stroke-dashoffset:0;stroke-opacity:1;marker:none;color-rendering:auto;image-rendering:auto;shape-rendering:auto;text-rendering:auto;enable-background:accumulate"
       d="m 35.559493,43.815002 a 2.54,2.54 0 0 1 -2.54,2.54 2.54,2.54 0 0 1 -2.54,-2.54 2.54,2.54 0 0 1 2.54,-2.54 2.54,2.54 0 0 1 2.54,2.54 z"
       id="circle6111-7" />
  </g>
</svg>
