<?xml version="1.0" encoding="UTF-8" standalone="no"?>
<svg
   xmlns:dc="http://purl.org/dc/elements/1.1/"
   xmlns:cc="http://creativecommons.org/ns#"
   xmlns:rdf="http://www.w3.org/1999/02/22-rdf-syntax-ns#"
   xmlns:svg="http://www.w3.org/2000/svg"
   xmlns="http://www.w3.org/2000/svg"
   width="2.3499999in"
   height="4in"
   viewBox="0 0 59.689999 101.6"
   version="1.1"
   id="svg853">
  <defs
     id="defs847">
    <marker
       orient="auto"
       refY="0.0"
       refX="0.0"
       id="Arrow1Lstart"
       style="overflow:visible">
      <path
         id="path1297"
         d="M 0.0,0.0 L 5.0,-5.0 L -12.5,0.0 L 5.0,5.0 L 0.0,0.0 z "
         style="fill-rule:evenodd;stroke:#000000;stroke-width:1pt;stroke-opacity:1;fill:#000000;fill-opacity:1"
         transform="scale(0.8) translate(12.5,0)" />
    </marker>
  </defs>
  <metadata
     id="metadata850">
    <rdf:RDF>
      <cc:Work
         rdf:about="">
        <dc:format>image/svg+xml</dc:format>
        <dc:type
           rdf:resource="http://purl.org/dc/dcmitype/StillImage" />
        <dc:title></dc:title>
      </cc:Work>
    </rdf:RDF>
  </metadata>
  <path
     style="display:inline;fill:none;stroke:#000000;stroke-width:0.254;stroke-miterlimit:4;stroke-dasharray:none"
     d="m 20.066,16.510001 a 3.5559998,3.5559998 0 0 0 -3.556,-3.556 3.5559998,3.5559998 0 0 0 -3.556,3.556 3.5559998,3.5559998 0 0 0 3.556,3.556 3.5559998,3.5559998 0 0 0 3.556,-3.556 z"
     id="circle4" />
  <path
     style="display:inline;fill:none;stroke:#000000;stroke-width:0.254;stroke-miterlimit:4;stroke-dasharray:none"
     d="m 46.735998,16.510001 a 3.5559998,3.5559998 0 0 0 -3.556,-3.556 3.5559998,3.5559998 0 0 0 -3.556,3.556 3.5559998,3.5559998 0 0 0 3.556,3.556 3.5559998,3.5559998 0 0 0 3.556,-3.556 z"
     id="circle6" />
  <path
     style="display:inline;fill:none;stroke:#000000;stroke-width:0.254;stroke-miterlimit:4;stroke-dasharray:none"
     d="m 32.384999,73.024988 a 2.54,2.54 0 0 0 -2.54,-2.54 2.54,2.54 0 0 0 -2.54,2.54 2.54,2.54 0 0 0 2.54,2.540001 2.54,2.54 0 0 0 2.54,-2.540001 z"
     id="circle8" />
  <path
     style="color:#000000;clip-rule:nonzero;display:inline;overflow:visible;visibility:visible;opacity:1;isolation:auto;mix-blend-mode:normal;color-interpolation:sRGB;color-interpolation-filters:linearRGB;solid-color:#000000;solid-opacity:1;vector-effect:none;fill:none;fill-opacity:1;fill-rule:nonzero;stroke:#000000;stroke-width:0.254;stroke-linecap:butt;stroke-linejoin:miter;stroke-miterlimit:4;stroke-dasharray:none;stroke-dashoffset:0;stroke-opacity:1;marker:none;color-rendering:auto;image-rendering:auto;shape-rendering:auto;text-rendering:auto;enable-background:accumulate"
     d="m 29.210509,43.815004 a 2.54,2.54 0 0 1 -2.54,2.54 2.54,2.54 0 0 1 -2.54,-2.54 2.54,2.54 0 0 1 2.54,-2.54 2.54,2.54 0 0 1 2.54,2.54 z"
     id="path6109-9" />
  <path
     style="color:#000000;clip-rule:nonzero;display:inline;overflow:visible;visibility:visible;opacity:1;isolation:auto;mix-blend-mode:normal;color-interpolation:sRGB;color-interpolation-filters:linearRGB;solid-color:#000000;solid-opacity:1;vector-effect:none;fill:none;fill-opacity:1;fill-rule:nonzero;stroke:#000000;stroke-width:0.254;stroke-linecap:butt;stroke-linejoin:miter;stroke-miterlimit:4;stroke-dasharray:none;stroke-dashoffset:0;stroke-opacity:1;marker:none;color-rendering:auto;image-rendering:auto;shape-rendering:auto;text-rendering:auto;enable-background:accumulate"
     d="m 35.559493,43.815004 a 2.54,2.54 0 0 1 -2.54,2.54 2.54,2.54 0 0 1 -2.54,-2.54 2.54,2.54 0 0 1 2.54,-2.54 2.54,2.54 0 0 1 2.54,2.54 z"
     id="circle6111-7" />
</svg>
