<?xml version="1.0" encoding="UTF-8" standalone="no"?>
<svg
   id="svg853"
   version="1.1"
   viewBox="0 0 59.689999 101.6"
   height="4in"
   width="2.3499999in"
   xmlns:xlink="http://www.w3.org/1999/xlink"
   xmlns="http://www.w3.org/2000/svg"
   xmlns:svg="http://www.w3.org/2000/svg"
   xmlns:rdf="http://www.w3.org/1999/02/22-rdf-syntax-ns#"
   xmlns:cc="http://creativecommons.org/ns#"
   xmlns:dc="http://purl.org/dc/elements/1.1/">
  <defs
     id="defs847" />
  <metadata
     id="metadata850">
    <rdf:RDF>
      <cc:Work
         rdf:about="">
        <dc:format>image/svg+xml</dc:format>
        <dc:type
           rdf:resource="http://purl.org/dc/dcmitype/StillImage" />
        <dc:title />
      </cc:Work>
    </rdf:RDF>
  </metadata>
  <g
     id="layer1"
     transform="translate(0,-195.4)"
     style="display:inline">
    <path
       xlink:href="#Sketch_w0000"
       style="fill:none;fill-rule:evenodd;stroke:#000000;stroke-width:0.254;stroke-miterlimit:4;stroke-dasharray:0.254, 0.762;stroke-dashoffset:2.54"
       id="path862"
       d="m 6.3496094,196.66797 c -1.3303366,8e-5 -2.6530601,0.54759 -3.59375,1.48828 -0.94069,0.94069 -1.4881996,2.26341 -1.4882813,3.59375 v 88.90039 c 8.17e-5,1.33034 0.5475913,2.65306 1.4882813,3.59375 0.9406899,0.94069 2.2634134,1.4882 3.59375,1.48828 H 53.339844 c 1.330336,-8e-5 2.65306,-0.54759 3.59375,-1.48828 0.94069,-0.94069 1.488199,-2.26341 1.488281,-3.59375 V 201.75 c -8.2e-5,-1.33034 -0.547591,-2.65306 -1.488281,-3.59375 -0.94069,-0.94069 -2.263414,-1.4882 -3.59375,-1.48828 z" />
    <path
       style="fill:none;fill-rule:evenodd;stroke:#000000;stroke-width:0.254;stroke-miterlimit:4;stroke-dasharray:0.508, 0.254;stroke-dashoffset:2.54"
       d="m -4.031e-7,290.65 v -88.9 A 6.3499999,6.3499999 0 0 1 6.3499995,195.4 H 53.339999 a 6.3499999,6.3499999 0 0 1 6.349999,6.35 v 88.9 A 6.3499999,6.3499999 0 0 1 53.339999,297 H 6.3499995 A 6.3499999,6.3499999 0 0 1 -4.031e-7,290.65"
       id="Sketch_w0000" />
    <circle
       style="color:#000000;clip-rule:nonzero;display:inline;overflow:visible;visibility:visible;opacity:1;isolation:auto;mix-blend-mode:normal;color-interpolation:sRGB;color-interpolation-filters:linearRGB;solid-color:#000000;solid-opacity:1;vector-effect:none;fill:none;fill-opacity:1;fill-rule:nonzero;stroke:#000000;stroke-width:0.254;stroke-linecap:butt;stroke-linejoin:miter;stroke-miterlimit:4;stroke-dasharray:0.508, 0.254;stroke-dashoffset:2.54;stroke-opacity:1;marker:none;color-rendering:auto;image-rendering:auto;shape-rendering:auto;text-rendering:auto;enable-background:accumulate"
       id="path867"
       cx="29.845022"
       cy="223.99052"
       r="9" />
    <path
       style="font-variation-settings:normal;display:inline;vector-effect:none;fill:none;fill-opacity:1;stroke:#000000;stroke-width:0.254;stroke-linecap:butt;stroke-linejoin:miter;stroke-miterlimit:4;stroke-dasharray:0.508, 0.254;stroke-dashoffset:2.54;stroke-opacity:1;marker:none;stop-color:#000000"
       d="m 36.194999,280.48999 a 6.3499999,6.3499999 0 0 0 -6.35,-6.35 6.3499999,6.3499999 0 0 0 -6.35,6.35 6.3499999,6.3499999 0 0 0 6.35,6.35 6.3499999,6.3499999 0 0 0 6.35,-6.35 z"
       id="circle2" />
  </g>
  <g
     id="layer5"
     style="display:inline">
    <path
       style="display:inline;fill:none;stroke:#000000;stroke-width:0.254;stroke-miterlimit:4;stroke-dasharray:none"
       d="m 33.401,28.59 a 3.5559999,3.5559999 0 0 0 -3.556,-3.556 3.5559999,3.5559999 0 0 0 -3.556,3.556 3.5559999,3.5559999 0 0 0 3.556,3.556 3.5559999,3.5559999 0 0 0 3.556,-3.556 z"
       id="circle4" />
    <path
       style="display:inline;fill:none;stroke:#000000;stroke-width:0.254;stroke-miterlimit:4;stroke-dasharray:none"
       d="m 32.384999,73.024988 a 2.54,2.54 0 0 0 -2.54,-2.54 2.54,2.54 0 0 0 -2.54,2.54 2.54,2.54 0 0 0 2.54,2.54 2.54,2.54 0 0 0 2.54,-2.54 z"
       id="circle8" />
  </g>
  <g
     transform="translate(0,-195.4)"
     id="g852"
     style="display:none">
    <path
       d="m 6.3496094,196.66797 c -1.3303366,8e-5 -2.6530601,0.54759 -3.59375,1.48828 -0.94069,0.94069 -1.4881996,2.26341 -1.4882813,3.59375 v 88.90039 c 8.17e-5,1.33034 0.5475913,2.65306 1.4882813,3.59375 0.9406899,0.94069 2.2634134,1.4882 3.59375,1.48828 H 53.339844 c 1.330336,-8e-5 2.65306,-0.54759 3.59375,-1.48828 0.94069,-0.94069 1.488199,-2.26341 1.488281,-3.59375 V 201.75 c -8.2e-5,-1.33034 -0.547591,-2.65306 -1.488281,-3.59375 -0.94069,-0.94069 -2.263414,-1.4882 -3.59375,-1.48828 z"
       id="path844"
       style="fill:none;fill-rule:evenodd;stroke:#000000;stroke-width:0.254;stroke-miterlimit:4;stroke-dasharray:0.254, 0.762;stroke-dashoffset:2.54"
       xlink:href="#Sketch_w0000" />
    <path
       id="path846"
       d="m -4.031e-7,290.65 v -88.9 A 6.3499999,6.3499999 0 0 1 6.3499995,195.4 H 53.339999 a 6.3499999,6.3499999 0 0 1 6.349999,6.35 v 88.9 A 6.3499999,6.3499999 0 0 1 53.339999,297 H 6.3499995 A 6.3499999,6.3499999 0 0 1 -4.031e-7,290.65"
       style="fill:none;fill-rule:evenodd;stroke:#000000;stroke-width:0.254;stroke-miterlimit:4;stroke-dasharray:0.508, 0.254;stroke-dashoffset:2.54" />
    <circle
       style="color:#000000;clip-rule:nonzero;display:inline;overflow:visible;visibility:visible;opacity:1;isolation:auto;mix-blend-mode:normal;color-interpolation:sRGB;color-interpolation-filters:linearRGB;solid-color:#000000;solid-opacity:1;vector-effect:none;fill:none;fill-opacity:1;fill-rule:nonzero;stroke:#000000;stroke-width:0.254;stroke-linecap:butt;stroke-linejoin:miter;stroke-miterlimit:4;stroke-dasharray:0.508, 0.254;stroke-dashoffset:2.54;stroke-opacity:1;marker:none;color-rendering:auto;image-rendering:auto;shape-rendering:auto;text-rendering:auto;enable-background:accumulate"
       id="path845"
       cx="5.7149973"
       cy="201.11497"
       r="3.0480001" />
    <circle
       r="3.0480001"
       cy="201.11497"
       cx="53.975006"
       id="circle847"
       style="color:#000000;clip-rule:nonzero;display:inline;overflow:visible;visibility:visible;opacity:1;isolation:auto;mix-blend-mode:normal;color-interpolation:sRGB;color-interpolation-filters:linearRGB;solid-color:#000000;solid-opacity:1;vector-effect:none;fill:none;fill-opacity:1;fill-rule:nonzero;stroke:#000000;stroke-width:0.254;stroke-linecap:butt;stroke-linejoin:miter;stroke-miterlimit:4;stroke-dasharray:0.508, 0.254;stroke-dashoffset:2.54;stroke-opacity:1;marker:none;color-rendering:auto;image-rendering:auto;shape-rendering:auto;text-rendering:auto;enable-background:accumulate" />
    <circle
       style="color:#000000;clip-rule:nonzero;display:inline;overflow:visible;visibility:visible;opacity:1;isolation:auto;mix-blend-mode:normal;color-interpolation:sRGB;color-interpolation-filters:linearRGB;solid-color:#000000;solid-opacity:1;vector-effect:none;fill:none;fill-opacity:1;fill-rule:nonzero;stroke:#000000;stroke-width:0.254;stroke-linecap:butt;stroke-linejoin:miter;stroke-miterlimit:4;stroke-dasharray:0.508, 0.254;stroke-dashoffset:2.54;stroke-opacity:1;marker:none;color-rendering:auto;image-rendering:auto;shape-rendering:auto;text-rendering:auto;enable-background:accumulate"
       id="circle849"
       cx="5.7149973"
       cy="291.28503"
       r="3.0480001" />
    <circle
       r="3.0480001"
       cy="291.28503"
       cx="53.975006"
       id="circle851"
       style="color:#000000;clip-rule:nonzero;display:inline;overflow:visible;visibility:visible;opacity:1;isolation:auto;mix-blend-mode:normal;color-interpolation:sRGB;color-interpolation-filters:linearRGB;solid-color:#000000;solid-opacity:1;vector-effect:none;fill:none;fill-opacity:1;fill-rule:nonzero;stroke:#000000;stroke-width:0.254;stroke-linecap:butt;stroke-linejoin:miter;stroke-miterlimit:4;stroke-dasharray:0.508, 0.254;stroke-dashoffset:2.54;stroke-opacity:1;marker:none;color-rendering:auto;image-rendering:auto;shape-rendering:auto;text-rendering:auto;enable-background:accumulate" />
    <circle
       style="color:#000000;clip-rule:nonzero;display:inline;overflow:visible;visibility:visible;opacity:1;isolation:auto;mix-blend-mode:normal;color-interpolation:sRGB;color-interpolation-filters:linearRGB;solid-color:#000000;solid-opacity:1;vector-effect:none;fill:none;fill-opacity:1;fill-rule:nonzero;stroke:#000000;stroke-width:0.254;stroke-linecap:butt;stroke-linejoin:miter;stroke-miterlimit:4;stroke-dasharray:0.508, 0.254;stroke-dashoffset:2.54;stroke-opacity:1;marker:none;color-rendering:auto;image-rendering:auto;shape-rendering:auto;text-rendering:auto;enable-background:accumulate"
       id="circle853"
       cx="54.610001"
       cy="248.10498"
       r="3.0480001" />
    <circle
       r="3.0480001"
       cy="248.10498"
       cx="5.079999"
       id="circle855"
       style="color:#000000;clip-rule:nonzero;display:inline;overflow:visible;visibility:visible;opacity:1;isolation:auto;mix-blend-mode:normal;color-interpolation:sRGB;color-interpolation-filters:linearRGB;solid-color:#000000;solid-opacity:1;vector-effect:none;fill:none;fill-opacity:1;fill-rule:nonzero;stroke:#000000;stroke-width:0.254;stroke-linecap:butt;stroke-linejoin:miter;stroke-miterlimit:4;stroke-dasharray:0.508, 0.254;stroke-dashoffset:2.54;stroke-opacity:1;marker:none;color-rendering:auto;image-rendering:auto;shape-rendering:auto;text-rendering:auto;enable-background:accumulate" />
  </g>
  <g
     id="layer2"
     style="display:none">
    <text
       xml:space="preserve"
       style="color:#000000;font-style:normal;font-variant:normal;font-weight:normal;font-stretch:normal;font-size:8.46667px;line-height:1;font-family:OCRA;-inkscape-font-specification:'OCRA, Normal';font-variant-ligatures:normal;font-variant-caps:normal;font-variant-numeric:normal;font-feature-settings:normal;text-indent:0;text-align:center;text-decoration:none;text-decoration-line:none;text-decoration-style:solid;text-decoration-color:#000000;letter-spacing:0px;word-spacing:0px;text-transform:none;writing-mode:lr-tb;direction:ltr;baseline-shift:baseline;text-anchor:middle;white-space:normal;clip-rule:nonzero;display:inline;overflow:visible;visibility:visible;opacity:1;isolation:auto;mix-blend-mode:normal;color-interpolation:sRGB;color-interpolation-filters:linearRGB;solid-color:#000000;solid-opacity:1;fill:#000000;fill-opacity:1;fill-rule:nonzero;stroke:none;stroke-width:0.264583px;stroke-linecap:butt;stroke-linejoin:miter;stroke-miterlimit:4;stroke-dasharray:none;stroke-dashoffset:0;stroke-opacity:1;color-rendering:auto;image-rendering:auto;shape-rendering:auto;text-rendering:auto;enable-background:accumulate"
       x="29.8351"
       y="72.829346"
       id="text6956"><tspan
         x="29.835098"
         y="72.829346"
         style="font-style:normal;font-variant:normal;font-weight:normal;font-stretch:normal;font-size:19.7556px;line-height:1;font-family:OCRA;-inkscape-font-specification:'OCRA, Normal';font-variant-ligatures:normal;font-variant-caps:normal;font-variant-numeric:normal;font-feature-settings:normal;text-align:center;writing-mode:lr-tb;text-anchor:middle;stroke-width:0.264583px"
         id="tspan951">NFX</tspan><tspan
         x="29.835098"
         y="92.584946"
         style="font-style:normal;font-variant:normal;font-weight:normal;font-stretch:normal;font-size:19.7556px;line-height:1;font-family:OCRA;-inkscape-font-specification:'OCRA, Normal';font-variant-ligatures:normal;font-variant-caps:normal;font-variant-numeric:normal;font-feature-settings:normal;text-align:center;writing-mode:lr-tb;text-anchor:middle;stroke-width:0.264583px"
         id="tspan907">005</tspan></text>
    <g
       id="g1200">
      <path
         style="color:#000000;display:inline;overflow:visible;visibility:visible;fill:#ffffff;fill-opacity:0;fill-rule:nonzero;stroke:#000000;stroke-width:1.07079;stroke-linecap:butt;stroke-linejoin:miter;stroke-miterlimit:4;stroke-dasharray:none;stroke-dashoffset:0;stroke-opacity:1;marker:none;enable-background:accumulate"
         d="m 15.933137,39.591263 c 0,2.962845 -2.401877,5.364726 -5.364744,5.364726 -2.9628875,0 -5.3647649,-2.401881 -5.3647649,-5.364726 0,-2.962901 2.4018774,-5.364785 5.3647649,-5.364785 2.962867,0 5.364744,2.401884 5.364744,5.364785 z"
         id="path4101" />
      <path
         id="path4874"
         d="m 15.933137,39.591256 8.332708,7e-6"
         style="fill:none;stroke:#000000;stroke-width:1.07079;stroke-linecap:butt;stroke-linejoin:miter;stroke-miterlimit:4;stroke-dasharray:none;stroke-opacity:1" />
      <path
         id="path4876"
         d="m 33.661701,43.41408 c -2.111285,2.111315 -5.534379,2.111315 -7.645664,0 -2.111307,-2.111315 -2.111307,-5.534375 0,-7.64569 2.111285,-2.11126 5.534358,-2.11126 7.645664,0"
         style="color:#000000;display:inline;overflow:visible;visibility:visible;fill:#ffffff;fill-opacity:0;fill-rule:nonzero;stroke:#000000;stroke-width:1.0668;stroke-linecap:round;stroke-linejoin:miter;stroke-miterlimit:4;stroke-dasharray:none;stroke-dashoffset:0;stroke-opacity:1;marker:none;enable-background:accumulate" />
      <path
         id="path4878"
         d="m 31.814517,39.591263 c 0,1.13507 -0.920155,2.055218 -2.055219,2.055218 -1.135063,0 -2.055218,-0.920148 -2.055218,-2.055218 0,-1.13507 0.920155,-2.055219 2.055218,-2.055219 1.135064,0 2.055219,0.920149 2.055219,2.055219 z"
         style="color:#000000;display:inline;overflow:visible;visibility:visible;fill:#000000;fill-opacity:1;fill-rule:nonzero;stroke:#000000;stroke-width:1.07079;stroke-linecap:butt;stroke-linejoin:miter;stroke-miterlimit:4;stroke-dasharray:none;stroke-dashoffset:0;stroke-opacity:1;marker:none;enable-background:accumulate" />
      <path
         id="path4874-1"
         d="m 32.013642,39.591263 h 11.74323"
         style="fill:none;stroke:#000000;stroke-width:1.07079;stroke-linecap:butt;stroke-linejoin:miter;stroke-miterlimit:4;stroke-dasharray:none;stroke-opacity:1" />
      <path
         style="color:#000000;display:inline;overflow:visible;visibility:visible;fill:#ffffff;fill-opacity:0;fill-rule:nonzero;stroke:#000000;stroke-width:1.07079;stroke-linecap:butt;stroke-linejoin:miter;stroke-miterlimit:4;stroke-dasharray:none;stroke-dashoffset:0;stroke-opacity:1;marker:none;enable-background:accumulate"
         d="m 54.486381,39.591263 c 0,2.962845 -2.401877,5.364726 -5.364765,5.364726 -2.962867,0 -5.364744,-2.401881 -5.364744,-5.364726 0,-2.962901 2.401877,-5.364785 5.364744,-5.364785 2.962888,0 5.364765,2.401884 5.364765,5.364785 z"
         id="path4101-4" />
      <path
         d="m 7.355989,39.591235 c 0,0.361232 0.2838247,0.645057 0.6450465,0.645057 h 1.9093762 v 1.909368 c 0,0.361232 0.2967173,0.657958 0.6579603,0.657958 0.348351,0 0.645047,-0.296726 0.645047,-0.657958 v -1.909368 h 1.909376 c 0.361222,0 0.65796,-0.283825 0.65796,-0.645057 0,-0.361233 -0.296738,-0.657958 -0.65796,-0.657958 h -1.909376 v -1.909368 c 0,-0.348329 -0.296718,-0.645057 -0.645047,-0.645057 -0.361243,0 -0.6579603,0.296728 -0.6579603,0.645057 v 1.909368 H 8.0010355 c -0.3612218,0 -0.6450465,0.296725 -0.6450465,0.657958 z"
         style="color:#000000;font-style:normal;font-variant:normal;font-weight:normal;font-stretch:normal;font-size:8.46667px;line-height:6.61458px;font-family:OCRA;-inkscape-font-specification:OCRA;text-indent:0;text-align:center;text-decoration:none;text-decoration-line:none;text-decoration-style:solid;text-decoration-color:#000000;letter-spacing:0px;word-spacing:0px;text-transform:none;writing-mode:lr-tb;direction:ltr;baseline-shift:baseline;text-anchor:middle;white-space:normal;clip-rule:nonzero;visibility:visible;isolation:auto;mix-blend-mode:normal;color-interpolation:sRGB;color-interpolation-filters:linearRGB;solid-color:#000000;solid-opacity:1;fill:#000000;fill-opacity:1;fill-rule:nonzero;stroke:none;stroke-width:0.403161px;stroke-linecap:butt;stroke-linejoin:miter;stroke-miterlimit:4;stroke-dasharray:none;stroke-dashoffset:0;stroke-opacity:1;color-rendering:auto;image-rendering:auto;shape-rendering:auto;text-rendering:auto"
         id="path5707" />
      <path
         d="m 45.909233,39.862159 c 0,0.361232 0.283825,0.657958 0.645068,0.657958 h 5.121738 c 0.361243,0 0.65796,-0.296726 0.65796,-0.657958 v -0.541848 c 0,-0.361232 -0.296717,-0.657958 -0.65796,-0.657958 h -5.121738 c -0.361243,0 -0.645068,0.296726 -0.645068,0.657958 z"
         style="color:#000000;font-style:normal;font-variant:normal;font-weight:normal;font-stretch:normal;font-size:8.46667px;line-height:6.61458px;font-family:OCRA;-inkscape-font-specification:OCRA;text-indent:0;text-align:center;text-decoration:none;text-decoration-line:none;text-decoration-style:solid;text-decoration-color:#000000;letter-spacing:0px;word-spacing:0px;text-transform:none;writing-mode:lr-tb;direction:ltr;baseline-shift:baseline;text-anchor:middle;white-space:normal;clip-rule:nonzero;visibility:visible;isolation:auto;mix-blend-mode:normal;color-interpolation:sRGB;color-interpolation-filters:linearRGB;solid-color:#000000;solid-opacity:1;fill:#000000;fill-opacity:1;fill-rule:nonzero;stroke:none;stroke-width:0.403161px;stroke-linecap:butt;stroke-linejoin:miter;stroke-miterlimit:4;stroke-dasharray:none;stroke-dashoffset:0;stroke-opacity:1;color-rendering:auto;image-rendering:auto;shape-rendering:auto;text-rendering:auto"
         id="path5709" />
    </g>
    <text
       xml:space="preserve"
       style="color:#000000;font-style:normal;font-variant:normal;font-weight:normal;font-stretch:normal;font-size:8.46667px;line-height:1;font-family:OCRA;-inkscape-font-specification:'OCRA, Normal';font-variant-ligatures:normal;font-variant-caps:normal;font-variant-numeric:normal;font-feature-settings:normal;text-indent:0;text-align:center;text-decoration:none;text-decoration-line:none;text-decoration-style:solid;text-decoration-color:#000000;letter-spacing:0px;word-spacing:0px;text-transform:none;writing-mode:lr-tb;direction:ltr;baseline-shift:baseline;text-anchor:middle;white-space:normal;clip-rule:nonzero;display:inline;overflow:visible;visibility:visible;opacity:1;isolation:auto;mix-blend-mode:normal;color-interpolation:sRGB;color-interpolation-filters:linearRGB;solid-color:#000000;solid-opacity:1;fill:#000000;fill-opacity:1;fill-rule:nonzero;stroke:none;stroke-width:0.264583px;stroke-linecap:butt;stroke-linejoin:miter;stroke-miterlimit:4;stroke-dasharray:none;stroke-dashoffset:0;stroke-opacity:1;color-rendering:auto;image-rendering:auto;shape-rendering:auto;text-rendering:auto;enable-background:accumulate"
       x="29.8351"
       y="29.91474"
       id="text6956-3"><tspan
         x="29.8351"
         y="29.91474"
         style="font-style:normal;font-variant:normal;font-weight:normal;font-stretch:normal;font-size:12.7px;line-height:1;font-family:OCRA;-inkscape-font-specification:'OCRA, Normal';font-variant-ligatures:normal;font-variant-caps:normal;font-variant-numeric:normal;font-feature-settings:normal;text-align:center;writing-mode:lr-tb;text-anchor:middle;stroke-width:0.264583px"
         id="tspan907-7">9VDC</tspan></text>
    <path
       id="path974"
       style="display:inline;opacity:1;vector-effect:none;fill:#ffffff;fill-opacity:0;fill-rule:evenodd;stroke:#000000;stroke-width:1.32364;stroke-linecap:round;stroke-linejoin:round;stroke-miterlimit:4;stroke-dasharray:none;stroke-dashoffset:0;stroke-opacity:1;marker:none"
       d="m 29.844981,3.5939769 -2.856064,3.7752564 m 2.856065,9.1098577 V 3.5939769 l 2.856065,3.7752564" />
  </g>
  <g
     id="layer3">
    <path
       id="path359"
       style="font-size:11.3895px;line-height:8.898px;font-family:'Noto Sans';-inkscape-font-specification:'Noto Sans, Normal';text-align:center;letter-spacing:0px;word-spacing:0px;baseline-shift:baseline;text-anchor:middle;display:inline;stroke-width:0.264583px"
       d="m 5.7070312,47.666016 c -0.1208875,-1.82e-4 -0.2189317,0.09786 -0.21875,0.21875 v 0.751953 c -1.817e-4,0.120887 0.097862,0.218932 0.21875,0.21875 H 11.46875 c 0.120887,1.82e-4 0.218932,-0.09786 0.21875,-0.21875 v -0.751953 c 1.82e-4,-0.120887 -0.09786,-0.218932 -0.21875,-0.21875 z m 42.5058598,0 c -0.120887,-1.82e-4 -0.218932,0.09786 -0.21875,0.21875 v 0.751953 c -1.82e-4,0.120887 0.09786,0.218932 0.21875,0.21875 h 5.761718 c 0.120887,1.82e-4 0.218932,-0.09786 0.21875,-0.21875 v -0.751953 c 1.82e-4,-0.120887 -0.09786,-0.218932 -0.21875,-0.21875 z m -19.419922,1.164062 -0.888672,0.533203 c -0.10268,0.06227 -0.135833,0.195752 -0.07422,0.298828 0.559926,0.943033 1.118359,1.990378 1.679688,3.142579 0.0554,0.113416 0.195114,0.156407 0.304687,0.09375 l 0.933594,-0.533204 c 0.1005,-0.05645 0.139829,-0.181289 0.08984,-0.285156 -0.536966,-1.10376 -1.119259,-2.162858 -1.746094,-3.177734 -0.06292,-0.101984 -0.196259,-0.134231 -0.298828,-0.07227 z m -17.244141,0.361893 c -0.152625,-3.43e-4 -0.258534,0.151965 -0.205078,0.294922 l 3.029297,8.13086 c 0.03176,0.08578 0.113608,0.142682 0.205078,0.142578 h 0.992187 c 0.152625,3.44e-4 0.258535,-0.151964 0.205079,-0.294922 l -3.041016,-8.13086 c -0.03176,-0.08578 -0.113608,-0.142681 -0.205078,-0.142578 z m 11.310547,-0.250565 c -0.06481,-1.66e-4 -0.126343,0.02846 -0.167969,0.07813 -0.594915,0.712333 -1.034792,1.516425 -1.316406,2.408203 -3e-6,6.67e-4 -3e-6,0.0013 0,0.002 -0.272326,0.879221 -0.408203,1.793034 -0.408203,2.740234 0,0.93978 0.135752,1.846908 0.408203,2.71875 6.62e-4,6.71e-4 0.0013,0.0013 0.002,0.002 0.282009,0.869526 0.720704,1.65399 1.316406,2.34375 0.04156,0.04842 0.102208,0.07625 0.166016,0.07617 h 0.933594 c 0.178807,-2.5e-4 0.281577,-0.203505 0.175781,-0.347656 -0.509756,-0.694449 -0.895793,-1.451208 -1.162109,-2.271485 -0.259359,-0.829948 -0.388672,-1.672396 -0.388672,-2.53125 0,-0.881543 0.129718,-1.73948 0.388672,-2.576172 v -0.002 c 0.266232,-0.835031 0.657014,-1.597008 1.173828,-2.291015 0.108473,-0.144393 0.0048,-0.350558 -0.175781,-0.34961 z m 13.017578,0 c -0.180596,-9.48e-4 -0.284254,0.205217 -0.175781,0.34961 0.516851,0.694056 0.903441,1.455888 1.162109,2.291015 -3e-6,6.67e-4 -3e-6,0.0013 0,0.002 0.266619,0.836891 0.400391,1.694651 0.400391,2.576172 0,0.858172 -0.131789,1.699722 -0.398438,2.529297 -6.67e-4,-3e-6 -0.0013,-3e-6 -0.002,0 -0.258753,0.820617 -0.640451,1.578737 -1.15039,2.273438 -0.105796,0.144151 -0.003,0.347406 0.175781,0.347656 h 0.933594 c 0.06381,7.8e-5 0.124459,-0.02775 0.166015,-0.07617 0.596039,-0.69015 1.032271,-1.473611 1.306641,-2.34375 h -0.002 c 0.28036,-0.872235 0.421875,-1.780269 0.421875,-2.720703 0,-0.947196 -0.140079,-1.861179 -0.419922,-2.740234 v -0.002 c -0.274006,-0.891672 -0.709833,-1.695943 -1.304688,-2.408203 -0.04163,-0.04967 -0.10316,-0.07829 -0.167968,-0.07813 z m 11.275391,0.250565 c -0.09147,-1.03e-4 -0.173316,0.0568 -0.205078,0.142578 l -3.029297,8.13086 c -0.05346,0.142958 0.05245,0.295265 0.205078,0.294922 h 0.980469 c 0.09147,1.04e-4 0.173316,-0.0568 0.205078,-0.142578 l 3.029297,-8.13086 c 0.05346,-0.142958 -0.05245,-0.295266 -0.205079,-0.294922 z m -13.761719,0.188888 c -0.120558,-0.02007 -0.234124,0.06268 -0.251953,0.183594 -0.353249,2.413868 -0.919539,4.089056 -1.646484,5.011719 -0.786049,0.981168 -2.206881,1.756317 -4.285157,2.283203 -0.141046,0.03572 -0.208393,0.196771 -0.134765,0.322266 0.294388,0.50046 0.471704,0.846753 0.515625,0.978515 0.03713,0.111967 0.156454,0.174223 0.269531,0.140625 2.30708,-0.689128 3.933732,-1.588973 4.867187,-2.740234 6.71e-4,-6.62e-4 0.0013,-0.0013 0.002,-0.002 0.93239,-1.181027 1.555468,-3.096275 1.914063,-5.75586 0.01543,-0.117107 -0.06504,-0.225261 -0.181641,-0.24414 z m -7.400391,0.427735 -0.888672,0.533203 c -0.103864,0.06233 -0.137164,0.197286 -0.07422,0.300781 0.679279,1.122288 1.253589,2.169147 1.724609,3.140625 0.05669,0.11696 0.202351,0.158836 0.3125,0.08984 l 0.933594,-0.578125 c 0.0934,-0.05851 0.128576,-0.177441 0.08203,-0.277344 -0.392347,-0.845055 -0.988844,-1.887813 -1.792969,-3.138672 -0.06348,-0.100116 -0.195233,-0.131319 -0.296875,-0.07031 z m -10.339843,8.289062 c -0.120887,-1.82e-4 -0.218932,0.09786 -0.21875,0.21875 v 0.728516 c -1.82e-4,0.120887 0.09786,0.218932 0.21875,0.21875 h 5.101562 c 0.120887,1.82e-4 0.218932,-0.09786 0.21875,-0.21875 v -0.728516 c 1.82e-4,-0.120887 -0.09786,-0.218932 -0.21875,-0.21875 z m 23.279297,0 c -0.120887,-1.82e-4 -0.218932,0.09786 -0.21875,0.21875 v 0.728516 c -1.82e-4,0.120887 0.09786,0.218932 0.21875,0.21875 h 5.101562 c 0.120887,1.82e-4 0.218932,-0.09786 0.21875,-0.21875 v -0.728516 c 1.82e-4,-0.120887 -0.09786,-0.218932 -0.21875,-0.21875 z" />
    <g
       id="g1221"
       transform="rotate(180,-7.1399985,7.33626)"
       style="display:inline">
      <path
         id="path1589-3"
         d="M -44.124997,5.1288386 V 1.9537904"
         style="display:inline;fill:none;fill-rule:evenodd;stroke:#000000;stroke-width:1.2;stroke-linecap:round;stroke-linejoin:miter;stroke-miterlimit:4;stroke-dasharray:none;stroke-opacity:1" />
      <path
         id="path1602-6"
         d="M -46.239178,5.1288386 V 0.8966996"
         style="display:inline;fill:none;fill-rule:evenodd;stroke:#000000;stroke-width:1.2;stroke-linecap:round;stroke-linejoin:miter;stroke-miterlimit:4;stroke-dasharray:none;stroke-opacity:1" />
      <path
         id="path1606-7"
         d="M -48.35336,5.1288386 V -0.1603915"
         style="display:inline;fill:none;fill-rule:evenodd;stroke:#000000;stroke-width:1.2;stroke-linecap:round;stroke-linejoin:miter;stroke-miterlimit:4;stroke-dasharray:none;stroke-opacity:1" />
      <path
         id="path1610-5"
         d="M -50.467541,5.1288386 V -1.2174815"
         style="display:inline;fill:none;fill-rule:evenodd;stroke:#000000;stroke-width:1.2;stroke-linecap:round;stroke-linejoin:miter;stroke-miterlimit:4;stroke-dasharray:none;stroke-opacity:1" />
      <path
         id="path1614-3"
         d="M -42.010817,5.1288386 V 3.0108805"
         style="display:inline;fill:none;fill-rule:evenodd;stroke:#000000;stroke-width:1.2;stroke-linecap:round;stroke-linejoin:miter;stroke-miterlimit:4;stroke-dasharray:none;stroke-opacity:1" />
      <path
         id="path1618-5"
         d="M -39.896634,5.1288386 V 4.0679724"
         style="display:inline;fill:none;fill-rule:evenodd;stroke:#000000;stroke-width:1.2;stroke-linecap:round;stroke-linejoin:miter;stroke-miterlimit:4;stroke-dasharray:none;stroke-opacity:1" />
      <path
         style="display:inline;fill:none;fill-rule:evenodd;stroke:#000000;stroke-width:1.2;stroke-linecap:round;stroke-linejoin:miter;stroke-miterlimit:4;stroke-dasharray:none;stroke-opacity:1"
         d="m -37.782453,5.1288386 v 0"
         id="path1624-6" />
    </g>
  </g>
</svg>
