<?xml version="1.0" encoding="UTF-8" standalone="no"?>
<svg
   id="svg853"
   version="1.1"
   viewBox="0 0 59.689999 101.6"
   height="4in"
   width="2.3499999in"
   xmlns="http://www.w3.org/2000/svg"
   xmlns:svg="http://www.w3.org/2000/svg"
   xmlns:rdf="http://www.w3.org/1999/02/22-rdf-syntax-ns#"
   xmlns:cc="http://creativecommons.org/ns#"
   xmlns:dc="http://purl.org/dc/elements/1.1/">
  <defs
     id="defs847" />
  <metadata
     id="metadata850">
    <rdf:RDF>
      <cc:Work
         rdf:about="">
        <dc:format>image/svg+xml</dc:format>
        <dc:type
           rdf:resource="http://purl.org/dc/dcmitype/StillImage" />
      </cc:Work>
    </rdf:RDF>
  </metadata>
  <path
     id="path250"
     style="font-size:19.7556px;line-height:1;font-family:OCRA;-inkscape-font-specification:'OCRA, Normal';text-align:center;letter-spacing:0px;word-spacing:0px;baseline-shift:baseline;text-anchor:middle;stroke-width:0.264583px"
     d="M 29.883448 2.9326376 A 0.66181999 0.66181999 0 0 0 29.75374 2.9372884 A 0.66181999 0.66181999 0 0 0 29.679842 2.9806967 A 0.66188618 0.66188618 0 0 0 29.584241 3.037024 A 0.66181999 0.66181999 0 0 0 29.316557 3.1951538 L 26.460917 6.970634 A 0.66181999 0.66181999 0 0 0 26.589592 7.8966757 A 0.66181999 0.66181999 0 0 0 27.517701 7.7674846 L 29.183749 5.5665854 L 29.183749 16.478581 A 0.66181999 0.66181999 0 0 0 29.845724 17.140556 A 0.66181999 0.66181999 0 0 0 30.505632 16.478581 L 30.505632 5.5645183 L 32.173747 7.7674846 A 0.66181999 0.66181999 0 0 0 33.099789 7.8966757 A 0.66181999 0.66181999 0 0 0 33.228463 6.970634 L 30.372823 3.1951538 A 0.66188618 0.66188618 0 0 0 30.336133 3.183785 A 0.66181999 0.66181999 0 0 0 30.244149 3.0664795 A 0.66181999 0.66181999 0 0 0 29.883448 2.9326376 z M 13.540776 20.008598 C 13.185176 20.008598 12.906189 20.300802 12.906189 20.643701 L 12.906189 23.882263 C 12.906189 24.237863 13.185176 24.529769 13.540776 24.529769 L 17.947742 24.529769 L 17.947742 28.631844 C 17.592142 28.631844 17.313155 28.924048 17.313155 29.266948 C 17.313155 29.622547 17.592142 29.91497 17.947742 29.91497 L 18.582845 29.91497 C 18.938445 29.91497 19.230868 29.622547 19.230868 29.266948 L 19.230868 20.643701 C 19.230868 20.300802 18.938445 20.008598 18.582845 20.008598 L 13.540776 20.008598 z M 22.723161 20.008598 C 22.367561 20.008598 22.088058 20.300802 22.088058 20.643701 L 22.088058 22.942269 L 24.640874 29.508277 C 24.742473 29.749576 24.971256 29.91497 25.250655 29.91497 C 25.517355 29.91497 25.745918 29.749576 25.847518 29.508277 L 28.412736 22.929867 L 28.412736 20.643701 C 28.412736 20.300802 28.12083 20.008598 27.765231 20.008598 C 27.409631 20.008598 27.130127 20.300802 27.130127 20.643701 L 27.130127 22.688538 L 25.250655 27.489278 L 23.370667 22.688538 L 23.370667 20.643701 C 23.370667 20.300802 23.078761 20.008598 22.723161 20.008598 z M 31.90503 20.008598 C 31.54943 20.008598 31.270443 20.300802 31.270443 20.643701 C 31.270443 20.999301 31.54943 21.291207 31.90503 21.291207 L 32.527731 21.291207 L 32.527731 28.631844 L 31.90503 28.631844 C 31.54943 28.631844 31.270443 28.924048 31.270443 29.266948 C 31.270443 29.622547 31.54943 29.91497 31.90503 29.91497 L 34.267159 29.91497 C 35.054559 29.91497 35.728003 29.44497 35.994703 28.860771 L 37.277312 26.269715 C 37.455111 25.901415 37.594605 25.469784 37.594605 24.961784 C 37.594605 24.453785 37.455111 24.022153 37.277312 23.653854 L 35.981783 21.075716 C 35.689684 20.504217 35.054559 20.008598 34.267159 20.008598 L 31.90503 20.008598 z M 43.766838 20.008598 C 42.979439 20.008598 42.306511 20.478598 42.039812 21.062797 L 40.757203 23.653854 C 40.579403 24.022153 40.452312 24.441085 40.452312 24.961784 C 40.452312 25.482484 40.579403 25.888715 40.757203 26.269715 C 41.163602 27.158714 41.608231 27.996953 42.052731 28.847852 C 42.344831 29.419351 42.979439 29.91497 43.766838 29.91497 L 46.128968 29.91497 C 46.484567 29.91497 46.77699 29.622547 46.77699 29.266948 C 46.77699 28.924048 46.484567 28.631844 46.128968 28.631844 L 43.766838 28.631844 C 43.512838 28.631844 43.297116 28.46681 43.208216 28.276311 L 41.900285 25.698173 C 41.798685 25.482274 41.734921 25.253884 41.734921 24.961784 C 41.734921 24.669684 41.798685 24.441295 41.900285 24.225395 L 43.208216 21.647258 C 43.297116 21.456758 43.512838 21.291207 43.766838 21.291207 L 46.128968 21.291207 C 46.484567 21.291207 46.77699 20.999301 46.77699 20.643701 C 46.77699 20.300802 46.484567 20.008598 46.128968 20.008598 L 43.766838 20.008598 z M 14.175879 21.291207 L 17.947742 21.291207 L 17.947742 23.24716 L 14.175879 23.24716 L 14.175879 21.291207 z M 33.81034 21.291207 L 34.267159 21.291207 C 34.521159 21.291207 34.737399 21.456758 34.826298 21.647258 L 36.134229 24.225395 C 36.223129 24.441295 36.311996 24.682384 36.311996 24.961784 C 36.311996 25.241184 36.223129 25.482274 36.134229 25.698173 L 34.826298 28.276311 C 34.737399 28.46681 34.521159 28.631844 34.267159 28.631844 L 33.81034 28.631844 L 33.81034 21.291207 z M 29.837972 33.654277 C 28.316759 33.654277 26.796305 34.233059 25.638745 35.390605 C 24.616827 36.412528 24.045942 37.717906 23.926188 39.056531 L 16.444474 39.056531 C 16.172788 36.054071 13.640056 33.691484 10.568347 33.691484 C 7.316126 33.691484 4.6679322 36.339665 4.6679322 39.591899 C 4.6679322 42.844083 7.3161264 45.492314 10.568347 45.492314 C 13.64023 45.492314 16.173031 43.129417 16.444474 40.12675 L 23.926188 40.12675 C 24.046241 41.464838 24.617217 42.769594 25.638745 43.791126 C 27.953864 46.106277 31.724149 46.106277 34.039266 43.791126 A 0.5334 0.5334 0 0 0 34.039266 43.037167 A 0.5334 0.5334 0 0 0 33.285307 43.037167 C 31.377864 44.944637 28.300148 44.944637 26.392705 43.037167 C 24.485235 41.129691 24.485235 38.054107 26.392705 36.146631 C 28.300147 34.239213 31.377844 34.239209 33.285307 36.146631 A 0.5334 0.5334 0 0 0 34.039266 36.146631 A 0.5334 0.5334 0 0 0 34.039266 35.390605 C 32.881697 34.23306 31.359185 33.654277 29.837972 33.654277 z M 49.121033 33.691484 C 46.049231 33.691484 43.516986 36.053946 43.245423 39.056531 L 32.293636 39.056531 C 32.04534 37.886228 31.001024 36.999809 29.759941 36.999809 C 28.335532 36.999809 27.167851 38.167483 27.167851 39.591899 C 27.167851 41.016315 28.335532 42.181405 29.759941 42.181405 C 31.001158 42.181405 32.045484 41.296859 32.293636 40.12675 L 43.245423 40.12675 C 43.516877 43.129408 46.049153 45.492314 49.121033 45.492314 C 52.373262 45.492314 55.021448 42.844089 55.021448 39.591899 C 55.021448 36.339659 52.373262 33.691484 49.121033 33.691484 z M 10.568347 34.761703 C 13.241856 34.761703 15.398543 36.918355 15.398543 39.591899 C 15.398543 42.265381 13.241856 44.420028 10.568347 44.420028 C 7.8948188 44.420028 5.7381511 42.265381 5.7381511 39.591899 C 5.7381511 36.918355 7.8948192 34.761703 10.568347 34.761703 z M 49.121033 34.761703 C 51.794568 34.761703 53.951229 36.918349 53.951229 39.591899 C 53.951229 42.265387 51.794569 44.420028 49.121033 44.420028 C 46.447521 44.420028 44.292904 42.265387 44.292904 39.591899 C 44.292904 36.918349 46.447521 34.761703 49.121033 34.761703 z M 10.568347 36.378658 C 10.207107 36.378658 9.9105063 36.675768 9.9105063 37.024097 L 9.9105063 38.933025 L 8.0010621 38.933025 C 7.6398415 38.933025 7.3561402 39.230152 7.3561402 39.591382 C 7.3561402 39.952614 7.6398415 40.236304 8.0010621 40.236304 L 9.9105063 40.236304 L 9.9105063 42.145748 C 9.9105063 42.50698 10.207107 42.803589 10.568347 42.803589 C 10.916698 42.803589 11.213269 42.50698 11.213269 42.145748 L 11.213269 40.236304 L 13.122713 40.236304 C 13.483935 40.236304 13.780554 39.952614 13.780554 39.591382 C 13.780554 39.230152 13.483935 38.933025 13.122713 38.933025 L 11.213269 38.933025 L 11.213269 37.024097 C 11.213269 36.675768 10.916676 36.378658 10.568347 36.378658 z M 46.554265 38.66224 C 46.193022 38.66224 45.909343 38.958849 45.909343 39.320081 L 45.909343 39.862167 C 45.909343 40.223398 46.193022 40.520008 46.554265 40.520008 L 51.675916 40.520008 C 52.037159 40.520008 52.333757 40.223398 52.333757 39.862167 L 52.333757 39.320081 C 52.333757 38.958849 52.037159 38.66224 51.675916 38.66224 L 46.554265 38.66224 z M 10.642761 57.419752 L 10.642761 71.821974 C 10.642761 72.37513 11.077142 72.829147 11.630298 72.829147 C 12.183453 72.829147 12.637988 72.37513 12.637988 71.821974 L 12.637988 60.976124 L 17.833537 72.829147 L 20.480921 72.829147 L 20.480921 58.407805 C 20.480921 57.874405 20.026387 57.419752 19.47323 57.419752 C 18.920074 57.419752 18.485694 57.874405 18.485694 58.407805 L 18.485694 69.313083 L 13.269991 57.419752 L 10.642761 57.419752 z M 24.925611 57.419752 L 24.925611 71.821974 C 24.925611 72.37513 25.360509 72.829147 25.913664 72.829147 C 26.46682 72.829147 26.921354 72.37513 26.921354 71.821974 L 26.921354 64.452914 L 31.800643 64.452914 C 32.3538 64.452914 32.788697 63.99838 32.788697 63.445224 C 32.788697 62.892067 32.3538 62.457687 31.800643 62.457687 L 26.921354 62.457687 L 26.921354 59.415495 L 33.756596 59.415495 C 34.309752 59.415495 34.764287 58.960962 34.764287 58.407805 C 34.764287 57.874405 34.309752 57.419752 33.756596 57.419752 L 24.925611 57.419752 z M 40.19703 57.419752 C 39.643875 57.419752 39.208977 57.874405 39.208977 58.407805 C 39.208977 58.605361 39.248809 58.763425 39.327832 58.921469 L 42.962753 65.124708 L 39.327832 71.327947 C 39.248813 71.485992 39.208977 71.644174 39.208977 71.821974 C 39.208977 72.37513 39.643875 72.829147 40.19703 72.829147 C 40.572387 72.829147 40.888427 72.631971 41.066228 72.335637 L 44.128056 67.119935 L 47.170765 72.335637 C 47.348566 72.631971 47.664606 72.829147 48.039962 72.829147 C 48.593118 72.829147 49.047653 72.37513 49.047653 71.821974 C 49.047653 71.644174 48.988179 71.485992 48.90916 71.327947 L 45.27424 65.124708 L 48.90916 58.921469 C 48.98818 58.763425 49.047653 58.605361 49.047653 58.407805 C 49.047653 57.874405 48.593118 57.419752 48.039962 57.419752 C 47.664606 57.419752 47.348566 57.617445 47.170765 57.913778 L 44.128056 63.129481 L 41.066228 57.913778 C 40.888427 57.617445 40.572387 57.419752 40.19703 57.419752 z M 11.630298 77.175652 C 11.077142 77.175652 10.642761 77.629787 10.642761 78.163189 C 10.642761 78.716344 11.077142 79.170879 11.630298 79.170879 L 12.598198 79.170879 L 12.598198 90.58982 L 11.630298 90.58982 C 11.077142 90.58982 10.642761 91.043957 10.642761 91.577357 C 10.642761 92.130513 11.077142 92.585047 11.630298 92.585047 L 15.305009 92.585047 C 16.529855 92.585047 17.576799 91.85411 17.991667 90.945354 L 19.986894 86.915109 C 20.263473 86.342198 20.480921 85.670315 20.480921 84.880091 C 20.480921 84.089868 20.263473 83.418502 19.986894 82.84559 L 17.97203 78.834982 C 17.517651 77.945981 16.529855 77.175652 15.305009 77.175652 L 11.630298 77.175652 z M 27.158033 77.175652 C 25.952943 77.175652 24.925611 78.182948 24.925611 79.368283 L 24.925611 79.427711 C 24.925611 79.980867 25.123541 80.454972 25.380363 80.810572 L 32.76906 90.332989 C 32.76906 90.491033 32.630761 90.58982 32.512228 90.58982 L 27.592631 90.58982 C 27.217276 90.58982 26.921354 90.293382 26.921354 89.918027 C 26.921354 89.36487 26.46682 88.910336 25.913664 88.910336 C 25.360509 88.910336 24.925611 89.36487 24.925611 89.918027 C 24.925611 91.379939 26.150475 92.585047 27.592631 92.585047 L 32.512228 92.585047 C 33.776584 92.585047 34.724776 91.538079 34.764287 90.332989 C 34.764287 89.779832 34.546839 89.285972 34.27026 88.950127 L 26.921354 79.506776 L 26.921354 79.427711 L 26.921354 79.368283 C 26.921354 79.229994 27.059255 79.170879 27.158033 79.170879 L 32.077112 79.170879 C 32.432712 79.170879 32.76906 79.487072 32.76906 79.842673 C 32.76906 80.395828 33.20344 80.850363 33.756596 80.850363 C 34.309752 80.850363 34.764287 80.395828 34.764287 79.842673 C 34.764287 78.380759 33.519269 77.175652 32.077112 77.175652 L 27.158033 77.175652 z M 39.208977 77.175652 L 39.208977 91.577357 C 39.208977 92.130513 39.643875 92.585047 40.19703 92.585047 C 40.750187 92.585047 41.204204 92.130513 41.204204 91.577357 L 41.204204 86.717705 L 46.044735 86.717705 C 47.684449 86.717705 49.047653 85.354501 49.047653 83.714788 L 49.047653 80.158416 C 49.047653 78.538458 47.684449 77.175652 46.044735 77.175652 L 39.208977 77.175652 z M 14.593425 79.170879 L 15.305009 79.170879 C 15.700121 79.170879 16.035917 79.427483 16.174207 79.723817 L 18.208708 83.734425 C 18.346998 84.070269 18.485694 84.445468 18.485694 84.880091 C 18.485694 85.314714 18.346998 85.69043 18.208708 86.026275 L 16.174207 90.036366 C 16.035917 90.3327 15.700121 90.58982 15.305009 90.58982 L 14.593425 90.58982 L 14.593425 79.170879 z M 41.204204 79.170879 L 46.044735 79.170879 C 46.558381 79.170879 47.051909 79.625015 47.051909 80.158416 L 47.051909 83.714788 C 47.051909 84.267944 46.578136 84.721961 46.044735 84.721961 L 41.204204 84.721961 L 41.204204 79.170879 z " />
</svg>
