<?xml version="1.0" encoding="UTF-8" standalone="no"?>
<svg
   width="2.3499999in"
   height="4in"
   viewBox="0 0 59.689999 101.6"
   version="1.1"
   id="svg853"
   xmlns="http://www.w3.org/2000/svg"
   xmlns:svg="http://www.w3.org/2000/svg"
   xmlns:rdf="http://www.w3.org/1999/02/22-rdf-syntax-ns#"
   xmlns:cc="http://creativecommons.org/ns#"
   xmlns:dc="http://purl.org/dc/elements/1.1/">
  <defs
     id="defs847" />
  <metadata
     id="metadata850">
    <rdf:RDF>
      <cc:Work
         rdf:about="">
        <dc:format>image/svg+xml</dc:format>
        <dc:type
           rdf:resource="http://purl.org/dc/dcmitype/StillImage" />
        <dc:title />
      </cc:Work>
    </rdf:RDF>
  </metadata>
  <g
     id="layer3"
     style="display:inline">
    <path
       style="color:#000000;fill:#000000;fill-rule:evenodd;stroke-linecap:round;stroke-linejoin:round;-inkscape-stroke:none"
       d="m 22.59375,28.675781 -12.7011719,6.34961 a 0.59695968,0.59695968 0 0 0 0.2675779,1.130859 h 12.699219 a 0.59695968,0.59695968 0 0 0 0.597656,-0.595703 v -6.34961 A 0.59695968,0.59695968 0 0 0 22.59375,28.675781 Z m -0.330078,1.5 v 4.78711 h -9.574219 z"
       id="path841" />
    <path
       id="path855"
       style="color:#000000;fill:#000000;fill-rule:evenodd;stroke-linecap:round;stroke-linejoin:round;-inkscape-stroke:none"
       d="m 36.83031,28.613241 a 0.59689999,0.59689999 0 0 0 -0.597896,0.597896 0.59689999,0.59689999 0 0 0 0.597896,0.595313 h 3.019454 l 2.49959,2.578137 -2.49959,2.578137 H 36.83031 a 0.59689999,0.59689999 0 0 0 -0.597896,0.597897 0.59689999,0.59689999 0 0 0 0.597896,0.595829 h 3.271119 a 0.59695968,0.59695968 0 0 0 0.427881,-0.181901 l 2.650484,-2.732133 2.650484,2.732133 a 0.59695968,0.59695968 0 0 0 0.427364,0.181901 h 3.271635 a 0.59689999,0.59689999 0 0 0 0.597896,-0.595829 0.59689999,0.59689999 0 0 0 -0.597896,-0.597897 H 46.51189 L 44.011784,32.384587 46.51189,29.80645 h 3.017387 a 0.59689999,0.59689999 0 0 0 0.597896,-0.595313 0.59689999,0.59689999 0 0 0 -0.597896,-0.597896 h -3.271635 a 0.59695968,0.59695968 0 0 0 -0.427364,0.181901 l -2.650484,2.732133 -2.650484,-2.732133 a 0.59695968,0.59695968 0 0 0 -0.427881,-0.181901 z" />
    <path
       id="path359"
       style="font-size:11.3895px;line-height:8.898px;font-family:'Noto Sans';-inkscape-font-specification:'Noto Sans, Normal';text-align:center;letter-spacing:0px;word-spacing:0px;baseline-shift:baseline;text-anchor:middle;stroke-width:0.264583px"
       d="m 5.7070312,47.666016 c -0.1208875,-1.82e-4 -0.2189317,0.09786 -0.21875,0.21875 v 0.751953 c -1.817e-4,0.120887 0.097862,0.218932 0.21875,0.21875 H 11.46875 c 0.120887,1.82e-4 0.218932,-0.09786 0.21875,-0.21875 v -0.751953 c 1.82e-4,-0.120887 -0.09786,-0.218932 -0.21875,-0.21875 z m 42.5058598,0 c -0.120887,-1.82e-4 -0.218932,0.09786 -0.21875,0.21875 v 0.751953 c -1.82e-4,0.120887 0.09786,0.218932 0.21875,0.21875 h 5.761718 c 0.120887,1.82e-4 0.218932,-0.09786 0.21875,-0.21875 v -0.751953 c 1.82e-4,-0.120887 -0.09786,-0.218932 -0.21875,-0.21875 z m -19.419922,1.164062 -0.888672,0.533203 c -0.10268,0.06227 -0.135833,0.195752 -0.07422,0.298828 0.559926,0.943033 1.118359,1.990378 1.679688,3.142579 0.0554,0.113416 0.195114,0.156407 0.304687,0.09375 l 0.933594,-0.533204 c 0.1005,-0.05645 0.139829,-0.181289 0.08984,-0.285156 -0.536966,-1.10376 -1.119259,-2.162858 -1.746094,-3.177734 -0.06292,-0.101984 -0.196259,-0.134231 -0.298828,-0.07227 z m -17.244141,0.361893 c -0.152625,-3.43e-4 -0.258534,0.151965 -0.205078,0.294922 l 3.029297,8.13086 c 0.03176,0.08578 0.113608,0.142682 0.205078,0.142578 h 0.992187 c 0.152625,3.44e-4 0.258535,-0.151964 0.205079,-0.294922 l -3.041016,-8.13086 c -0.03176,-0.08578 -0.113608,-0.142681 -0.205078,-0.142578 z m 11.310547,-0.250565 c -0.06481,-1.66e-4 -0.126343,0.02846 -0.167969,0.07813 -0.594915,0.712333 -1.034792,1.516425 -1.316406,2.408203 -3e-6,6.67e-4 -3e-6,0.0013 0,0.002 -0.272326,0.879221 -0.408203,1.793034 -0.408203,2.740234 0,0.93978 0.135752,1.846908 0.408203,2.71875 6.62e-4,6.71e-4 0.0013,0.0013 0.002,0.002 0.282009,0.869526 0.720704,1.65399 1.316406,2.34375 0.04156,0.04842 0.102208,0.07625 0.166016,0.07617 h 0.933594 c 0.178807,-2.5e-4 0.281577,-0.203505 0.175781,-0.347656 -0.509756,-0.694449 -0.895793,-1.451208 -1.162109,-2.271485 -0.259359,-0.829948 -0.388672,-1.672396 -0.388672,-2.53125 0,-0.881543 0.129718,-1.73948 0.388672,-2.576172 v -0.002 c 0.266232,-0.835031 0.657014,-1.597008 1.173828,-2.291015 0.108473,-0.144393 0.0048,-0.350558 -0.175781,-0.34961 z m 13.017578,0 c -0.180596,-9.48e-4 -0.284254,0.205217 -0.175781,0.34961 0.516851,0.694056 0.903441,1.455888 1.162109,2.291015 -3e-6,6.67e-4 -3e-6,0.0013 0,0.002 0.266619,0.836891 0.400391,1.694651 0.400391,2.576172 0,0.858172 -0.131789,1.699722 -0.398438,2.529297 -6.67e-4,-3e-6 -0.0013,-3e-6 -0.002,0 -0.258753,0.820617 -0.640451,1.578737 -1.15039,2.273438 -0.105796,0.144151 -0.003,0.347406 0.175781,0.347656 h 0.933594 c 0.06381,7.8e-5 0.124459,-0.02775 0.166015,-0.07617 0.596039,-0.69015 1.032271,-1.473611 1.306641,-2.34375 h -0.002 c 0.28036,-0.872235 0.421875,-1.780269 0.421875,-2.720703 0,-0.947196 -0.140079,-1.861179 -0.419922,-2.740234 v -0.002 c -0.274006,-0.891672 -0.709833,-1.695943 -1.304688,-2.408203 -0.04163,-0.04967 -0.10316,-0.07829 -0.167968,-0.07813 z m 11.275391,0.250565 c -0.09147,-1.03e-4 -0.173316,0.0568 -0.205078,0.142578 l -3.029297,8.13086 c -0.05346,0.142958 0.05245,0.295265 0.205078,0.294922 h 0.980469 c 0.09147,1.04e-4 0.173316,-0.0568 0.205078,-0.142578 l 3.029297,-8.13086 c 0.05346,-0.142958 -0.05245,-0.295266 -0.205079,-0.294922 z m -13.761719,0.188888 c -0.120558,-0.02007 -0.234124,0.06268 -0.251953,0.183594 -0.353249,2.413868 -0.919539,4.089056 -1.646484,5.011719 -0.786049,0.981168 -2.206881,1.756317 -4.285157,2.283203 -0.141046,0.03572 -0.208393,0.196771 -0.134765,0.322266 0.294388,0.50046 0.471704,0.846753 0.515625,0.978515 0.03713,0.111967 0.156454,0.174223 0.269531,0.140625 2.30708,-0.689128 3.933732,-1.588973 4.867187,-2.740234 6.71e-4,-6.62e-4 0.0013,-0.0013 0.002,-0.002 0.93239,-1.181027 1.555468,-3.096275 1.914063,-5.75586 0.01543,-0.117107 -0.06504,-0.225261 -0.181641,-0.24414 z m -7.400391,0.427735 -0.888672,0.533203 c -0.103864,0.06233 -0.137164,0.197286 -0.07422,0.300781 0.679279,1.122288 1.253589,2.169147 1.724609,3.140625 0.05669,0.11696 0.202351,0.158836 0.3125,0.08984 l 0.933594,-0.578125 c 0.0934,-0.05851 0.128576,-0.177441 0.08203,-0.277344 -0.392347,-0.845055 -0.988844,-1.887813 -1.792969,-3.138672 -0.06348,-0.100116 -0.195233,-0.131319 -0.296875,-0.07031 z m -10.339843,8.289062 c -0.120887,-1.82e-4 -0.218932,0.09786 -0.21875,0.21875 v 0.728516 c -1.82e-4,0.120887 0.09786,0.218932 0.21875,0.21875 h 5.101562 c 0.120887,1.82e-4 0.218932,-0.09786 0.21875,-0.21875 v -0.728516 c 1.82e-4,-0.120887 -0.09786,-0.218932 -0.21875,-0.21875 z m 23.279297,0 c -0.120887,-1.82e-4 -0.218932,0.09786 -0.21875,0.21875 v 0.728516 c -1.82e-4,0.120887 0.09786,0.218932 0.21875,0.21875 h 5.101562 c 0.120887,1.82e-4 0.218932,-0.09786 0.21875,-0.21875 v -0.728516 c 1.82e-4,-0.120887 -0.09786,-0.218932 -0.21875,-0.21875 z" />
  </g>
</svg>
