<?xml version="1.0" encoding="UTF-8" standalone="no"?>
<svg
   width="2.3499999in"
   height="4in"
   viewBox="0 0 59.689999 101.6"
   version="1.1"
   id="svg853"
   inkscape:version="1.2.2 (b0a8486541, 2022-12-01)"
   sodipodi:docname="wdsp.svg"
   inkscape:export-filename="front.svg"
   inkscape:export-xdpi="1199.85"
   inkscape:export-ydpi="1199.85"
   xmlns:inkscape="http://www.inkscape.org/namespaces/inkscape"
   xmlns:sodipodi="http://sodipodi.sourceforge.net/DTD/sodipodi-0.dtd"
   xmlns="http://www.w3.org/2000/svg"
   xmlns:svg="http://www.w3.org/2000/svg"
   xmlns:rdf="http://www.w3.org/1999/02/22-rdf-syntax-ns#"
   xmlns:cc="http://creativecommons.org/ns#"
   xmlns:dc="http://purl.org/dc/elements/1.1/">
  <defs
     id="defs847" />
  <sodipodi:namedview
     id="base"
     pagecolor="#ffffff"
     bordercolor="#666666"
     borderopacity="1.0"
     inkscape:pageopacity="0.0"
     inkscape:pageshadow="2"
     inkscape:zoom="1.979899"
     inkscape:cx="94.7018"
     inkscape:cy="171.72593"
     inkscape:document-units="in"
     inkscape:current-layer="layer2"
     showgrid="false"
     inkscape:snap-page="true"
     inkscape:snap-intersection-paths="true"
     inkscape:snap-smooth-nodes="true"
     inkscape:object-nodes="true"
     inkscape:window-width="1920"
     inkscape:window-height="1131"
     inkscape:window-x="0"
     inkscape:window-y="32"
     inkscape:window-maximized="1"
     units="in"
     borderlayer="true"
     inkscape:showpageshadow="false"
     showguides="true"
     inkscape:guide-bbox="true"
     inkscape:snap-bbox="true"
     inkscape:snap-bbox-midpoints="false"
     inkscape:snap-nodes="false"
     inkscape:snap-bbox-edge-midpoints="true"
     inkscape:document-rotation="0"
     inkscape:pagecheckerboard="1"
     inkscape:deskcolor="#d1d1d1">
    <sodipodi:guide
       inkscape:locked="false"
       id="guide843"
       orientation="1,0"
       position="16.51,85.089998" />
    <sodipodi:guide
       inkscape:locked="false"
       id="guide845"
       orientation="1,0"
       position="43.180001,85.089997" />
    <sodipodi:guide
       inkscape:locked="false"
       id="guide847"
       orientation="1,0"
       position="29.845,16.510011" />
    <sodipodi:guide
       inkscape:color="rgb(0,0,255)"
       inkscape:label=""
       inkscape:locked="false"
       id="guide849"
       orientation="0,1"
       position="29.845,48.260011" />
    <sodipodi:guide
       inkscape:color="rgb(0,0,255)"
       inkscape:label=""
       inkscape:locked="false"
       id="guide865"
       orientation="0,1"
       position="43.180001,123.19" />
    <inkscape:grid
       id="grid879"
       type="xygrid" />
    <sodipodi:guide
       inkscape:color="rgb(0,0,255)"
       inkscape:label=""
       inkscape:locked="false"
       id="guide881"
       orientation="1,0"
       position="10.16,85.089997" />
    <sodipodi:guide
       inkscape:color="rgb(0,0,255)"
       inkscape:label=""
       inkscape:locked="false"
       id="guide883"
       orientation="1,0"
       position="49.530001,85.089997" />
    <sodipodi:guide
       inkscape:color="rgb(0,0,255)"
       inkscape:label=""
       inkscape:locked="false"
       id="guide885"
       orientation="1,0"
       position="36.830001,85.089997" />
    <sodipodi:guide
       inkscape:color="rgb(0,0,255)"
       inkscape:label=""
       inkscape:locked="false"
       id="guide887"
       orientation="1,0"
       position="22.86,85.089997" />
    <sodipodi:guide
       inkscape:color="rgb(0,0,255)"
       inkscape:label=""
       inkscape:locked="false"
       id="guide889"
       orientation="0,1"
       position="29.845,72.389997" />
    <sodipodi:guide
       inkscape:color="rgb(0,0,255)"
       inkscape:label=""
       inkscape:locked="false"
       id="guide895"
       orientation="0,1"
       position="72.830947,60.96001" />
    <sodipodi:guide
       inkscape:color="rgb(0,0,255)"
       inkscape:label=""
       inkscape:locked="false"
       id="guide897"
       orientation="0,1"
       position="72.296408,35.56001" />
    <sodipodi:guide
       inkscape:color="rgb(0,0,255)"
       inkscape:label=""
       inkscape:locked="false"
       id="guide899"
       orientation="0,1"
       position="52.518462,66.039997" />
    <sodipodi:guide
       inkscape:locked="false"
       id="guide949"
       orientation="1,0"
       position="5.7149974,5.714967" />
    <sodipodi:guide
       inkscape:locked="false"
       id="guide951"
       orientation="1,0"
       position="53.975007,5.714967" />
    <sodipodi:guide
       inkscape:locked="false"
       id="guide953"
       orientation="0,1"
       position="76.255501,5.7377261" />
  </sodipodi:namedview>
  <metadata
     id="metadata850">
    <rdf:RDF>
      <cc:Work
         rdf:about="">
        <dc:format>image/svg+xml</dc:format>
        <dc:type
           rdf:resource="http://purl.org/dc/dcmitype/StillImage" />
        <dc:title />
      </cc:Work>
    </rdf:RDF>
  </metadata>
  <g
     inkscape:groupmode="layer"
     id="layer2"
     inkscape:label="Back Graphics"
     style="display:inline">
    <path
       id="path358"
       style="font-size:19.7556px;line-height:1;font-family:OCRA;-inkscape-font-specification:'OCRA, Normal';text-align:center;letter-spacing:0px;word-spacing:0px;baseline-shift:baseline;text-anchor:middle;stroke-width:0.264583px"
       d="m 10.642761,57.419752 v 14.402222 c 0,0.553156 0.434382,1.007173 0.987537,1.007173 0.553156,0 1.00769,-0.454017 1.00769,-1.007173 v -10.84585 l 5.195549,11.853023 h 2.647384 V 58.407805 c 0,-0.5334 -0.454535,-0.988053 -1.007691,-0.988053 -0.553156,0 -0.987536,0.454653 -0.987536,0.988053 V 69.313083 L 13.269991,57.419752 Z m 14.28285,0 v 14.402222 c 0,0.553156 0.434898,1.007173 0.988053,1.007173 0.553156,0 1.00769,-0.454017 1.00769,-1.007173 v -7.36906 h 4.879289 c 0.553157,0 0.988054,-0.454534 0.988054,-1.00769 0,-0.553157 -0.434897,-0.987537 -0.988054,-0.987537 h -4.879289 v -3.042192 h 6.835242 c 0.553156,0 1.007691,-0.454533 1.007691,-1.00769 0,-0.5334 -0.454535,-0.988053 -1.007691,-0.988053 z m 15.271419,0 c -0.553156,0 -0.988053,0.454653 -0.988053,0.988053 0,0.197556 0.03983,0.35562 0.118855,0.513664 l 3.634921,6.203239 -3.634921,6.203239 c -0.07902,0.158045 -0.118855,0.316227 -0.118855,0.494027 0,0.553156 0.434897,1.007173 0.988053,1.007173 0.375357,0 0.691397,-0.197176 0.869198,-0.49351 l 3.061828,-5.215702 3.042709,5.215702 c 0.1778,0.296334 0.493842,0.49351 0.869197,0.49351 0.553157,0 1.007691,-0.454017 1.007691,-1.007173 0,-0.1778 -0.05947,-0.335982 -0.138493,-0.494027 l -3.63492,-6.203239 3.63492,-6.203239 c 0.07902,-0.158044 0.138493,-0.316108 0.138493,-0.513664 0,-0.5334 -0.454534,-0.988053 -1.007691,-0.988053 -0.375355,0 -0.691397,0.197693 -0.869197,0.494026 l -3.042709,5.215703 -3.061828,-5.215703 C 40.888427,57.617445 40.572387,57.419752 40.19703,57.419752 Z m -28.566732,19.7559 c -0.553155,0 -0.987537,0.454135 -0.987537,0.987537 0,0.553155 0.434382,1.00769 0.987537,1.00769 h 0.9679 V 90.58982 h -0.9679 c -0.553155,0 -0.987537,0.454137 -0.987537,0.987537 0,0.553156 0.434382,1.00769 0.987537,1.00769 h 3.674711 c 1.224846,0 2.27179,-0.730937 2.686658,-1.639693 l 1.995227,-4.030245 c 0.276579,-0.572911 0.494027,-1.244794 0.494027,-2.035018 0,-0.790223 -0.217448,-1.461589 -0.494027,-2.034501 L 17.97203,78.834982 c -0.454379,-0.889001 -1.442175,-1.65933 -2.667021,-1.65933 z m 15.527735,0 c -1.20509,0 -2.232422,1.007296 -2.232422,2.192631 v 0.05943 c 0,0.553156 0.19793,1.027261 0.454752,1.382861 l 7.388697,9.522417 c 0,0.158044 -0.138299,0.256831 -0.256832,0.256831 h -4.919597 c -0.375355,0 -0.671277,-0.296438 -0.671277,-0.671793 0,-0.553157 -0.454534,-1.007691 -1.00769,-1.007691 -0.553155,0 -0.988053,0.454534 -0.988053,1.007691 0,1.461912 1.224864,2.66702 2.66702,2.66702 h 4.919597 c 1.264356,0 2.212548,-1.046968 2.252059,-2.252058 0,-0.553157 -0.217448,-1.047017 -0.494027,-1.382862 l -7.348906,-9.443351 v -0.07906 -0.05943 c 0,-0.138289 0.137901,-0.197404 0.236679,-0.197404 h 4.919079 c 0.3556,0 0.691948,0.316193 0.691948,0.671794 0,0.553155 0.43438,1.00769 0.987536,1.00769 0.553156,0 1.007691,-0.454535 1.007691,-1.00769 0,-1.461914 -1.245018,-2.667021 -2.687175,-2.667021 z m 12.050944,0 v 14.401705 c 0,0.553156 0.434897,1.00769 0.988053,1.00769 0.553157,0 1.007174,-0.454534 1.007174,-1.00769 v -4.859652 h 4.840531 c 1.639714,0 3.002918,-1.363204 3.002918,-3.002917 v -3.556372 c 0,-1.619958 -1.363204,-2.982764 -3.002918,-2.982764 z m -24.615552,1.995227 h 0.711584 c 0.395112,0 0.730909,0.256604 0.869198,0.552938 l 2.034501,4.010608 c 0.138289,0.335844 0.276986,0.711043 0.276986,1.145666 0,0.434623 -0.138697,0.810339 -0.276986,1.146184 l -2.034501,4.010091 C 16.035918,90.3327 15.700121,90.58982 15.305009,90.58982 h -0.711584 z m 26.610779,0 h 4.840531 c 0.513645,0 1.007174,0.454136 1.007174,0.987537 v 3.556372 c 0,0.553156 -0.473773,1.007173 -1.007174,1.007173 h -4.840531 z" />
    <path
       id="path455"
       style="color:#000000;fill:#000000;-inkscape-stroke:none"
       d="m 29.837972,33.654277 c -1.521203,0 -3.041672,0.578787 -4.199227,1.736328 -1.021913,1.021918 -1.592803,2.327311 -1.712557,3.665926 h -7.481714 c -0.271545,-3.002579 -2.804334,-5.365047 -5.876127,-5.365047 -3.252207,0 -5.9004148,2.648193 -5.9004148,5.900415 0,3.252172 2.6482082,5.900415 5.9004148,5.900415 3.071871,0 5.604691,-2.362912 5.876127,-5.365564 h 7.481714 c 0.120053,1.338083 0.691034,2.642849 1.712557,3.664376 2.315109,2.315141 6.085419,2.315141 8.400521,0 a 0.5334,0.5334 0 0 0 0,-0.753959 0.5334,0.5334 0 0 0 -0.753959,0 c -1.907433,1.90746 -4.985169,1.90746 -6.892602,0 -1.907465,-1.907466 -1.907465,-4.98307 0,-6.890536 1.907432,-1.907408 4.985149,-1.907412 6.892602,0 a 0.5334,0.5334 0 0 0 0.753959,0 0.5334,0.5334 0 0 0 0,-0.756026 c -1.157559,-1.15754 -2.680086,-1.736328 -4.201294,-1.736328 z m 19.283061,0.03721 c -3.071787,0 -5.604047,2.362477 -5.87561,5.365047 H 32.293636 c -0.248291,-1.170298 -1.292617,-2.056722 -2.533695,-2.056722 -1.424404,0 -2.59209,1.167679 -2.59209,2.59209 0,1.424411 1.167686,2.589506 2.59209,2.589506 1.241212,0 2.285548,-0.884551 2.533695,-2.054655 h 10.951787 c 0.271454,3.002643 2.803745,5.365564 5.87561,5.365564 3.252214,0 5.900415,-2.64824 5.900415,-5.900415 0,-3.252225 -2.648201,-5.900415 -5.900415,-5.900415 z m -38.552686,1.070219 c 2.673501,0 4.830196,2.156664 4.830196,4.830196 0,2.67347 -2.156695,4.828129 -4.830196,4.828129 -2.6735162,0 -4.8301959,-2.154659 -4.8301959,-4.828129 0,-2.673532 2.1566801,-4.830196 4.8301959,-4.830196 z m 38.552686,0 c 2.673525,0 4.830196,2.156661 4.830196,4.830196 0,2.673473 -2.15667,4.828129 -4.830196,4.828129 -2.673497,0 -4.828129,-2.154656 -4.828129,-4.828129 0,-2.673535 2.154632,-4.830196 4.828129,-4.830196 z m -38.552686,1.616955 c -0.36124,0 -0.6578407,0.29711 -0.6578407,0.645439 v 1.908928 H 8.0010621 c -0.3612206,0 -0.6449219,0.297127 -0.6449219,0.658357 0,0.361232 0.2837013,0.644922 0.6449219,0.644922 h 1.9094442 v 1.909444 c 0,0.361232 0.2966007,0.657841 0.6578407,0.657841 0.348351,0 0.644922,-0.296609 0.644922,-0.657841 v -1.909444 h 1.909444 c 0.361222,0 0.657841,-0.28369 0.657841,-0.644922 0,-0.36123 -0.296619,-0.658357 -0.657841,-0.658357 H 11.213269 V 37.0241 c 0,-0.348329 -0.296593,-0.645439 -0.644922,-0.645439 z m 35.985918,2.283582 c -0.361243,0 -0.644922,0.296609 -0.644922,0.657841 v 0.542086 c 0,0.361228 0.283679,0.657841 0.644922,0.657841 h 5.121651 c 0.361243,0 0.657841,-0.296613 0.657841,-0.657841 v -0.542086 c 0,-0.361232 -0.296598,-0.657841 -0.657841,-0.657841 z" />
    <path
       id="path377"
       style="font-size:8.46667px;font-family:OCRA;-inkscape-font-specification:'OCRA, Normal';text-align:center;letter-spacing:0px;word-spacing:0px;text-anchor:middle;stroke-width:0.264583px"
       d="m 13.540776,20.008598 c -0.3556,0 -0.634587,0.292204 -0.634587,0.635103 v 3.238562 c 0,0.3556 0.278987,0.647506 0.634587,0.647506 h 4.406966 v 4.102075 c -0.3556,0 -0.634587,0.292204 -0.634587,0.635104 0,0.355599 0.278987,0.648022 0.634587,0.648022 h 0.635103 c 0.3556,0 0.648023,-0.292423 0.648023,-0.648022 v -8.623247 c 0,-0.342899 -0.292423,-0.635103 -0.648023,-0.635103 z m 9.182385,0 c -0.3556,0 -0.635103,0.292204 -0.635103,0.635103 v 2.298568 l 2.552816,6.566008 c 0.101599,0.241299 0.330382,0.406693 0.609781,0.406693 0.2667,0 0.495263,-0.165394 0.596863,-0.406693 l 2.565218,-6.57841 v -2.286166 c 0,-0.342899 -0.291906,-0.635103 -0.647505,-0.635103 -0.3556,0 -0.635104,0.292204 -0.635104,0.635103 v 2.044837 l -1.879472,4.80074 -1.879988,-4.80074 v -2.044837 c 0,-0.342899 -0.291906,-0.635103 -0.647506,-0.635103 z m 9.181869,0 c -0.3556,0 -0.634587,0.292204 -0.634587,0.635103 0,0.3556 0.278987,0.647506 0.634587,0.647506 h 0.622701 v 7.340637 H 31.90503 c -0.3556,0 -0.634587,0.292204 -0.634587,0.635104 0,0.355599 0.278987,0.648022 0.634587,0.648022 h 2.362129 c 0.7874,0 1.460844,-0.47 1.727544,-1.054199 l 1.282609,-2.591056 c 0.177799,-0.3683 0.317293,-0.799931 0.317293,-1.307931 0,-0.507999 -0.139494,-0.939631 -0.317293,-1.30793 l -1.295529,-2.578138 c -0.292099,-0.571499 -0.927224,-1.067118 -1.714624,-1.067118 z m 11.861808,0 c -0.787399,0 -1.460327,0.47 -1.727026,1.054199 l -1.282609,2.591057 c -0.1778,0.368299 -0.304891,0.787231 -0.304891,1.30793 0,0.5207 0.127091,0.926931 0.304891,1.307931 0.406399,0.888999 0.851028,1.727238 1.295528,2.578137 0.2921,0.571499 0.926708,1.067118 1.714107,1.067118 h 2.36213 c 0.355599,0 0.648022,-0.292423 0.648022,-0.648022 0,-0.3429 -0.292423,-0.635104 -0.648022,-0.635104 h -2.36213 c -0.254,0 -0.469722,-0.165034 -0.558622,-0.355533 l -1.307931,-2.578138 c -0.1016,-0.215899 -0.165364,-0.444289 -0.165364,-0.736389 0,-0.2921 0.06376,-0.520489 0.165364,-0.736389 l 1.307931,-2.578137 c 0.0889,-0.1905 0.304622,-0.356051 0.558622,-0.356051 h 2.36213 c 0.355599,0 0.648022,-0.291906 0.648022,-0.647506 0,-0.342899 -0.292423,-0.635103 -0.648022,-0.635103 z m -29.590959,1.282609 h 3.771863 v 1.955953 h -3.771863 z m 19.634461,0 h 0.456819 c 0.254,0 0.47024,0.165551 0.559139,0.356051 l 1.307931,2.578137 c 0.0889,0.2159 0.177767,0.456989 0.177767,0.736389 0,0.2794 -0.08887,0.52049 -0.177767,0.736389 l -1.307931,2.578138 c -0.0889,0.190499 -0.305139,0.355533 -0.559139,0.355533 H 33.81034 Z" />
    <path
       style="color:#000000;fill:#000000;fill-rule:evenodd;stroke-linecap:round;stroke-linejoin:round;-inkscape-stroke:none"
       d="m 29.753906,2.9375 a 0.66181999,0.66181999 0 0 0 -0.07422,0.042969 0.66188618,0.66188618 0 0 0 -0.0957,0.056641 0.66181999,0.66181999 0 0 0 -0.267578,0.1582031 L 26.460939,6.9707037 A 0.66181999,0.66181999 0 0 0 26.589846,7.896485 0.66181999,0.66181999 0 0 0 27.51758,7.7675787 L 29.183594,5.5664062 V 16.478516 a 0.66181999,0.66181999 0 0 0 0.662109,0.662109 0.66181999,0.66181999 0 0 0 0.660156,-0.662109 V 5.5644531 l 1.667969,2.203125 a 0.66181999,0.66181999 0 0 0 0.925781,0.1289063 0.66181999,0.66181999 0 0 0 0.128907,-0.9257813 L 30.373047,3.1953125 A 0.66188618,0.66188618 0 0 0 30.335937,3.1835938 0.66181999,0.66181999 0 0 0 30.244141,3.0664063 0.66181999,0.66181999 0 0 0 29.753906,2.9375 Z"
       id="path411" />
  </g>
</svg>
