<?xml version="1.0" encoding="UTF-8" standalone="no"?>
<svg
   width="2.3499999in"
   height="4in"
   viewBox="0 0 59.689999 101.6"
   version="1.1"
   id="svg853"
   xmlns="http://www.w3.org/2000/svg"
   xmlns:svg="http://www.w3.org/2000/svg"
   xmlns:rdf="http://www.w3.org/1999/02/22-rdf-syntax-ns#"
   xmlns:cc="http://creativecommons.org/ns#"
   xmlns:dc="http://purl.org/dc/elements/1.1/">
  <defs
     id="defs847" />
  <metadata
     id="metadata850">
    <rdf:RDF>
      <cc:Work
         rdf:about="">
        <dc:format>image/svg+xml</dc:format>
        <dc:type
           rdf:resource="http://purl.org/dc/dcmitype/StillImage" />
        <dc:title />
      </cc:Work>
    </rdf:RDF>
  </metadata>
  <g
     id="g953"
     style="display:inline">
    <path
       style="display:inline;fill:none;stroke:#000000;stroke-width:0.254;stroke-miterlimit:4;stroke-dasharray:none"
       d="m 32.384999,73.024988 a 2.54,2.54 0 0 0 -2.54,-2.54 2.54,2.54 0 0 0 -2.54,2.54 2.54,2.54 0 0 0 2.54,2.54 2.54,2.54 0 0 0 2.54,-2.54 z"
       id="path947" />
    <path
       style="display:inline;fill:none;stroke:#000000;stroke-width:0.254;stroke-miterlimit:4;stroke-dasharray:none"
       d="m 33.401,28.59 a 3.5559999,3.5559999 0 0 0 -3.556,-3.556 3.5559999,3.5559999 0 0 0 -3.556,3.556 3.5559999,3.5559999 0 0 0 3.556,3.556 3.5559999,3.5559999 0 0 0 3.556,-3.556 z"
       id="circle4-6" />
  </g>
</svg>
